<svg width="24" height="24" viewBox="0 0 24 24" fill="none" xmlns="http://www.w3.org/2000/svg">
<path fill-rule="evenodd" clip-rule="evenodd" d="M0.638107 0.666084C1.04681 0.257056 1.60105 0.0272767 2.17896 0.0272767C2.75687 0.0272767 3.31111 0.257056 3.71981 0.666084L11.9864 8.94172L20.2529 0.666084C20.454 0.457698 20.6945 0.291482 20.9604 0.177135C21.2263 0.0627881 21.5123 0.0025998 21.8016 8.2379e-05C22.091 -0.00243504 22.378 0.0527682 22.6458 0.162472C22.9137 0.272176 23.157 0.434182 23.3617 0.639039C23.5663 0.843896 23.7281 1.0875 23.8377 1.35564C23.9473 1.62378 24.0024 1.91108 23.9999 2.20078C23.9974 2.49048 23.9373 2.77677 23.8231 3.04297C23.7088 3.30916 23.5428 3.54991 23.3346 3.75117L15.0681 12.0268L23.3346 20.3024C23.7316 20.7139 23.9513 21.2651 23.9464 21.8371C23.9414 22.4092 23.7122 22.9564 23.3081 23.361C22.904 23.7655 22.3574 23.9949 21.7859 23.9999C21.2145 24.0049 20.664 23.785 20.2529 23.3875L11.9864 15.1119L3.71981 23.3875C3.30877 23.785 2.75824 24.0049 2.1868 23.9999C1.61536 23.9949 1.06874 23.7655 0.664655 23.361C0.260572 22.9564 0.0313632 22.4092 0.0263975 21.8371C0.0214319 21.2651 0.241107 20.7139 0.638107 20.3024L8.90467 12.0268L0.638107 3.75117C0.229527 3.34202 0 2.78717 0 2.20863C0 1.63009 0.229527 1.07524 0.638107 0.666084Z" fill="black"/>
</svg>
