<svg width="619" height="414" viewBox="0 0 619 414" fill="none" xmlns="http://www.w3.org/2000/svg">
<circle cx="317" cy="249" r="128" fill="#F7F8F9"/>
<circle cx="317" cy="249" r="161" stroke="url(#paint0_linear_130_25)" stroke-width="8" stroke-linecap="round" stroke-linejoin="round" stroke-dasharray="0.1 16"/>
<path d="M242.979 20H241.581L244.722 11.2727H246.243L249.384 20H247.986L245.519 12.858H245.451L242.979 20ZM243.214 16.5824H247.748V17.6903H243.214V16.5824ZM256.257 11.2727H257.578V17.0128C257.578 17.6236 257.434 18.1648 257.147 18.6364C256.86 19.1051 256.457 19.4744 255.937 19.7443C255.417 20.0114 254.808 20.1449 254.109 20.1449C253.413 20.1449 252.805 20.0114 252.285 19.7443C251.765 19.4744 251.362 19.1051 251.075 18.6364C250.788 18.1648 250.644 17.6236 250.644 17.0128V11.2727H251.961V16.9062C251.961 17.3011 252.048 17.652 252.221 17.9588C252.397 18.2656 252.646 18.5071 252.967 18.6832C253.288 18.8565 253.669 18.9432 254.109 18.9432C254.552 18.9432 254.934 18.8565 255.255 18.6832C255.579 18.5071 255.826 18.2656 255.997 17.9588C256.17 17.652 256.257 17.3011 256.257 16.9062V11.2727ZM259.062 12.4062V11.2727H265.816V12.4062H263.093V20H261.78V12.4062H259.062ZM274.514 15.6364C274.514 16.5682 274.344 17.3693 274.003 18.0398C273.662 18.7074 273.195 19.2216 272.601 19.5824C272.01 19.9403 271.338 20.1193 270.585 20.1193C269.83 20.1193 269.155 19.9403 268.561 19.5824C267.97 19.2216 267.504 18.706 267.164 18.0355C266.823 17.3651 266.652 16.5653 266.652 15.6364C266.652 14.7045 266.823 13.9048 267.164 13.2372C267.504 12.5668 267.97 12.0526 268.561 11.6946C269.155 11.3338 269.83 11.1534 270.585 11.1534C271.338 11.1534 272.01 11.3338 272.601 11.6946C273.195 12.0526 273.662 12.5668 274.003 13.2372C274.344 13.9048 274.514 14.7045 274.514 15.6364ZM273.21 15.6364C273.21 14.9261 273.095 14.3281 272.865 13.8423C272.638 13.3537 272.325 12.9844 271.928 12.7344C271.533 12.4815 271.085 12.3551 270.585 12.3551C270.083 12.3551 269.634 12.4815 269.239 12.7344C268.844 12.9844 268.531 13.3537 268.301 13.8423C268.074 14.3281 267.96 14.9261 267.96 15.6364C267.96 16.3466 268.074 16.946 268.301 17.4347C268.531 17.9205 268.844 18.2898 269.239 18.5426C269.634 18.7926 270.083 18.9176 270.585 18.9176C271.085 18.9176 271.533 18.7926 271.928 18.5426C272.325 18.2898 272.638 17.9205 272.865 17.4347C273.095 16.946 273.21 16.3466 273.21 15.6364ZM276.156 11.2727H277.754L280.532 18.0568H280.635L283.413 11.2727H285.011V20H283.758V13.6847H283.677L281.104 19.9872H280.064L277.49 13.6804H277.409V20H276.156V11.2727ZM287.663 20H286.265L289.406 11.2727H290.927L294.068 20H292.67L290.203 12.858H290.134L287.663 20ZM287.897 16.5824H292.431V17.6903H287.897V16.5824ZM293.866 12.4062V11.2727H300.621V12.4062H297.898V20H296.585V12.4062H293.866ZM302.113 20V11.2727H307.585V12.4062H303.43V15.0653H307.299V16.1946H303.43V18.8665H307.636V20H302.113ZM312.169 20H309.344V11.2727H312.258C313.113 11.2727 313.848 11.4474 314.461 11.7969C315.075 12.1435 315.545 12.642 315.872 13.2926C316.202 13.9403 316.366 14.7173 316.366 15.6236C316.366 16.5327 316.2 17.3139 315.868 17.9673C315.538 18.6207 315.061 19.1236 314.436 19.4759C313.811 19.8253 313.055 20 312.169 20ZM310.66 18.8494H312.096C312.761 18.8494 313.314 18.7244 313.754 18.4744C314.194 18.2216 314.524 17.8565 314.743 17.3793C314.961 16.8991 315.071 16.3139 315.071 15.6236C315.071 14.9389 314.961 14.358 314.743 13.8807C314.527 13.4034 314.204 13.0412 313.775 12.794C313.346 12.5469 312.814 12.4233 312.177 12.4233H310.66V18.8494ZM324.005 20H321.18V11.2727H324.094C324.949 11.2727 325.684 11.4474 326.297 11.7969C326.911 12.1435 327.381 12.642 327.708 13.2926C328.037 13.9403 328.202 14.7173 328.202 15.6236C328.202 16.5327 328.036 17.3139 327.704 17.9673C327.374 18.6207 326.897 19.1236 326.272 19.4759C325.647 19.8253 324.891 20 324.005 20ZM322.496 18.8494H323.932C324.597 18.8494 325.15 18.7244 325.59 18.4744C326.03 18.2216 326.36 17.8565 326.579 17.3793C326.797 16.8991 326.907 16.3139 326.907 15.6236C326.907 14.9389 326.797 14.358 326.579 13.8807C326.363 13.4034 326.04 13.0412 325.611 12.794C325.182 12.5469 324.65 12.4233 324.013 12.4233H322.496V18.8494ZM331.156 11.2727V20H329.84V11.2727H331.156ZM337.834 13.5653C337.789 13.1619 337.601 12.8494 337.271 12.6278C336.942 12.4034 336.527 12.2912 336.027 12.2912C335.669 12.2912 335.36 12.348 335.098 12.4616C334.837 12.5724 334.634 12.7259 334.489 12.9219C334.347 13.1151 334.276 13.3352 334.276 13.5824C334.276 13.7898 334.324 13.9687 334.421 14.1193C334.52 14.2699 334.649 14.3963 334.808 14.4986C334.97 14.598 335.144 14.6818 335.328 14.75C335.513 14.8153 335.691 14.8693 335.861 14.9119L336.713 15.1335C336.992 15.2017 337.277 15.294 337.57 15.4105C337.862 15.527 338.134 15.6804 338.384 15.8707C338.634 16.0611 338.835 16.2969 338.989 16.5781C339.145 16.8594 339.223 17.196 339.223 17.5881C339.223 18.0824 339.095 18.5213 338.84 18.9048C338.587 19.2884 338.219 19.5909 337.736 19.8125C337.256 20.0341 336.675 20.1449 335.993 20.1449C335.34 20.1449 334.774 20.0412 334.297 19.8338C333.82 19.6264 333.446 19.3324 333.176 18.9517C332.906 18.5682 332.757 18.1136 332.729 17.5881H334.05C334.075 17.9034 334.178 18.1662 334.357 18.3764C334.539 18.5838 334.77 18.7386 335.051 18.8409C335.335 18.9403 335.646 18.9901 335.985 18.9901C336.357 18.9901 336.688 18.9318 336.977 18.8153C337.27 18.696 337.5 18.5312 337.668 18.321C337.835 18.108 337.919 17.8594 337.919 17.5753C337.919 17.3168 337.845 17.1051 337.698 16.9403C337.553 16.7756 337.355 16.6392 337.105 16.5312C336.858 16.4233 336.578 16.3281 336.266 16.2457L335.235 15.9645C334.536 15.7741 333.982 15.4943 333.573 15.125C333.166 14.7557 332.963 14.267 332.963 13.6591C332.963 13.1562 333.1 12.7173 333.372 12.3423C333.645 11.9673 334.014 11.6761 334.48 11.4688C334.946 11.2585 335.472 11.1534 336.057 11.1534C336.648 11.1534 337.169 11.2571 337.621 11.4645C338.075 11.6719 338.433 11.9574 338.695 12.321C338.956 12.6818 339.093 13.0966 339.104 13.5653H337.834ZM348.045 14.1108H346.716C346.665 13.8267 346.569 13.5767 346.43 13.3608C346.291 13.1449 346.121 12.9616 345.919 12.8111C345.717 12.6605 345.491 12.5469 345.241 12.4702C344.994 12.3935 344.731 12.3551 344.453 12.3551C343.95 12.3551 343.5 12.4815 343.102 12.7344C342.707 12.9872 342.395 13.358 342.165 13.8466C341.937 14.3352 341.824 14.9318 341.824 15.6364C341.824 16.3466 341.937 16.946 342.165 17.4347C342.395 17.9233 342.709 18.2926 343.106 18.5426C343.504 18.7926 343.952 18.9176 344.449 18.9176C344.724 18.9176 344.986 18.8807 345.233 18.8068C345.483 18.7301 345.709 18.6179 345.91 18.4702C346.112 18.3224 346.282 18.142 346.422 17.929C346.564 17.7131 346.662 17.4659 346.716 17.1875L348.045 17.1918C347.974 17.6207 347.836 18.0156 347.632 18.3764C347.43 18.7344 347.17 19.044 346.852 19.3054C346.537 19.5639 346.176 19.7642 345.77 19.9062C345.363 20.0483 344.92 20.1193 344.44 20.1193C343.684 20.1193 343.011 19.9403 342.42 19.5824C341.829 19.2216 341.363 18.706 341.023 18.0355C340.684 17.3651 340.515 16.5653 340.515 15.6364C340.515 14.7045 340.686 13.9048 341.027 13.2372C341.368 12.5668 341.834 12.0526 342.425 11.6946C343.015 11.3338 343.687 11.1534 344.44 11.1534C344.903 11.1534 345.335 11.2202 345.736 11.3537C346.139 11.4844 346.501 11.6776 346.822 11.9332C347.143 12.1861 347.409 12.4957 347.619 12.8622C347.829 13.2259 347.971 13.642 348.045 14.1108ZM357.202 15.6364C357.202 16.5682 357.031 17.3693 356.691 18.0398C356.35 18.7074 355.882 19.2216 355.289 19.5824C354.698 19.9403 354.026 20.1193 353.273 20.1193C352.517 20.1193 351.843 19.9403 351.249 19.5824C350.658 19.2216 350.192 18.706 349.851 18.0355C349.51 17.3651 349.34 16.5653 349.34 15.6364C349.34 14.7045 349.51 13.9048 349.851 13.2372C350.192 12.5668 350.658 12.0526 351.249 11.6946C351.843 11.3338 352.517 11.1534 353.273 11.1534C354.026 11.1534 354.698 11.3338 355.289 11.6946C355.882 12.0526 356.35 12.5668 356.691 13.2372C357.031 13.9048 357.202 14.7045 357.202 15.6364ZM355.898 15.6364C355.898 14.9261 355.783 14.3281 355.553 13.8423C355.325 13.3537 355.013 12.9844 354.615 12.7344C354.22 12.4815 353.773 12.3551 353.273 12.3551C352.77 12.3551 352.321 12.4815 351.926 12.7344C351.531 12.9844 351.219 13.3537 350.989 13.8423C350.762 14.3281 350.648 14.9261 350.648 15.6364C350.648 16.3466 350.762 16.946 350.989 17.4347C351.219 17.9205 351.531 18.2898 351.926 18.5426C352.321 18.7926 352.77 18.9176 353.273 18.9176C353.773 18.9176 354.22 18.7926 354.615 18.5426C355.013 18.2898 355.325 17.9205 355.553 17.4347C355.783 16.946 355.898 16.3466 355.898 15.6364ZM359.173 11.2727L361.602 18.3807H361.7L364.129 11.2727H365.552L362.411 20H360.89L357.749 11.2727H359.173ZM366.812 20V11.2727H372.284V12.4062H368.129V15.0653H371.998V16.1946H368.129V18.8665H372.335V20H366.812ZM374.043 20V11.2727H377.154C377.83 11.2727 378.391 11.3892 378.837 11.6222C379.286 11.8551 379.621 12.1776 379.843 12.5895C380.064 12.9986 380.175 13.4716 380.175 14.0085C380.175 14.5426 380.063 15.0128 379.838 15.419C379.617 15.8224 379.281 16.1364 378.833 16.3608C378.387 16.5852 377.825 16.6974 377.149 16.6974H374.793V15.5639H377.03C377.456 15.5639 377.803 15.5028 378.07 15.3807C378.34 15.2585 378.537 15.081 378.662 14.848C378.787 14.6151 378.85 14.3352 378.85 14.0085C378.85 13.679 378.786 13.3935 378.658 13.152C378.533 12.9105 378.335 12.7259 378.066 12.598C377.798 12.4673 377.448 12.402 377.013 12.402H375.36V20H374.043ZM378.351 16.0625L380.507 20H379.007L376.894 16.0625H378.351ZM380.787 11.2727H382.283L384.563 15.2401H384.657L386.937 11.2727H388.432L385.266 16.5739V20H383.954V16.5739L380.787 11.2727Z" fill="black" fill-opacity="0.7"/>
<path d="M1.21662 393V384.273H4.32741C5.00639 384.273 5.56889 384.396 6.01491 384.643C6.46094 384.891 6.79474 385.229 7.01634 385.658C7.23793 386.084 7.34872 386.564 7.34872 387.098C7.34872 387.635 7.23651 388.118 7.01207 388.547C6.79048 388.973 6.45526 389.311 6.00639 389.561C5.56037 389.808 4.99929 389.932 4.32315 389.932H2.18395V388.815H4.20384C4.63281 388.815 4.98082 388.741 5.24787 388.594C5.51491 388.443 5.71094 388.239 5.83594 387.98C5.96094 387.722 6.02344 387.428 6.02344 387.098C6.02344 386.768 5.96094 386.476 5.83594 386.22C5.71094 385.964 5.51349 385.764 5.24361 385.619C4.97656 385.474 4.62429 385.402 4.18679 385.402H2.53338V393H1.21662ZM8.8924 393V384.273H12.0032C12.6793 384.273 13.2404 384.389 13.6864 384.622C14.1353 384.855 14.4705 385.178 14.6921 385.589C14.9137 385.999 15.0245 386.472 15.0245 387.009C15.0245 387.543 14.9123 388.013 14.6879 388.419C14.4663 388.822 14.131 389.136 13.6822 389.361C13.2362 389.585 12.6751 389.697 11.9989 389.697H9.6424V388.564H11.8796C12.3058 388.564 12.6523 388.503 12.9194 388.381C13.1893 388.259 13.3867 388.081 13.5117 387.848C13.6367 387.615 13.6992 387.335 13.6992 387.009C13.6992 386.679 13.6353 386.393 13.5075 386.152C13.3825 385.911 13.185 385.726 12.9151 385.598C12.6481 385.467 12.2972 385.402 11.8626 385.402H10.2092V393H8.8924ZM13.2006 389.062L15.3569 393H13.8569L11.7433 389.062H13.2006ZM24.2077 388.636C24.2077 389.568 24.0373 390.369 23.6964 391.04C23.3555 391.707 22.8881 392.222 22.2944 392.582C21.7035 392.94 21.0316 393.119 20.2788 393.119C19.5231 393.119 18.8484 392.94 18.2546 392.582C17.6637 392.222 17.1978 391.706 16.8569 391.036C16.516 390.365 16.3455 389.565 16.3455 388.636C16.3455 387.705 16.516 386.905 16.8569 386.237C17.1978 385.567 17.6637 385.053 18.2546 384.695C18.8484 384.334 19.5231 384.153 20.2788 384.153C21.0316 384.153 21.7035 384.334 22.2944 384.695C22.8881 385.053 23.3555 385.567 23.6964 386.237C24.0373 386.905 24.2077 387.705 24.2077 388.636ZM22.9038 388.636C22.9038 387.926 22.7887 387.328 22.5586 386.842C22.3313 386.354 22.0188 385.984 21.6211 385.734C21.2262 385.482 20.7788 385.355 20.2788 385.355C19.7759 385.355 19.3271 385.482 18.9322 385.734C18.5373 385.984 18.2248 386.354 17.9947 386.842C17.7674 387.328 17.6538 387.926 17.6538 388.636C17.6538 389.347 17.7674 389.946 17.9947 390.435C18.2248 390.92 18.5373 391.29 18.9322 391.543C19.3271 391.793 19.7759 391.918 20.2788 391.918C20.7788 391.918 21.2262 391.793 21.6211 391.543C22.0188 391.29 22.3313 390.92 22.5586 390.435C22.7887 389.946 22.9038 389.347 22.9038 388.636ZM31.7557 387.03C31.6733 386.771 31.5625 386.54 31.4233 386.335C31.2869 386.128 31.1236 385.952 30.9332 385.807C30.7429 385.659 30.5256 385.547 30.2812 385.47C30.0398 385.393 29.7741 385.355 29.4844 385.355C28.9929 385.355 28.5497 385.482 28.1548 385.734C27.7599 385.987 27.4474 386.358 27.2173 386.847C26.9901 387.332 26.8764 387.928 26.8764 388.632C26.8764 389.339 26.9915 389.937 27.2216 390.426C27.4517 390.915 27.767 391.286 28.1676 391.538C28.5682 391.791 29.0241 391.918 29.5355 391.918C30.0099 391.918 30.4233 391.821 30.7756 391.628C31.1307 391.435 31.4048 391.162 31.598 390.81C31.794 390.455 31.892 390.037 31.892 389.557L32.233 389.621H29.7358V388.534H33.1662V389.527C33.1662 390.26 33.0099 390.896 32.6974 391.436C32.3878 391.973 31.9588 392.388 31.4105 392.68C30.8651 392.973 30.2401 393.119 29.5355 393.119C28.7457 393.119 28.0526 392.938 27.456 392.574C26.8622 392.21 26.3991 391.695 26.0668 391.027C25.7344 390.357 25.5682 389.561 25.5682 388.641C25.5682 387.945 25.6648 387.32 25.858 386.766C26.0511 386.212 26.3224 385.741 26.6719 385.355C27.0241 384.966 27.4375 384.669 27.9119 384.464C28.3892 384.257 28.9105 384.153 29.4759 384.153C29.9474 384.153 30.3864 384.223 30.7926 384.362C31.2017 384.501 31.5653 384.699 31.8835 384.955C32.2045 385.21 32.4702 385.514 32.6804 385.866C32.8906 386.216 33.0327 386.604 33.1065 387.03H31.7557ZM34.8377 393V384.273H37.9485C38.6246 384.273 39.1857 384.389 39.6317 384.622C40.0806 384.855 40.4158 385.178 40.6374 385.589C40.859 385.999 40.9698 386.472 40.9698 387.009C40.9698 387.543 40.8576 388.013 40.6332 388.419C40.4116 388.822 40.0763 389.136 39.6275 389.361C39.1815 389.585 38.6204 389.697 37.9442 389.697H35.5877V388.564H37.8249C38.2511 388.564 38.5977 388.503 38.8647 388.381C39.1346 388.259 39.332 388.081 39.457 387.848C39.582 387.615 39.6445 387.335 39.6445 387.009C39.6445 386.679 39.5806 386.393 39.4528 386.152C39.3278 385.911 39.1303 385.726 38.8604 385.598C38.5934 385.467 38.2425 385.402 37.8079 385.402H36.1545V393H34.8377ZM39.146 389.062L41.3022 393H39.8022L37.6886 389.062H39.146ZM42.5721 393V384.273H48.0437V385.406H43.8888V388.065H47.7582V389.195H43.8888V391.866H48.0948V393H42.5721ZM54.5625 386.565C54.517 386.162 54.3295 385.849 54 385.628C53.6705 385.403 53.2557 385.291 52.7557 385.291C52.3977 385.291 52.0881 385.348 51.8267 385.462C51.5653 385.572 51.3622 385.726 51.2173 385.922C51.0753 386.115 51.0043 386.335 51.0043 386.582C51.0043 386.79 51.0526 386.969 51.1491 387.119C51.2486 387.27 51.3778 387.396 51.5369 387.499C51.6989 387.598 51.8722 387.682 52.0568 387.75C52.2415 387.815 52.419 387.869 52.5895 387.912L53.4418 388.134C53.7202 388.202 54.0057 388.294 54.2983 388.411C54.5909 388.527 54.8622 388.68 55.1122 388.871C55.3622 389.061 55.5639 389.297 55.7173 389.578C55.8736 389.859 55.9517 390.196 55.9517 390.588C55.9517 391.082 55.8239 391.521 55.5682 391.905C55.3153 392.288 54.9474 392.591 54.4645 392.812C53.9844 393.034 53.4034 393.145 52.7216 393.145C52.0682 393.145 51.5028 393.041 51.0256 392.834C50.5483 392.626 50.1747 392.332 49.9048 391.952C49.6349 391.568 49.4858 391.114 49.4574 390.588H50.7784C50.804 390.903 50.9063 391.166 51.0852 391.376C51.267 391.584 51.4986 391.739 51.7798 391.841C52.0639 391.94 52.375 391.99 52.7131 391.99C53.0852 391.99 53.4162 391.932 53.706 391.815C53.9986 391.696 54.2287 391.531 54.3963 391.321C54.5639 391.108 54.6477 390.859 54.6477 390.575C54.6477 390.317 54.5739 390.105 54.4261 389.94C54.2813 389.776 54.0838 389.639 53.8338 389.531C53.5866 389.423 53.3068 389.328 52.9943 389.246L51.9631 388.964C51.2642 388.774 50.7102 388.494 50.3011 388.125C49.8949 387.756 49.6918 387.267 49.6918 386.659C49.6918 386.156 49.8281 385.717 50.1009 385.342C50.3736 384.967 50.7429 384.676 51.2088 384.469C51.6747 384.259 52.2003 384.153 52.7855 384.153C53.3764 384.153 53.8977 384.257 54.3494 384.464C54.804 384.672 55.1619 384.957 55.4233 385.321C55.6847 385.682 55.821 386.097 55.8324 386.565H54.5625ZM62.2852 386.565C62.2397 386.162 62.0522 385.849 61.7227 385.628C61.3931 385.403 60.9783 385.291 60.4783 385.291C60.1204 385.291 59.8107 385.348 59.5494 385.462C59.288 385.572 59.0849 385.726 58.94 385.922C58.7979 386.115 58.7269 386.335 58.7269 386.582C58.7269 386.79 58.7752 386.969 58.8718 387.119C58.9712 387.27 59.1005 387.396 59.2596 387.499C59.4215 387.598 59.5948 387.682 59.7795 387.75C59.9641 387.815 60.1417 387.869 60.3121 387.912L61.1644 388.134C61.4428 388.202 61.7283 388.294 62.021 388.411C62.3136 388.527 62.5849 388.68 62.8349 388.871C63.0849 389.061 63.2866 389.297 63.44 389.578C63.5962 389.859 63.6744 390.196 63.6744 390.588C63.6744 391.082 63.5465 391.521 63.2908 391.905C63.038 392.288 62.6701 392.591 62.1871 392.812C61.707 393.034 61.1261 393.145 60.4442 393.145C59.7908 393.145 59.2255 393.041 58.7482 392.834C58.271 392.626 57.8974 392.332 57.6275 391.952C57.3576 391.568 57.2085 391.114 57.18 390.588H58.5011C58.5266 390.903 58.6289 391.166 58.8079 391.376C58.9897 391.584 59.2212 391.739 59.5025 391.841C59.7866 391.94 60.0977 391.99 60.4357 391.99C60.8079 391.99 61.1388 391.932 61.4286 391.815C61.7212 391.696 61.9513 391.531 62.119 391.321C62.2866 391.108 62.3704 390.859 62.3704 390.575C62.3704 390.317 62.2965 390.105 62.1488 389.94C62.0039 389.776 61.8065 389.639 61.5565 389.531C61.3093 389.423 61.0295 389.328 60.717 389.246L59.6857 388.964C58.9869 388.774 58.4329 388.494 58.0238 388.125C57.6175 387.756 57.4144 387.267 57.4144 386.659C57.4144 386.156 57.5508 385.717 57.8235 385.342C58.0962 384.967 58.4656 384.676 58.9315 384.469C59.3974 384.259 59.9229 384.153 60.5082 384.153C61.0991 384.153 61.6204 384.257 62.0721 384.464C62.5266 384.672 62.8846 384.957 63.146 385.321C63.4073 385.682 63.5437 386.097 63.555 386.565H62.2852ZM66.5646 384.273V393H65.2479V384.273H66.5646ZM69.245 384.273L71.674 391.381H71.772L74.201 384.273H75.6243L72.4837 393H70.9624L67.8217 384.273H69.245ZM76.8846 393V384.273H82.3562V385.406H78.2013V388.065H82.0707V389.195H78.2013V391.866H82.4073V393H76.8846ZM86.8604 385.406V384.273H93.6147V385.406H90.8917V393H89.5792V385.406H86.8604ZM95.1072 393V384.273H96.424V388.065H100.775V384.273H102.096V393H100.775V389.195H96.424V393H95.1072ZM104.013 393V384.273H107.124C107.8 384.273 108.362 384.389 108.808 384.622C109.256 384.855 109.592 385.178 109.813 385.589C110.035 385.999 110.146 386.472 110.146 387.009C110.146 387.543 110.033 388.013 109.809 388.419C109.587 388.822 109.252 389.136 108.803 389.361C108.357 389.585 107.796 389.697 107.12 389.697H104.763V388.564H107.001C107.427 388.564 107.773 388.503 108.04 388.381C108.31 388.259 108.508 388.081 108.633 387.848C108.758 387.615 108.82 387.335 108.82 387.009C108.82 386.679 108.756 386.393 108.629 386.152C108.504 385.911 108.306 385.726 108.036 385.598C107.769 385.467 107.418 385.402 106.984 385.402H105.33V393H104.013ZM108.322 389.062L110.478 393H108.978L106.864 389.062H108.322ZM111.748 393V384.273H117.219V385.406H113.065V388.065H116.934V389.195H113.065V391.866H117.271V393H111.748ZM119.716 393H118.318L121.458 384.273H122.98L126.12 393H124.723L122.255 385.858H122.187L119.716 393ZM119.95 389.582H124.484V390.69H119.95V389.582ZM125.919 385.406V384.273H132.673V385.406H129.95V393H128.638V385.406H125.919ZM137.342 384.273H138.94L141.718 391.057H141.82L144.599 384.273H146.197V393H144.944V386.685H144.863L142.289 392.987H141.249L138.675 386.68H138.594V393H137.342V384.273ZM155.692 388.636C155.692 389.568 155.522 390.369 155.181 391.04C154.84 391.707 154.373 392.222 153.779 392.582C153.188 392.94 152.516 393.119 151.763 393.119C151.007 393.119 150.333 392.94 149.739 392.582C149.148 392.222 148.682 391.706 148.341 391.036C148 390.365 147.83 389.565 147.83 388.636C147.83 387.705 148 386.905 148.341 386.237C148.682 385.567 149.148 385.053 149.739 384.695C150.333 384.334 151.007 384.153 151.763 384.153C152.516 384.153 153.188 384.334 153.779 384.695C154.373 385.053 154.84 385.567 155.181 386.237C155.522 386.905 155.692 387.705 155.692 388.636ZM154.388 388.636C154.388 387.926 154.273 387.328 154.043 386.842C153.816 386.354 153.503 385.984 153.105 385.734C152.711 385.482 152.263 385.355 151.763 385.355C151.26 385.355 150.811 385.482 150.417 385.734C150.022 385.984 149.709 386.354 149.479 386.842C149.252 387.328 149.138 387.926 149.138 388.636C149.138 389.347 149.252 389.946 149.479 390.435C149.709 390.92 150.022 391.29 150.417 391.543C150.811 391.793 151.26 391.918 151.763 391.918C152.263 391.918 152.711 391.793 153.105 391.543C153.503 391.29 153.816 390.92 154.043 390.435C154.273 389.946 154.388 389.347 154.388 388.636ZM160.159 393H157.334V384.273H160.249C161.104 384.273 161.838 384.447 162.452 384.797C163.065 385.143 163.536 385.642 163.862 386.293C164.192 386.94 164.357 387.717 164.357 388.624C164.357 389.533 164.19 390.314 163.858 390.967C163.528 391.621 163.051 392.124 162.426 392.476C161.801 392.825 161.045 393 160.159 393ZM158.651 391.849H160.087C160.751 391.849 161.304 391.724 161.744 391.474C162.185 391.222 162.514 390.857 162.733 390.379C162.952 389.899 163.061 389.314 163.061 388.624C163.061 387.939 162.952 387.358 162.733 386.881C162.517 386.403 162.195 386.041 161.766 385.794C161.337 385.547 160.804 385.423 160.168 385.423H158.651V391.849ZM165.994 393V384.273H171.466V385.406H167.311V388.065H171.18V389.195H167.311V391.866H171.517V393H165.994ZM173.224 393V384.273H174.541V391.866H178.496V393H173.224ZM179.998 393V384.273H181.315V391.866H185.269V393H179.998ZM188.088 384.273V393H186.771V384.273H188.088ZM197.05 384.273V393H195.839L191.403 386.599H191.322V393H190.006V384.273H191.224L195.665 390.682H195.746V384.273H197.05ZM204.877 387.03C204.794 386.771 204.684 386.54 204.544 386.335C204.408 386.128 204.245 385.952 204.054 385.807C203.864 385.659 203.647 385.547 203.402 385.47C203.161 385.393 202.895 385.355 202.605 385.355C202.114 385.355 201.671 385.482 201.276 385.734C200.881 385.987 200.569 386.358 200.338 386.847C200.111 387.332 199.998 387.928 199.998 388.632C199.998 389.339 200.113 389.937 200.343 390.426C200.573 390.915 200.888 391.286 201.289 391.538C201.689 391.791 202.145 391.918 202.657 391.918C203.131 391.918 203.544 391.821 203.897 391.628C204.252 391.435 204.526 391.162 204.719 390.81C204.915 390.455 205.013 390.037 205.013 389.557L205.354 389.621H202.857V388.534H206.287V389.527C206.287 390.26 206.131 390.896 205.819 391.436C205.509 391.973 205.08 392.388 204.532 392.68C203.986 392.973 203.361 393.119 202.657 393.119C201.867 393.119 201.174 392.938 200.577 392.574C199.983 392.21 199.52 391.695 199.188 391.027C198.855 390.357 198.689 389.561 198.689 388.641C198.689 387.945 198.786 387.32 198.979 386.766C199.172 386.212 199.444 385.741 199.793 385.355C200.145 384.966 200.559 384.669 201.033 384.464C201.51 384.257 202.032 384.153 202.597 384.153C203.069 384.153 203.507 384.223 203.914 384.362C204.323 384.501 204.686 384.699 205.005 384.955C205.326 385.21 205.591 385.514 205.801 385.866C206.012 386.216 206.154 386.604 206.228 387.03H204.877Z" fill="black" fill-opacity="0.7"/>
<path d="M422.528 385.406V384.273H429.283V385.406H426.56V393H425.247V385.406H422.528ZM430.481 393H429.083L432.224 384.273H433.745L436.886 393H435.488L433.021 385.858H432.953L430.481 393ZM430.716 389.582H435.25V390.69H430.716V389.582ZM439.463 384.273V393H438.146V384.273H439.463ZM441.381 393V384.273H442.697V391.866H446.652V393H441.381ZM455.395 388.636C455.395 389.568 455.225 390.369 454.884 391.04C454.543 391.707 454.076 392.222 453.482 392.582C452.891 392.94 452.219 393.119 451.466 393.119C450.711 393.119 450.036 392.94 449.442 392.582C448.851 392.222 448.385 391.706 448.044 391.036C447.703 390.365 447.533 389.565 447.533 388.636C447.533 387.705 447.703 386.905 448.044 386.237C448.385 385.567 448.851 385.053 449.442 384.695C450.036 384.334 450.711 384.153 451.466 384.153C452.219 384.153 452.891 384.334 453.482 384.695C454.076 385.053 454.543 385.567 454.884 386.237C455.225 386.905 455.395 387.705 455.395 388.636ZM454.091 388.636C454.091 387.926 453.976 387.328 453.746 386.842C453.519 386.354 453.206 385.984 452.809 385.734C452.414 385.482 451.966 385.355 451.466 385.355C450.963 385.355 450.515 385.482 450.12 385.734C449.725 385.984 449.412 386.354 449.182 386.842C448.955 387.328 448.841 387.926 448.841 388.636C448.841 389.347 448.955 389.946 449.182 390.435C449.412 390.92 449.725 391.29 450.12 391.543C450.515 391.793 450.963 391.918 451.466 391.918C451.966 391.918 452.414 391.793 452.809 391.543C453.206 391.29 453.519 390.92 453.746 390.435C453.976 389.946 454.091 389.347 454.091 388.636ZM457.037 393V384.273H460.148C460.824 384.273 461.385 384.389 461.831 384.622C462.28 384.855 462.615 385.178 462.837 385.589C463.058 385.999 463.169 386.472 463.169 387.009C463.169 387.543 463.057 388.013 462.832 388.419C462.611 388.822 462.276 389.136 461.827 389.361C461.381 389.585 460.82 389.697 460.143 389.697H457.787V388.564H460.024C460.45 388.564 460.797 388.503 461.064 388.381C461.334 388.259 461.531 388.081 461.656 387.848C461.781 387.615 461.844 387.335 461.844 387.009C461.844 386.679 461.78 386.393 461.652 386.152C461.527 385.911 461.33 385.726 461.06 385.598C460.793 385.467 460.442 385.402 460.007 385.402H458.354V393H457.037ZM461.345 389.062L463.501 393H462.001L459.888 389.062H461.345ZM464.771 393V384.273H470.243V385.406H466.088V388.065H469.957V389.195H466.088V391.866H470.294V393H464.771ZM474.827 393H472.002V384.273H474.917C475.772 384.273 476.506 384.447 477.12 384.797C477.733 385.143 478.203 385.642 478.53 386.293C478.86 386.94 479.025 387.717 479.025 388.624C479.025 389.533 478.858 390.314 478.526 390.967C478.196 391.621 477.719 392.124 477.094 392.476C476.469 392.825 475.713 393 474.827 393ZM473.319 391.849H474.755C475.419 391.849 475.972 391.724 476.412 391.474C476.853 391.222 477.182 390.857 477.401 390.379C477.62 389.899 477.729 389.314 477.729 388.624C477.729 387.939 477.62 387.358 477.401 386.881C477.185 386.403 476.863 386.041 476.434 385.794C476.005 385.547 475.472 385.423 474.836 385.423H473.319V391.849ZM484.575 393H483.177L486.318 384.273H487.839L490.98 393H489.582L487.115 385.858H487.047L484.575 393ZM484.809 389.582H489.343V390.69H484.809V389.582ZM499.078 387.111H497.749C497.698 386.827 497.603 386.577 497.463 386.361C497.324 386.145 497.154 385.962 496.952 385.811C496.75 385.661 496.525 385.547 496.275 385.47C496.027 385.393 495.765 385.355 495.486 385.355C494.983 385.355 494.533 385.482 494.135 385.734C493.74 385.987 493.428 386.358 493.198 386.847C492.971 387.335 492.857 387.932 492.857 388.636C492.857 389.347 492.971 389.946 493.198 390.435C493.428 390.923 493.742 391.293 494.14 391.543C494.537 391.793 494.985 391.918 495.482 391.918C495.757 391.918 496.019 391.881 496.266 391.807C496.516 391.73 496.742 391.618 496.944 391.47C497.145 391.322 497.316 391.142 497.455 390.929C497.597 390.713 497.695 390.466 497.749 390.188L499.078 390.192C499.007 390.621 498.87 391.016 498.665 391.376C498.463 391.734 498.203 392.044 497.885 392.305C497.57 392.564 497.209 392.764 496.803 392.906C496.397 393.048 495.953 393.119 495.473 393.119C494.718 393.119 494.044 392.94 493.453 392.582C492.863 392.222 492.397 391.706 492.056 391.036C491.718 390.365 491.549 389.565 491.549 388.636C491.549 387.705 491.719 386.905 492.06 386.237C492.401 385.567 492.867 385.053 493.458 384.695C494.049 384.334 494.721 384.153 495.473 384.153C495.936 384.153 496.368 384.22 496.769 384.354C497.172 384.484 497.534 384.678 497.855 384.933C498.176 385.186 498.442 385.496 498.652 385.862C498.863 386.226 499.005 386.642 499.078 387.111ZM500.224 385.406V384.273H506.978V385.406H504.255V393H502.942V385.406H500.224ZM509.787 384.273V393H508.471V384.273H509.787ZM519.286 388.636C519.286 389.568 519.115 390.369 518.775 391.04C518.434 391.707 517.966 392.222 517.373 392.582C516.782 392.94 516.11 393.119 515.357 393.119C514.601 393.119 513.926 392.94 513.333 392.582C512.742 392.222 512.276 391.706 511.935 391.036C511.594 390.365 511.424 389.565 511.424 388.636C511.424 387.705 511.594 386.905 511.935 386.237C512.276 385.567 512.742 385.053 513.333 384.695C513.926 384.334 514.601 384.153 515.357 384.153C516.11 384.153 516.782 384.334 517.373 384.695C517.966 385.053 518.434 385.567 518.775 386.237C519.115 386.905 519.286 387.705 519.286 388.636ZM517.982 388.636C517.982 387.926 517.867 387.328 517.637 386.842C517.409 386.354 517.097 385.984 516.699 385.734C516.304 385.482 515.857 385.355 515.357 385.355C514.854 385.355 514.405 385.482 514.01 385.734C513.615 385.984 513.303 386.354 513.073 386.842C512.846 387.328 512.732 387.926 512.732 388.636C512.732 389.347 512.846 389.946 513.073 390.435C513.303 390.92 513.615 391.29 514.01 391.543C514.405 391.793 514.854 391.918 515.357 391.918C515.857 391.918 516.304 391.793 516.699 391.543C517.097 391.29 517.409 390.92 517.637 390.435C517.867 389.946 517.982 389.347 517.982 388.636ZM527.972 384.273V393H526.761L522.325 386.599H522.244V393H520.928V384.273H522.146L526.587 390.682H526.668V384.273H527.972ZM530.63 393H529.232L532.373 384.273H533.894L537.034 393H535.637L533.169 385.858H533.101L530.63 393ZM530.864 389.582H535.398V390.69H530.864V389.582ZM538.295 393V384.273H541.491C542.11 384.273 542.623 384.375 543.029 384.58C543.435 384.781 543.739 385.055 543.941 385.402C544.143 385.746 544.244 386.134 544.244 386.565C544.244 386.929 544.177 387.236 544.043 387.486C543.91 387.733 543.731 387.932 543.506 388.082C543.285 388.23 543.04 388.338 542.773 388.406V388.491C543.063 388.506 543.346 388.599 543.621 388.773C543.9 388.943 544.13 389.186 544.312 389.501C544.494 389.817 544.585 390.2 544.585 390.652C544.585 391.098 544.479 391.499 544.269 391.854C544.062 392.206 543.741 392.486 543.306 392.693C542.871 392.898 542.316 393 541.64 393H538.295ZM539.612 391.871H541.512C542.143 391.871 542.594 391.749 542.867 391.504C543.14 391.26 543.276 390.955 543.276 390.588C543.276 390.312 543.207 390.06 543.067 389.83C542.928 389.599 542.729 389.416 542.471 389.28C542.215 389.143 541.911 389.075 541.559 389.075H539.612V391.871ZM539.612 388.048H541.376C541.671 388.048 541.937 387.991 542.173 387.878C542.411 387.764 542.6 387.605 542.739 387.401C542.881 387.193 542.952 386.949 542.952 386.668C542.952 386.307 542.826 386.004 542.573 385.76C542.32 385.516 541.933 385.393 541.41 385.393H539.612V388.048ZM546.146 393V384.273H547.463V391.866H551.418V393H546.146ZM552.92 393V384.273H558.391V385.406H554.237V388.065H558.106V389.195H554.237V391.866H558.442V393H552.92ZM564.643 384.273V393H563.326V384.273H564.643ZM573.604 384.273V393H572.394L567.958 386.599H567.877V393H566.56V384.273H567.779L572.219 390.682H572.3V384.273H573.604ZM580.285 386.565C580.24 386.162 580.052 385.849 579.723 385.628C579.393 385.403 578.978 385.291 578.478 385.291C578.12 385.291 577.811 385.348 577.549 385.462C577.288 385.572 577.085 385.726 576.94 385.922C576.798 386.115 576.727 386.335 576.727 386.582C576.727 386.79 576.775 386.969 576.872 387.119C576.971 387.27 577.1 387.396 577.26 387.499C577.422 387.598 577.595 387.682 577.779 387.75C577.964 387.815 578.142 387.869 578.312 387.912L579.164 388.134C579.443 388.202 579.728 388.294 580.021 388.411C580.314 388.527 580.585 388.68 580.835 388.871C581.085 389.061 581.287 389.297 581.44 389.578C581.596 389.859 581.674 390.196 581.674 390.588C581.674 391.082 581.547 391.521 581.291 391.905C581.038 392.288 580.67 392.591 580.187 392.812C579.707 393.034 579.126 393.145 578.444 393.145C577.791 393.145 577.225 393.041 576.748 392.834C576.271 392.626 575.897 392.332 575.627 391.952C575.358 391.568 575.208 391.114 575.18 390.588H576.501C576.527 390.903 576.629 391.166 576.808 391.376C576.99 391.584 577.221 391.739 577.502 391.841C577.787 391.94 578.098 391.99 578.436 391.99C578.808 391.99 579.139 391.932 579.429 391.815C579.721 391.696 579.951 391.531 580.119 391.321C580.287 391.108 580.37 390.859 580.37 390.575C580.37 390.317 580.297 390.105 580.149 389.94C580.004 389.776 579.806 389.639 579.556 389.531C579.309 389.423 579.029 389.328 578.717 389.246L577.686 388.964C576.987 388.774 576.433 388.494 576.024 388.125C575.618 387.756 575.414 387.267 575.414 386.659C575.414 386.156 575.551 385.717 575.824 385.342C576.096 384.967 576.466 384.676 576.931 384.469C577.397 384.259 577.923 384.153 578.508 384.153C579.099 384.153 579.62 384.257 580.072 384.464C580.527 384.672 580.885 384.957 581.146 385.321C581.407 385.682 581.544 386.097 581.555 386.565H580.285ZM584.565 384.273V393H583.248V384.273H584.565ZM592.388 387.03C592.306 386.771 592.195 386.54 592.056 386.335C591.92 386.128 591.756 385.952 591.566 385.807C591.376 385.659 591.158 385.547 590.914 385.47C590.673 385.393 590.407 385.355 590.117 385.355C589.626 385.355 589.183 385.482 588.788 385.734C588.393 385.987 588.08 386.358 587.85 386.847C587.623 387.332 587.509 387.928 587.509 388.632C587.509 389.339 587.624 389.937 587.854 390.426C588.085 390.915 588.4 391.286 588.8 391.538C589.201 391.791 589.657 391.918 590.168 391.918C590.643 391.918 591.056 391.821 591.408 391.628C591.763 391.435 592.038 391.162 592.231 390.81C592.427 390.455 592.525 390.037 592.525 389.557L592.866 389.621H590.369V388.534H593.799V389.527C593.799 390.26 593.643 390.896 593.33 391.436C593.021 391.973 592.592 392.388 592.043 392.68C591.498 392.973 590.873 393.119 590.168 393.119C589.379 393.119 588.685 392.938 588.089 392.574C587.495 392.21 587.032 391.695 586.7 391.027C586.367 390.357 586.201 389.561 586.201 388.641C586.201 387.945 586.298 387.32 586.491 386.766C586.684 386.212 586.955 385.741 587.305 385.355C587.657 384.966 588.07 384.669 588.545 384.464C589.022 384.257 589.543 384.153 590.109 384.153C590.58 384.153 591.019 384.223 591.425 384.362C591.835 384.501 592.198 384.699 592.516 384.955C592.837 385.21 593.103 385.514 593.313 385.866C593.523 386.216 593.665 386.604 593.739 387.03H592.388ZM595.471 393V384.273H596.787V388.065H601.138V384.273H602.459V393H601.138V389.195H596.787V393H595.471ZM603.946 385.406V384.273H610.701V385.406H607.978V393H606.665V385.406H603.946ZM616.953 386.565C616.908 386.162 616.72 385.849 616.391 385.628C616.061 385.403 615.646 385.291 615.146 385.291C614.788 385.291 614.479 385.348 614.217 385.462C613.956 385.572 613.753 385.726 613.608 385.922C613.466 386.115 613.395 386.335 613.395 386.582C613.395 386.79 613.443 386.969 613.54 387.119C613.639 387.27 613.768 387.396 613.928 387.499C614.089 387.598 614.263 387.682 614.447 387.75C614.632 387.815 614.81 387.869 614.98 387.912L615.832 388.134C616.111 388.202 616.396 388.294 616.689 388.411C616.982 388.527 617.253 388.68 617.503 388.871C617.753 389.061 617.955 389.297 618.108 389.578C618.264 389.859 618.342 390.196 618.342 390.588C618.342 391.082 618.214 391.521 617.959 391.905C617.706 392.288 617.338 392.591 616.855 392.812C616.375 393.034 615.794 393.145 615.112 393.145C614.459 393.145 613.893 393.041 613.416 392.834C612.939 392.626 612.565 392.332 612.295 391.952C612.026 391.568 611.876 391.114 611.848 390.588H613.169C613.195 390.903 613.297 391.166 613.476 391.376C613.658 391.584 613.889 391.739 614.17 391.841C614.455 391.94 614.766 391.99 615.104 391.99C615.476 391.99 615.807 391.932 616.097 391.815C616.389 391.696 616.619 391.531 616.787 391.321C616.955 391.108 617.038 390.859 617.038 390.575C617.038 390.317 616.964 390.105 616.817 389.94C616.672 389.776 616.474 389.639 616.224 389.531C615.977 389.423 615.697 389.328 615.385 389.246L614.354 388.964C613.655 388.774 613.101 388.494 612.692 388.125C612.286 387.756 612.082 387.267 612.082 386.659C612.082 386.156 612.219 385.717 612.491 385.342C612.764 384.967 613.134 384.676 613.599 384.469C614.065 384.259 614.591 384.153 615.176 384.153C615.767 384.153 616.288 384.257 616.74 384.464C617.195 384.672 617.553 384.957 617.814 385.321C618.075 385.682 618.212 386.097 618.223 386.565H616.953Z" fill="black" fill-opacity="0.7"/>
<path d="M317 289C339.091 289 357 271.091 357 249C357 246.26 356.725 243.585 356.2 241H347.992C348.65 243.557 349 246.238 349 249C349 266.673 334.673 281 317 281L316.926 281L316.895 281L277 281V289H317Z" fill="url(#paint1_linear_130_25)"/>
<path d="M285 249C285 251.762 285.35 254.443 286.008 257H277.8C277.275 254.415 277 251.74 277 249C277 226.909 294.909 209 317 209H357V217L317 217C299.327 217 285 231.327 285 249Z" fill="url(#paint2_linear_130_25)"/>
<path d="M325 249C325 253.418 321.418 257 317 257C312.582 257 309 253.418 309 249C309 244.582 312.582 241 317 241C321.418 241 325 244.582 325 249Z" fill="url(#paint3_linear_130_25)"/>
<path fill-rule="evenodd" clip-rule="evenodd" d="M317 273C330.255 273 341 262.255 341 249C341 242.853 338.689 237.246 334.889 233H357V225H317C303.745 225 293 235.745 293 249C293 255.147 295.311 260.754 299.111 265L277 265V273H316.873L317 273ZM317 265C325.837 265 333 257.837 333 249C333 240.188 325.876 233.039 317.073 233H317C308.163 233 301 240.163 301 249C301 257.812 308.124 264.96 316.927 265L317 265Z" fill="url(#paint4_linear_130_25)"/>
<circle cx="152" cy="309" r="46" fill="#F7F8F9" stroke="#00D6C8" stroke-width="4"/>
<circle cx="478" cy="309" r="46" fill="#F7F8F9" stroke="#00D6C8" stroke-width="4"/>
<circle cx="315" cy="80" r="46" fill="#F7F8F9" stroke="#4FC3F7" stroke-width="4"/>
<mask id="mask0_130_25" style="mask-type:alpha" maskUnits="userSpaceOnUse" x="279" y="44" width="72" height="72">
<rect x="279" y="44" width="72" height="72" fill="#D9D9D9"/>
</mask>
<g mask="url(#mask0_130_25)">
<path d="M311.25 96.5C308.4 96.5 305.688 96.0125 303.112 95.0375C300.537 94.0625 298.225 92.7 296.175 90.95C295.675 90.55 295.4 90.025 295.35 89.375C295.3 88.725 295.5 88.15 295.95 87.65C296.35 87.2 296.875 86.9875 297.525 87.0125C298.175 87.0375 298.75 87.25 299.25 87.65C300.85 89 302.688 90.0625 304.763 90.8375C306.837 91.6125 309 92 311.25 92C316.45 92 320.875 90.1625 324.525 86.4875C328.175 82.8125 330 78.4 330 73.25C330 68.05 328.175 63.625 324.525 59.975C320.875 56.325 316.45 54.5 311.25 54.5C306.65 54.5 302.625 55.9625 299.175 58.8875C295.725 61.8125 293.6 65.475 292.8 69.875C292.7 70.575 292.425 71.1875 291.975 71.7125C291.525 72.2375 290.95 72.5 290.25 72.5C289.55 72.5 289.025 72.2 288.675 71.6C288.325 71 288.2 70.325 288.3 69.575C289.15 64.025 291.725 59.375 296.025 55.625C300.325 51.875 305.4 50 311.25 50C317.7 50 323.188 52.2625 327.713 56.7875C332.237 61.3125 334.5 66.8 334.5 73.25C334.5 75.95 334.013 78.5875 333.038 81.1625C332.063 83.7375 330.775 86.025 329.175 88.025L343.425 102.275C343.875 102.725 344.1 103.25 344.1 103.85C344.1 104.45 343.875 104.975 343.425 105.425C342.975 105.875 342.45 106.1 341.85 106.1C341.25 106.1 340.725 105.875 340.275 105.425L326.025 91.175C324.025 92.775 321.737 94.0625 319.162 95.0375C316.587 96.0125 313.95 96.5 311.25 96.5ZM311.025 78.05L313.8 69.425C313.95 69.025 314.188 68.6875 314.513 68.4125C314.838 68.1375 315.225 68 315.675 68H317.475C317.875 68 318.225 68.1 318.525 68.3C318.825 68.5 319.075 68.775 319.275 69.125L323.25 77C323.9 77 324.438 77.2125 324.863 77.6375C325.288 78.0625 325.5 78.6 325.5 79.25C325.5 79.9 325.288 80.4375 324.863 80.8625C324.438 81.2875 323.9 81.5 323.25 81.5H321.9C321.5 81.5 321.113 81.3875 320.738 81.1625C320.363 80.9375 320.075 80.625 319.875 80.225L316.95 74.45L313.65 84.575C313.5 85.025 313.25 85.375 312.9 85.625C312.55 85.875 312.15 86 311.7 86H310.35C309.9 86 309.488 85.8625 309.113 85.5875C308.738 85.3125 308.475 84.95 308.325 84.5L304.05 70.4L300.675 80C300.525 80.45 300.263 80.8125 299.888 81.0875C299.513 81.3625 299.075 81.5 298.575 81.5H287.25C286.6 81.5 286.062 81.2875 285.638 80.8625C285.213 80.4375 285 79.9 285 79.25C285 78.6 285.213 78.0625 285.638 77.6375C286.062 77.2125 286.6 77 287.25 77H297L301.425 64.175C301.575 63.725 301.838 63.375 302.213 63.125C302.588 62.875 303 62.75 303.45 62.75H304.875C305.375 62.75 305.8 62.9 306.15 63.2C306.5 63.5 306.75 63.875 306.9 64.325L311.025 78.05Z" fill="#4FC3F7"/>
</g>
<mask id="mask1_130_25" style="mask-type:alpha" maskUnits="userSpaceOnUse" x="442" y="273" width="72" height="72">
<rect x="442" y="273" width="72" height="72" fill="#D9D9D9"/>
</mask>
<g mask="url(#mask1_130_25)">
<path d="M481.675 285L493 294H500.5C501.737 294 502.797 294.441 503.678 295.322C504.559 296.203 505 297.263 505 298.5V333H451V298.5C451 297.569 451.412 296.899 452.237 296.489C453.062 296.08 453.85 296.15 454.6 296.7L463 303L475.225 285.9C475.975 284.832 476.988 284.202 478.263 284.012C479.538 283.821 480.675 284.15 481.675 285ZM455.5 303V317.55L466.3 326.175L478.3 309.6L500.5 326.925V298.5H491.425L478.9 288.45L464.05 309.375L455.5 303Z" fill="#00D6C8"/>
</g>
<mask id="mask2_130_25" style="mask-type:alpha" maskUnits="userSpaceOnUse" x="116" y="273" width="72" height="72">
<rect x="116" y="273" width="72" height="72" fill="#D9D9D9"/>
</mask>
<g mask="url(#mask2_130_25)">
<path d="M149.45 313.65L149.6 315.9C149.637 316.211 149.757 316.464 149.959 316.658C150.161 316.853 150.41 316.95 150.704 316.95H153.133C153.428 316.95 153.678 316.853 153.885 316.658C154.091 316.464 154.213 316.211 154.25 315.9L154.4 313.65C155 313.55 155.562 313.339 156.085 313.015C156.609 312.693 157.072 312.329 157.475 311.925L159.725 312.675C159.975 312.775 160.225 312.775 160.475 312.675C160.725 312.575 160.92 312.404 161.06 312.161L162.215 310.189C162.355 309.946 162.413 309.7 162.388 309.45C162.363 309.2 162.233 308.971 161.998 308.762L160.475 307.575C160.725 306.875 160.85 306.15 160.85 305.4C160.85 304.65 160.725 303.925 160.475 303.225L161.998 302.038C162.233 301.829 162.363 301.6 162.388 301.35C162.413 301.1 162.355 300.854 162.215 300.611L161.06 298.639C160.92 298.396 160.725 298.225 160.475 298.125C160.225 298.025 159.975 298.025 159.725 298.125L157.475 298.875C157.059 298.49 156.579 298.144 156.037 297.836C155.496 297.529 154.95 297.3 154.4 297.15L154.25 294.9C154.213 294.589 154.094 294.336 153.892 294.142C153.689 293.947 153.441 293.85 153.146 293.85H150.717C150.422 293.85 150.172 293.947 149.966 294.142C149.76 294.336 149.638 294.589 149.6 294.9L149.45 297.15C148.9 297.3 148.354 297.529 147.813 297.836C147.271 298.144 146.792 298.49 146.375 298.875L144.125 298.125C143.875 298.025 143.625 298.025 143.375 298.125C143.125 298.225 142.93 298.396 142.79 298.639L141.635 300.611C141.495 300.854 141.438 301.1 141.463 301.35C141.488 301.6 141.617 301.829 141.852 302.038L143.375 303.225C143.125 303.925 143 304.65 143 305.4C143 306.15 143.125 306.875 143.375 307.575L141.852 308.762C141.617 308.971 141.488 309.2 141.463 309.45C141.438 309.7 141.495 309.946 141.635 310.189L142.79 312.161C142.93 312.404 143.125 312.575 143.375 312.675C143.625 312.775 143.875 312.775 144.125 312.675L146.375 311.925C146.778 312.329 147.241 312.693 147.765 313.015C148.288 313.339 148.85 313.55 149.45 313.65ZM151.934 310.65C150.478 310.65 149.238 310.14 148.213 309.121C147.188 308.102 146.675 306.865 146.675 305.409C146.675 303.953 147.185 302.712 148.204 301.688C149.223 300.663 150.46 300.15 151.916 300.15C153.372 300.15 154.613 300.66 155.638 301.679C156.663 302.698 157.175 303.935 157.175 305.391C157.175 306.847 156.666 308.088 155.647 309.113C154.628 310.138 153.39 310.65 151.934 310.65ZM134 326.1C131.15 323.5 128.938 320.463 127.363 316.988C125.788 313.513 125 309.85 125 306C125 298.5 127.625 292.125 132.875 286.875C138.125 281.625 144.5 279 152 279C158.25 279 163.788 280.837 168.613 284.512C173.438 288.188 176.575 292.975 178.025 298.875L182.15 315.225C182.35 315.925 182.225 316.562 181.775 317.138C181.325 317.713 180.725 318 179.975 318H173V328.5C173 329.737 172.56 330.797 171.679 331.678C170.797 332.559 169.738 333 168.5 333H161V336.75C161 337.388 160.783 337.922 160.349 338.353C159.916 338.784 159.378 339 158.737 339C158.096 339 157.562 338.784 157.138 338.353C156.713 337.922 156.5 337.388 156.5 336.75V330.75C156.5 330.112 156.716 329.578 157.147 329.146C157.578 328.715 158.113 328.5 158.75 328.5H168.5V315.75C168.5 315.112 168.716 314.578 169.147 314.146C169.578 313.715 170.113 313.5 170.75 313.5H177.05L173.675 300C172.475 295.15 169.85 291.188 165.8 288.113C161.75 285.038 157.15 283.5 152 283.5C145.75 283.5 140.438 285.663 136.063 289.988C131.688 294.313 129.5 299.588 129.5 305.815C129.5 309.036 130.158 312.096 131.474 314.995C132.791 317.894 134.658 320.471 137.075 322.725L138.5 324.075V336.75C138.5 337.388 138.283 337.922 137.849 338.353C137.416 338.784 136.878 339 136.237 339C135.596 339 135.063 338.784 134.638 338.353C134.213 337.922 134 337.388 134 336.75V326.1Z" fill="#00D6C8"/>
</g>
<defs>
<linearGradient id="paint0_linear_130_25" x1="317" y1="88" x2="317" y2="410" gradientUnits="userSpaceOnUse">
<stop offset="0.25" stop-color="#4FC3F7"/>
<stop offset="1" stop-color="#00D6C8"/>
</linearGradient>
<linearGradient id="paint1_linear_130_25" x1="317" y1="209" x2="317" y2="289" gradientUnits="userSpaceOnUse">
<stop offset="0.25" stop-color="#4FC3F7"/>
<stop offset="1" stop-color="#00D6C8"/>
</linearGradient>
<linearGradient id="paint2_linear_130_25" x1="317" y1="209" x2="317" y2="289" gradientUnits="userSpaceOnUse">
<stop offset="0.25" stop-color="#4FC3F7"/>
<stop offset="1" stop-color="#00D6C8"/>
</linearGradient>
<linearGradient id="paint3_linear_130_25" x1="317" y1="209" x2="317" y2="289" gradientUnits="userSpaceOnUse">
<stop offset="0.25" stop-color="#4FC3F7"/>
<stop offset="1" stop-color="#00D6C8"/>
</linearGradient>
<linearGradient id="paint4_linear_130_25" x1="317" y1="209" x2="317" y2="289" gradientUnits="userSpaceOnUse">
<stop offset="0.25" stop-color="#4FC3F7"/>
<stop offset="1" stop-color="#00D6C8"/>
</linearGradient>
</defs>
</svg>
