<svg width="512" height="512" viewBox="0 0 512 512" fill="none" xmlns="http://www.w3.org/2000/svg">
<path fill-rule="evenodd" clip-rule="evenodd" d="M131 269H93V427H131V269ZM92 268V428H132V268H92Z" fill="#607D8B"/>
<path fill-rule="evenodd" clip-rule="evenodd" d="M195 189H157V427H195V189ZM156 188V428H196V188H156Z" fill="#607D8B"/>
<path fill-rule="evenodd" clip-rule="evenodd" d="M259 229H221V427H259V229ZM220 228V428H260V228H220Z" fill="#607D8B"/>
<path d="M132 268L140 276V428H132V268Z" fill="#00D6C8"/>
<path fill-rule="evenodd" clip-rule="evenodd" d="M132 268V428H140V276L132 268ZM133 270.414V427H139V276.414L133 270.414Z" fill="#607D8B"/>
<path d="M196 188L204 196V428H196V188Z" fill="#00D6C8"/>
<path fill-rule="evenodd" clip-rule="evenodd" d="M196 188V428H204V196L196 188ZM197 190.414V427H203V196.414L197 190.414Z" fill="#607D8B"/>
<path d="M260 228L268 236V428H260V228Z" fill="#00D6C8"/>
<path fill-rule="evenodd" clip-rule="evenodd" d="M260 228V428H268V236L260 228ZM261 230.414V427H267V236.414L261 230.414Z" fill="#607D8B"/>
<path fill-rule="evenodd" clip-rule="evenodd" d="M184 291H164V290H184V291Z" fill="#607D8B"/>
<path fill-rule="evenodd" clip-rule="evenodd" d="M248 291H228V290H248V291Z" fill="#607D8B"/>
<path fill-rule="evenodd" clip-rule="evenodd" d="M184 314H164V313H184V314Z" fill="#607D8B"/>
<path fill-rule="evenodd" clip-rule="evenodd" d="M248 314H228V313H248V314Z" fill="#607D8B"/>
<path fill-rule="evenodd" clip-rule="evenodd" d="M184 337H164V336H184V337Z" fill="#607D8B"/>
<path fill-rule="evenodd" clip-rule="evenodd" d="M248 337H228V336H248V337Z" fill="#607D8B"/>
<path fill-rule="evenodd" clip-rule="evenodd" d="M184 360H164V359H184V360Z" fill="#607D8B"/>
<path fill-rule="evenodd" clip-rule="evenodd" d="M248 360H228V359H248V360Z" fill="#607D8B"/>
<path fill-rule="evenodd" clip-rule="evenodd" d="M184 383H164V382H184V383Z" fill="#607D8B"/>
<path fill-rule="evenodd" clip-rule="evenodd" d="M248 383H228V382H248V383Z" fill="#607D8B"/>
<path fill-rule="evenodd" clip-rule="evenodd" d="M120 291H100V290H120V291ZM120 314H100V313H120V314ZM120 337H100V336H120V337ZM120 360H100V359H120V360ZM120 383H100V382H120V383ZM120 406H100V405H120V406Z" fill="#607D8B"/>
<path fill-rule="evenodd" clip-rule="evenodd" d="M184 406H164V405H184V406Z" fill="#607D8B"/>
<path fill-rule="evenodd" clip-rule="evenodd" d="M248 406H228V405H248V406Z" fill="#607D8B"/>
<mask id="mask0_92_122" style="mask-type:alpha" maskUnits="userSpaceOnUse" x="82" y="200" width="60" height="60">
<rect x="82" y="200" width="60" height="60" fill="#4FC3F7"/>
</mask>
<g mask="url(#mask0_92_122)">
<path d="M93.6669 252.5C92.521 252.5 91.54 252.092 90.7238 251.276C89.9079 250.46 89.5 249.479 89.5 248.333V215.625C89.5 215.158 89.5798 214.717 89.7394 214.3C89.8994 213.883 90.139 213.492 90.4581 213.125L94 208.625C94.3042 208.25 94.6508 207.969 95.04 207.781C95.4288 207.594 95.8598 207.5 96.3331 207.5H127.708C128.182 207.5 128.613 207.594 129.002 207.781C129.391 207.969 129.737 208.25 130.042 208.625L133.583 213.125C133.847 213.5 134.066 213.895 134.239 214.309C134.413 214.723 134.5 215.161 134.5 215.625V248.333C134.5 249.479 134.092 250.46 133.276 251.276C132.46 252.092 131.479 252.5 130.333 252.5H93.6669ZM94.75 214.375H129.292L127.066 211.667H96.9581L94.75 214.375ZM93.6669 248.333H130.333V218.542H93.6669V248.333ZM121.333 233.458L117.271 237.521C116.882 237.919 116.688 238.401 116.688 238.966C116.688 239.53 116.882 240.007 117.271 240.396C117.66 240.785 118.137 240.979 118.701 240.979C119.266 240.979 119.747 240.785 120.146 240.396L125.625 234.917C126.042 234.5 126.25 234.014 126.25 233.458C126.25 232.903 126.042 232.417 125.625 232L120.146 226.521C119.747 226.132 119.266 225.938 118.701 225.938C118.137 225.938 117.66 226.132 117.271 226.521C116.882 226.91 116.688 227.387 116.688 227.951C116.688 228.516 116.882 228.997 117.271 229.396L121.333 233.458ZM102.708 233.625L106.771 229.562C107.16 229.164 107.354 228.682 107.354 228.118C107.354 227.553 107.16 227.076 106.771 226.688C106.382 226.299 105.905 226.104 105.341 226.104C104.776 226.104 104.294 226.299 103.896 226.688L98.4169 232.167C98.0002 232.584 97.7919 233.07 97.7919 233.625C97.7919 234.18 98.0002 234.666 98.4169 235.083L103.896 240.562C104.294 240.951 104.776 241.146 105.341 241.146C105.905 241.146 106.382 240.951 106.771 240.562C107.16 240.174 107.354 239.697 107.354 239.132C107.354 238.568 107.16 238.086 106.771 237.688L102.708 233.625Z" fill="#4FC3F7"/>
</g>
<mask id="mask1_92_122" style="mask-type:alpha" maskUnits="userSpaceOnUse" x="36" y="388" width="40" height="40">
<rect x="36" y="388" width="40" height="40" fill="#D9D9D9"/>
</mask>
<g mask="url(#mask1_92_122)">
<path d="M52.0279 412.167C51.7068 412.167 51.4414 412.061 51.2317 411.851C51.0217 411.641 50.9167 411.374 50.9167 411.052C50.9167 410.731 51.0217 410.465 51.2317 410.257C51.4414 410.049 51.7068 409.945 52.0279 409.945H59.9721C60.2932 409.945 60.5586 410.05 60.7683 410.26C60.9783 410.471 61.0833 410.737 61.0833 411.059C61.0833 411.381 60.9783 411.646 60.7683 411.854C60.5586 412.062 60.2932 412.167 59.9721 412.167H52.0279ZM50.3333 406.889C50.0122 406.889 49.7468 406.784 49.5371 406.573C49.3271 406.363 49.2221 406.096 49.2221 405.775C49.2221 405.453 49.3271 405.187 49.5371 404.979C49.7468 404.771 50.0122 404.667 50.3333 404.667H61.6667C61.9878 404.667 62.2532 404.772 62.4629 404.982C62.6729 405.193 62.7779 405.459 62.7779 405.781C62.7779 406.103 62.6729 406.368 62.4629 406.576C62.2532 406.785 61.9878 406.889 61.6667 406.889H50.3333ZM47.1112 426.333C46.3612 426.333 45.7107 426.058 45.1596 425.507C44.6087 424.956 44.3333 424.305 44.3333 423.555V392.445C44.3333 391.695 44.6087 391.044 45.1596 390.493C45.7107 389.942 46.3612 389.667 47.1112 389.667H64.8887C65.6387 389.667 66.2893 389.942 66.8404 390.493C67.3912 391.044 67.6667 391.695 67.6667 392.445V423.555C67.6667 424.305 67.3912 424.956 66.8404 425.507C66.2893 426.058 65.6387 426.333 64.8887 426.333H47.1112ZM47.1112 422.167V423.555H64.8887V422.167H47.1112ZM47.1112 419.389H64.8887V396.611H47.1112V419.389ZM47.1112 393.833H64.8887V392.445H47.1112V393.833Z" fill="#008078"/>
</g>
<mask id="mask2_92_122" style="mask-type:alpha" maskUnits="userSpaceOnUse" x="198" y="152" width="48" height="48">
<rect x="198" y="152" width="48" height="48" fill="#4FC3F7"/>
</mask>
<g mask="url(#mask2_92_122)">
<path d="M220.5 192.3V176.85L207 169.05V184.5L220.5 192.3ZM223.5 192.3L237 184.5V169L223.5 176.842V192.3ZM222 174.3L235.3 166.55L222 158.85L208.65 166.55L222 174.3ZM205.5 187.1C205.025 186.819 204.656 186.449 204.394 185.989C204.131 185.53 204 185.033 204 184.5V167.5C204 166.967 204.131 166.47 204.394 166.01C204.656 165.551 205.025 165.181 205.5 164.9L220.5 156.25C220.978 155.983 221.48 155.85 222.008 155.85C222.536 155.85 223.033 155.983 223.5 156.25L238.5 164.9C238.975 165.181 239.344 165.551 239.607 166.01C239.869 166.47 240 166.967 240 167.5V184.5C240 185.033 239.869 185.53 239.607 185.989C239.344 186.449 238.975 186.819 238.5 187.1L223.5 195.75C223.022 196.017 222.52 196.15 221.992 196.15C221.464 196.15 220.967 196.017 220.5 195.75L205.5 187.1Z" fill="#4FC3F7"/>
</g>
<mask id="mask3_92_122" style="mask-type:alpha" maskUnits="userSpaceOnUse" x="255" y="56" width="40" height="40">
<rect x="255" y="56" width="40" height="40" fill="#4FC3F7"/>
</mask>
<g mask="url(#mask3_92_122)">
<path d="M263.167 89.3333C262.296 89.3333 261.55 89.0233 260.93 88.4033C260.31 87.783 260 87.0375 260 86.1666C260 85.2958 260.31 84.5504 260.93 83.9304C261.55 83.3101 262.296 83 263.167 83H286.833C287.704 83 288.45 83.3101 289.07 83.9304C289.69 84.5504 290 85.2958 290 86.1666C290 87.0375 289.69 87.783 289.07 88.4033C288.45 89.0233 287.704 89.3333 286.833 89.3333H263.167ZM263.167 69C262.296 69 261.55 68.6898 260.93 68.0695C260.31 67.4495 260 66.7041 260 65.8333C260 64.9625 260.31 64.2169 260.93 63.5966C261.55 62.9766 262.296 62.6666 263.167 62.6666H286.833C287.704 62.6666 288.45 62.9766 289.07 63.5966C289.69 64.2169 290 64.9625 290 65.8333C290 66.7041 289.69 67.4495 289.07 68.0695C288.45 68.6898 287.704 69 286.833 69H263.167ZM263.167 79.1666C262.296 79.1666 261.55 78.8565 260.93 78.2362C260.31 77.6162 260 76.8708 260 76C260 75.1291 260.31 74.3837 260.93 73.7637C261.55 73.1434 262.296 72.8333 263.167 72.8333H286.833C287.704 72.8333 288.45 73.1434 289.07 73.7637C289.69 74.3837 290 75.1291 290 76C290 76.8708 289.69 77.6162 289.07 78.2362C288.45 78.8565 287.704 79.1666 286.833 79.1666H263.167ZM264.328 67.3887C264.767 67.3887 265.137 67.2402 265.438 66.9433C265.738 66.6463 265.889 66.2783 265.889 65.8391C265.889 65.4 265.74 65.03 265.443 64.7291C265.146 64.4283 264.778 64.2779 264.339 64.2779C263.9 64.2779 263.53 64.4263 263.229 64.7233C262.928 65.0202 262.778 65.3883 262.778 65.8275C262.778 66.2666 262.926 66.6366 263.223 66.9375C263.52 67.2383 263.888 67.3887 264.328 67.3887ZM264.328 77.5554C264.767 77.5554 265.137 77.4069 265.438 77.11C265.738 76.813 265.889 76.445 265.889 76.0058C265.889 75.5666 265.74 75.1966 265.443 74.8958C265.146 74.595 264.778 74.4445 264.339 74.4445C263.9 74.4445 263.53 74.593 263.229 74.89C262.928 75.1869 262.778 75.555 262.778 75.9941C262.778 76.4333 262.926 76.8033 263.223 77.1041C263.52 77.405 263.888 77.5554 264.328 77.5554ZM264.328 87.722C264.767 87.722 265.137 87.5736 265.438 87.2766C265.738 86.9797 265.889 86.6116 265.889 86.1725C265.889 85.7333 265.74 85.3633 265.443 85.0625C265.146 84.7616 264.778 84.6112 264.339 84.6112C263.9 84.6112 263.53 84.7597 263.229 85.0566C262.928 85.3536 262.778 85.7216 262.778 86.1608C262.778 86.6 262.926 86.97 263.223 87.2708C263.52 87.5716 263.888 87.722 264.328 87.722Z" fill="#2F7594"/>
</g>
<path d="M344 427.5V415C340.833 412.333 334.817 409.487 331 415C326.5 421.5 317.5 418.833 311.5 421.5C307.5 423.278 309.167 426.833 312.5 427.5H344Z" fill="#607D8B"/>
<path d="M360 427.655V415.155C363.167 412.489 369.183 409.642 373 415.155C377.5 421.655 386.5 418.989 392.5 421.655C396.5 423.433 394.833 426.989 391.5 427.655H360Z" fill="#607D8B"/>
<path d="M331 415L330.5 394.5L333.5 383L374.5 387V416.5H360V392.5H345L344 415H331Z" fill="#607D8B"/>
<path d="M159.5 170C158.7 141.6 183.5 124.833 195.5 120.5C182.167 118.333 154 126 152 170C150 214 185.167 222.167 202.5 221C190 219.5 160.5 205.5 159.5 170Z" fill="#00D6C8"/>
<path fill-rule="evenodd" clip-rule="evenodd" d="M169.812 128.328C160.99 135.365 153.494 148.133 152.499 170.023C151.507 191.864 159.729 204.736 170.284 212.026C179.138 218.141 189.678 220.359 197.915 220.584C191.688 218.893 183.566 215.089 176.354 208.622C167.201 200.416 159.505 187.917 159 170.014C158.596 155.653 164.667 144.241 172.332 135.887C179.243 128.354 187.468 123.287 193.469 120.759C186.956 120.237 177.814 121.945 169.812 128.328ZM169.188 127.547C178.267 120.305 188.788 118.903 195.58 120.006L197.483 120.316L195.67 120.97C189.741 123.111 180.611 128.342 173.068 136.563C165.533 144.776 159.604 155.947 160 169.986C160.496 187.583 168.049 199.834 177.021 207.878C186.009 215.936 196.414 219.766 202.56 220.503L202.534 221.499C193.789 222.087 180.542 220.326 169.716 212.849C158.855 205.348 150.493 192.136 151.501 169.977C152.506 147.867 160.093 134.801 169.188 127.547Z" fill="#607D8B"/>
<path fill-rule="evenodd" clip-rule="evenodd" d="M197.54 145.405C198.697 147.912 197.603 150.883 195.095 152.04C191.547 153.677 186.8 157.306 184.252 162.576C181.855 167.533 181.089 174.564 186.371 184.072C187.712 186.486 186.842 189.53 184.428 190.871C182.014 192.212 178.97 191.342 177.629 188.928C170.911 176.836 171.311 166.367 175.248 158.224C179.034 150.394 185.786 145.323 190.905 142.96C193.412 141.803 196.383 142.897 197.54 145.405Z" fill="#00D6C8"/>
<path fill-rule="evenodd" clip-rule="evenodd" d="M269 146.074L399.5 129.574C408.5 128.074 416.5 132.074 416.5 141.074C416.5 150.074 412.5 154.074 404 156.074L273.5 173.074C273.5 197.574 249 238.099 209 237.074C150.5 235.574 140 190.147 140 169.574C140 149 156 105.258 204.5 103.074C242.961 101.341 266 130.574 269 146.074ZM258 168.074C258 188.074 242.5 223.986 207 221.574C155.5 218.074 155.5 174.074 155.5 168.074C155.5 162.074 160.5 120.574 207 119.074C241 117.977 258 148.074 258 168.074Z" fill="white"/>
<path fill-rule="evenodd" clip-rule="evenodd" d="M269.397 145.519C267.709 137.655 261.163 126.635 250.366 117.726C239.341 108.629 223.848 101.702 204.478 102.574C180.058 103.674 163.8 115.245 153.659 129.133C143.532 143.001 139.5 159.184 139.5 169.574C139.5 179.927 142.139 196.539 152.154 210.764C162.187 225.016 179.588 236.82 208.987 237.574C229.174 238.091 245.434 228.12 256.631 214.97C267.686 201.986 273.854 185.849 273.997 173.513L404.09 156.566L404.115 156.56C408.411 155.55 411.654 154.015 413.815 151.526C415.983 149.03 417 145.646 417 141.074C417 136.404 414.913 132.992 411.638 130.961C408.387 128.945 404.01 128.317 399.427 129.079C399.424 129.079 399.421 129.08 399.418 129.08L269.397 145.519ZM249.73 118.497C238.87 109.536 223.613 102.713 204.523 103.573C180.442 104.658 164.45 116.05 154.466 129.723C144.468 143.415 140.5 159.39 140.5 169.574C140.5 179.794 143.111 196.182 152.971 210.188C162.813 224.168 179.912 235.828 209.013 236.574C228.826 237.082 244.816 227.303 255.869 214.322C266.932 201.329 273 185.183 273 173.074V172.635L403.91 155.581C408.101 154.592 411.1 153.128 413.06 150.871C415.017 148.618 416 145.501 416 141.074C416 136.743 414.087 133.656 411.112 131.811C408.115 129.953 403.996 129.331 399.582 130.067L399.572 130.068L268.598 146.628L268.509 146.169C267.036 138.559 260.606 127.472 249.73 118.497ZM245.629 135.336C254.204 145.311 258.5 157.949 258.5 168.074C258.5 178.178 254.592 192.262 246.214 203.527C237.822 214.81 224.919 223.293 206.966 222.072C181.043 220.311 168.014 208.335 161.495 195.995C155 183.698 155 171.097 155 168.077V168.074C155 165.004 156.265 153.031 163.388 141.621C170.532 130.178 183.555 119.33 206.984 118.574C224.152 118.02 237.042 125.348 245.629 135.336ZM244.871 135.988C236.458 126.203 223.848 119.03 207.016 119.573C183.945 120.318 171.218 130.969 164.237 142.151C157.235 153.366 156 165.143 156 168.074C156 171.06 156.003 183.454 162.38 195.528C168.736 207.562 181.457 219.336 207.034 221.075C224.581 222.267 237.178 214 245.411 202.93C253.658 191.842 257.5 177.969 257.5 168.074C257.5 158.198 253.296 145.788 244.871 135.988Z" fill="#607D8B"/>
<path d="M290.5 168.5C282.9 166.1 284.333 150.833 286 143.5C294.8 143.5 302.167 153 305.5 159C303.167 162.333 298.1 170.9 290.5 168.5Z" fill="white"/>
<path fill-rule="evenodd" clip-rule="evenodd" d="M285.601 143H286C290.582 143 294.74 145.47 298.141 148.634C301.548 151.804 304.253 155.725 305.937 158.757L306.089 159.031L305.91 159.287C305.736 159.535 305.545 159.816 305.336 160.122C304.174 161.83 302.483 164.315 300.31 166.272C297.734 168.591 294.387 170.252 290.349 168.977C288.283 168.324 286.856 166.799 285.906 164.83C284.96 162.868 284.471 160.437 284.276 157.888C283.888 152.789 284.672 147.086 285.512 143.389L285.601 143ZM286.4 144.007C285.608 147.645 284.909 153.021 285.274 157.812C285.463 160.297 285.936 162.59 286.807 164.395C287.673 166.192 288.917 167.476 290.651 168.023C294.213 169.148 297.2 167.726 299.64 165.528C301.715 163.661 303.327 161.294 304.494 159.581C304.64 159.367 304.779 159.163 304.911 158.972C303.254 156.044 300.669 152.353 297.459 149.366C294.248 146.378 290.466 144.145 286.4 144.007Z" fill="#607D8B"/>
<path d="M304 266C301.2 240.4 308.167 226.667 312 223C327.5 204.167 363.9 177 385.5 219C407.1 261 397.167 354.167 389.5 395.5L321.5 399.5C316.833 365.667 306.8 291.6 304 266Z" fill="white"/>
<path fill-rule="evenodd" clip-rule="evenodd" d="M367.291 198.803C374.113 201.928 380.509 208.202 385.945 218.771C396.807 239.893 399.717 273.799 398.975 307.511C398.233 341.251 393.829 374.903 389.992 395.591L389.92 395.976L321.068 400.026L321.005 399.568C316.338 365.738 306.304 291.663 303.503 266.054C302.097 253.2 303.141 243.305 305.029 236.147C306.907 229.031 309.628 224.591 311.633 222.66C319.413 213.213 332.458 201.639 346.326 197.706C353.281 195.734 360.467 195.677 367.291 198.803ZM346.599 198.668C333.003 202.524 320.108 213.935 312.386 223.318L312.367 223.341L312.346 223.361C310.519 225.108 307.853 229.362 305.996 236.402C304.142 243.428 303.103 253.2 304.497 265.946C307.284 291.422 317.238 364.932 321.932 398.974L389.08 395.024C392.892 374.348 397.239 340.958 397.975 307.489C398.717 273.784 395.793 240.107 385.055 219.229C379.691 208.798 373.437 202.718 366.875 199.712C360.315 196.708 353.382 196.745 346.599 198.668Z" fill="#607D8B"/>
<path d="M305 241C302.6 244.6 299 242.5 297.5 241C296 239.5 294 237.5 294 234.5C294 226.9 304 219 309 216L312 223C310.667 227.5 307.4 237.4 305 241Z" fill="white"/>
<path d="M363 138C362.6 134.4 357.833 134 356.5 134.5C355.5 132.5 357.136 130.932 360 129.5C364 127.5 370 126.5 374.5 130C376.966 131.918 377.667 138.5 377.5 141.5C375.333 142.333 370.5 144.1 368.5 144.5C366 145 363.5 142.5 363 138Z" fill="white"/>
<path fill-rule="evenodd" clip-rule="evenodd" d="M359.776 129.053C363.854 127.014 370.086 125.934 374.807 129.605C375.517 130.157 376.065 131.014 376.49 131.983C376.919 132.959 377.241 134.092 377.477 135.244C377.948 137.545 378.085 139.983 377.999 141.528L377.981 141.851L377.679 141.967C375.526 142.795 370.649 144.58 368.598 144.99C367.136 145.283 365.716 144.683 364.626 143.457C363.541 142.236 362.761 140.38 362.503 138.055C362.332 136.519 361.243 135.637 359.936 135.185C359.285 134.959 358.601 134.851 358.004 134.829C357.394 134.807 356.921 134.876 356.676 134.968L356.254 135.126L356.053 134.724C355.765 134.148 355.654 133.576 355.726 133.013C355.798 132.453 356.045 131.943 356.407 131.479C357.121 130.567 358.33 129.776 359.776 129.053ZM374.193 130.395C369.914 127.067 364.146 127.986 360.224 129.947C358.806 130.656 357.766 131.365 357.195 132.095C356.916 132.452 356.762 132.798 356.718 133.14C356.688 133.376 356.708 133.63 356.795 133.906C357.157 133.839 357.587 133.813 358.04 133.83C358.724 133.855 359.507 133.978 360.264 134.24C361.774 134.763 363.268 135.881 363.497 137.945C363.739 140.12 364.459 141.764 365.374 142.793C366.284 143.817 367.364 144.217 368.402 144.01C370.264 143.637 374.72 142.025 377.015 141.15C377.062 139.685 376.92 137.507 376.497 135.444C376.271 134.336 375.966 133.276 375.575 132.385C375.18 131.487 374.716 130.802 374.193 130.395ZM309.234 215.277L312.531 222.969L312.479 223.142C311.81 225.4 310.657 229.011 309.369 232.51C308.088 235.992 306.653 239.421 305.416 241.277C304.77 242.246 304.021 242.863 303.216 243.192C302.412 243.522 301.589 243.549 300.82 243.404C299.299 243.116 297.938 242.146 297.146 241.354L297.11 241.317C295.63 239.837 293.5 237.708 293.5 234.5C293.5 230.498 296.118 226.501 299.262 223.181C302.424 219.842 306.212 217.09 308.743 215.571L309.234 215.277ZM299.988 223.869C296.882 227.149 294.5 230.902 294.5 234.5C294.5 237.266 296.335 239.128 297.854 240.646C298.562 241.354 299.751 242.184 301.005 242.421C301.623 242.538 302.244 242.51 302.837 242.267C303.429 242.025 304.03 241.554 304.584 240.723C305.747 238.979 307.145 235.658 308.431 232.165C309.677 228.777 310.798 225.281 311.469 223.031L308.768 216.728C306.315 218.258 302.878 220.817 299.988 223.869Z" fill="#607D8B"/>
<path d="M291.5 201.5L312.5 181L347.5 169.5H379C386.2 169.5 386 163.167 385 160L379 142.5C371 135.3 368.333 140.833 368 144.5L373 160H347.5L307.5 166C294.833 175 270 194.7 272 201.5C274 208.3 292.5 219.333 301.5 224L310.5 216L291.5 201.5Z" fill="#00D6C8"/>
<path fill-rule="evenodd" clip-rule="evenodd" d="M368.508 144.445L373.687 160.5H347.537L307.692 166.477C301.371 170.974 292.071 178.098 284.588 184.944C280.825 188.387 277.538 191.744 275.319 194.653C274.21 196.108 273.381 197.433 272.892 198.587C272.398 199.75 272.277 200.671 272.48 201.359C272.94 202.924 274.386 204.812 276.533 206.867C278.664 208.906 281.422 211.052 284.411 213.14C290.255 217.222 296.937 221.054 301.425 223.397L309.714 216.029L290.737 201.546L312.234 180.561L347.42 169H379C380.727 169 381.963 168.621 382.841 168.043C383.716 167.468 384.274 166.67 384.606 165.766C385.277 163.933 385.006 161.684 384.525 160.156L378.569 142.785C374.653 139.292 372.259 139.095 370.866 139.863C370.137 140.265 369.584 140.974 369.189 141.836C368.811 142.663 368.594 143.598 368.508 144.445ZM370.384 138.987C372.397 137.878 375.308 138.504 379.334 142.128L379.431 142.215L385.477 159.849C385.994 161.488 386.322 163.986 385.545 166.109C385.151 167.184 384.471 168.168 383.39 168.879C382.312 169.588 380.873 170 379 170H347.58L312.766 181.439L292.263 201.454L311.286 215.971L301.575 224.602L301.27 224.444C296.756 222.103 289.861 218.167 283.839 213.96C280.828 211.857 278.024 209.678 275.842 207.589C273.677 205.517 272.06 203.475 271.52 201.641C271.223 200.629 271.44 199.447 271.971 198.196C272.507 196.935 273.389 195.535 274.524 194.047C276.796 191.068 280.134 187.663 283.913 184.206C291.474 177.288 300.867 170.1 307.21 165.592L307.308 165.523L347.463 159.5H372.313L367.493 144.556L367.502 144.455C367.589 143.494 367.83 142.404 368.28 141.42C368.729 140.438 369.405 139.527 370.384 138.987Z" fill="#607D8B"/>
<path d="M308.5 224.5L310.5 165.5L338 156C370.8 183.2 385.333 206.333 388.5 214.5C363.3 234.1 324.667 229.333 308.5 224.5Z" fill="#00D6C8"/>
<path fill-rule="evenodd" clip-rule="evenodd" d="M338.103 155.436L338.319 155.615C371.157 182.846 385.758 206.045 388.966 214.319L389.101 214.666L388.807 214.895C376.095 224.782 360.021 228.505 345.135 229.162C330.245 229.819 316.489 227.41 308.357 224.979L307.987 224.869L310.012 165.14L338.103 155.436ZM310.988 165.86L309.013 224.13C317.092 226.495 330.546 228.805 345.09 228.163C359.745 227.517 375.455 223.877 387.896 214.334C384.509 205.996 370.051 183.276 337.897 156.564L310.988 165.86Z" fill="#607D8B"/>
<path d="M302 130.5C293.99 130.5 286.667 137.667 284 141.5C290 145.5 312 184 327 182.5C339 181.3 346.667 164.667 349 156.5C339 159 319 130.5 302 130.5Z" fill="#607D8B"/>
<mask id="mask4_92_122" style="mask-type:alpha" maskUnits="userSpaceOnUse" x="54" y="48" width="80" height="80">
<rect x="54" y="48" width="80" height="80" fill="#4FC3F7"/>
</mask>
<g mask="url(#mask4_92_122)">
<path d="M75.1667 114.667C70.2223 114.667 66.0139 112.944 62.5417 109.5C59.0695 106.056 57.3334 101.861 57.3334 96.9167C57.3334 92.5833 58.6945 88.7592 61.4167 85.4442C64.1389 82.1297 67.6298 80.0928 71.8892 79.3333C73.0925 74.0372 75.7592 69.7225 79.8892 66.3892C84.0187 63.0558 88.7592 61.3892 94.1109 61.3892C100.426 61.3892 105.764 63.653 110.125 68.1808C114.486 72.7086 116.667 78.1669 116.667 84.5558V85.8892C120.611 85.9631 123.931 87.375 126.625 90.125C129.319 92.875 130.667 96.2592 130.667 100.277C130.667 104.222 129.255 107.606 126.431 110.431C123.606 113.255 120.222 114.667 116.278 114.667H75.1667ZM75.1667 109.111H116.278C118.722 109.111 120.805 108.25 122.528 106.527C124.25 104.805 125.111 102.722 125.111 100.277C125.111 97.8331 124.25 95.7497 122.528 94.0275C120.805 92.3053 118.722 91.4442 116.278 91.4442H111.111V84.5558C111.111 79.6481 109.44 75.4858 106.098 72.0692C102.755 68.6525 98.6853 66.9442 93.8892 66.9442C89.0925 66.9442 85.0137 68.6525 81.6525 72.0692C78.2914 75.4858 76.6109 79.6481 76.6109 84.5558H75C71.6295 84.5558 68.7684 85.7408 66.4167 88.1108C64.065 90.4814 62.8892 93.3889 62.8892 96.8333C62.8892 100.241 64.0837 103.139 66.4725 105.527C68.8614 107.916 71.7595 109.111 75.1667 109.111Z" fill="#00D6C8"/>
</g>
</svg>
