<svg width="179" height="22" viewBox="0 0 179 22" fill="none" xmlns="http://www.w3.org/2000/svg">
<path d="M171.513 22C170.595 22 169.702 21.9414 168.833 21.8243C167.974 21.7072 167.164 21.5314 166.403 21.2972V17.8708C167.174 18.1051 167.989 18.2857 168.848 18.4126C169.707 18.5297 170.576 18.5883 171.454 18.5883C172.509 18.5883 173.251 18.4516 173.68 18.1783C174.119 17.8952 174.339 17.5048 174.339 17.0069C174.339 16.6067 174.232 16.3041 174.017 16.0991C173.802 15.8941 173.426 15.7379 172.889 15.6305L170.283 15.162C168.78 14.8789 167.686 14.3566 167.003 13.5952C166.32 12.8338 165.978 11.8137 165.978 10.5349C165.978 9.00237 166.593 7.76752 167.823 6.8304C169.063 5.89328 170.961 5.42473 173.519 5.42473C174.3 5.42473 175.056 5.46865 175.789 5.55651C176.531 5.64436 177.199 5.76638 177.795 5.92257V9.34891C177.17 9.1732 176.506 9.04142 175.803 8.95356C175.1 8.86571 174.383 8.82178 173.651 8.82178C172.762 8.82178 172.079 8.89987 171.601 9.05606C171.123 9.20248 170.786 9.39771 170.591 9.64176C170.405 9.8858 170.312 10.1494 170.312 10.4325C170.312 10.7741 170.42 11.0523 170.634 11.2671C170.849 11.4818 171.22 11.6478 171.747 11.7649L174.354 12.2335C175.779 12.497 176.853 12.9851 177.575 13.6977C178.307 14.4006 178.673 15.4499 178.673 16.8459C178.673 18.437 178.048 19.6963 176.799 20.6236C175.559 21.5412 173.797 22 171.513 22Z" fill="white"/>
<path d="M154.638 21.9707C153.457 21.9707 152.364 21.7023 151.358 21.1654C150.362 20.6285 149.562 19.7743 148.957 18.6029C148.361 17.4315 148.064 15.9038 148.064 14.0198C148.064 12.1554 148.395 10.5838 149.059 9.30498C149.723 8.0262 150.699 7.0598 151.988 6.40577C153.286 5.74197 154.892 5.41008 156.805 5.41008C157.127 5.41008 157.444 5.42472 157.757 5.454C158.079 5.47353 158.377 5.49793 158.65 5.52722V0H163.321V21.6925H159.397L159.119 20.0086H158.899C158.44 20.5943 157.85 21.0678 157.127 21.4289C156.415 21.7901 155.585 21.9707 154.638 21.9707ZM156.014 18.1637C156.493 18.1637 156.966 18.0758 157.435 17.9001C157.913 17.7244 158.318 17.4511 158.65 17.0801V9.14391C158.396 9.08534 158.103 9.04141 157.771 9.01213C157.44 8.97308 157.113 8.95356 156.79 8.95356C155.453 8.95356 154.448 9.31474 153.774 10.0371C153.101 10.7497 152.764 11.9553 152.764 13.6538C152.764 14.8154 152.9 15.7233 153.174 16.3773C153.447 17.0313 153.823 17.495 154.301 17.7683C154.789 18.0319 155.36 18.1637 156.014 18.1637Z" fill="white"/>
<path d="M130.893 21.6925V5.67365H134.744L135.051 7.29896H135.271C135.866 6.69374 136.564 6.23006 137.365 5.90793C138.165 5.58579 139.034 5.42473 139.971 5.42473C141.025 5.42473 141.963 5.6346 142.783 6.05435C143.612 6.46434 144.261 7.13301 144.73 8.06037C145.199 8.97796 145.433 10.1933 145.433 11.7063V21.6925H140.762V11.9992C140.762 11.0328 140.562 10.3641 140.162 9.99318C139.761 9.62223 139.21 9.43676 138.507 9.43676C138.156 9.43676 137.799 9.48557 137.438 9.58319C137.087 9.67104 136.745 9.81258 136.413 10.0078C136.091 10.2031 135.803 10.4471 135.549 10.7399V21.6925H130.893Z" fill="white"/>
<path d="M122.742 21.6925V5.67364H127.413V21.6925H122.742Z" fill="white"/>
<path d="M122.742 3.59012V0H127.413V3.59012H122.742Z" fill="white"/>
<path d="M97.6919 21.6926V0.0217137H103.476L108.717 13.2574H108.146L113.211 0.0217137H118.995V21.6926H114.558V4.18017H115.495L110.298 17.4745H106.388L100.986 4.18017H102.129V21.6926H97.6919Z" fill="white"/>
<path d="M89.2779 21.6925V5.67364H93.9488V21.6925H89.2779Z" fill="white"/>
<path d="M89.2779 3.59012V0H93.9488V3.59012H89.2779Z" fill="white"/>
<path d="M83.9397 21.9854C82.0069 21.9854 80.5182 21.5071 79.4737 20.5505C78.439 19.5841 77.9216 18.0564 77.9216 15.9674V1.10634H82.5779V15.2352C82.5779 16.3383 82.7829 17.0997 83.1929 17.5195C83.6127 17.9392 84.2862 18.1491 85.2136 18.1491C85.4674 18.1491 85.7261 18.1344 85.9896 18.1052C86.2629 18.0661 86.5656 18.0173 86.8975 17.9587V21.6486C86.4777 21.7365 86.0043 21.8146 85.4771 21.8829C84.9598 21.9513 84.4473 21.9854 83.9397 21.9854ZM75.3153 9.34897V5.67371H86.795V9.34897H75.3153Z" fill="white"/>
<path d="M64.4542 21.6925V5.67362H68.2758L68.6273 7.73821H68.8615C69.3106 6.94752 69.906 6.37158 70.6479 6.0104C71.3898 5.63946 72.2049 5.45399 73.0932 5.45399C73.3373 5.45399 73.5715 5.46375 73.7961 5.48327C74.0206 5.5028 74.2207 5.53208 74.3964 5.57113V9.78816C74.1524 9.73935 73.8888 9.71006 73.6057 9.7003C73.3324 9.68078 73.0688 9.67102 72.815 9.67102C72.3562 9.67102 71.8925 9.72959 71.424 9.84673C70.9554 9.9541 70.521 10.1249 70.1208 10.3592C69.7206 10.5837 69.3838 10.8619 69.1105 11.1938V21.6925H64.4542Z" fill="white"/>
<path d="M53.9098 22C52.3089 22 50.9228 21.6974 49.7514 21.0922C48.5897 20.4772 47.6917 19.5596 47.0572 18.3394C46.4227 17.1094 46.1054 15.572 46.1054 13.727C46.1054 11.8625 46.4129 10.3153 47.0279 9.08534C47.6526 7.85538 48.5458 6.93778 49.7074 6.33256C50.8788 5.72734 52.2796 5.42473 53.9098 5.42473C55.54 5.42473 56.9359 5.73222 58.0976 6.3472C59.269 6.95242 60.1622 7.87002 60.7771 9.09999C61.4019 10.3202 61.7143 11.8528 61.7143 13.6977C61.7143 15.5524 61.397 17.0948 60.7625 18.3247C60.128 19.5547 59.225 20.4772 58.0536 21.0922C56.892 21.6974 55.5107 22 53.9098 22ZM53.9098 18.4565C54.5639 18.4565 55.1203 18.315 55.5791 18.0319C56.0476 17.7488 56.4039 17.2656 56.648 16.5823C56.892 15.8892 57.014 14.9423 57.014 13.7416C57.014 12.5117 56.892 11.5502 56.648 10.8571C56.4039 10.164 56.0476 9.67592 55.5791 9.39283C55.1203 9.09999 54.5639 8.95356 53.9098 8.95356C53.2558 8.95356 52.6945 9.0951 52.226 9.37819C51.7672 9.66128 51.4157 10.1494 51.1717 10.8424C50.9277 11.5258 50.8056 12.4726 50.8056 13.6831C50.8056 14.913 50.9277 15.8746 51.1717 16.5676C51.4157 17.2607 51.7672 17.7488 52.226 18.0319C52.6945 18.315 53.2558 18.4565 53.9098 18.4565Z" fill="white"/>
<path d="M30.3696 21.6926V0.0217137H45.5392V3.90197H35.1284V21.6926H30.3696ZM33.4006 13.0535V9.17326H44.0456V13.0535H33.4006Z" fill="white"/>
<path d="M10.8463 21.6925C16.8365 21.6925 21.6925 16.8365 21.6925 10.8463C21.6925 10.1034 21.6179 9.37794 21.4756 8.67704H19.2499C19.4284 9.37038 19.5233 10.0973 19.5233 10.8463C19.5233 15.6385 15.6385 19.5233 10.8463 19.5233L10.8262 19.5233L10.8179 19.5233L0 19.5233V21.6925H10.8463Z" fill="white"/>
<path d="M2.16928 10.8463C2.16928 11.5953 2.26418 12.3222 2.44263 13.0155H0.21696C0.0746864 12.3146 0 11.5892 0 10.8463C0 4.85604 4.85604 0 10.8463 0H21.6925V2.16925L10.8463 2.16928C6.05412 2.16929 2.16928 6.05412 2.16928 10.8463Z" fill="white"/>
<path d="M13.0155 10.8463C13.0155 12.0443 12.0443 13.0155 10.8462 13.0155C9.6482 13.0155 8.677 12.0443 8.677 10.8463C8.677 9.6482 9.6482 8.677 10.8462 8.677C12.0443 8.677 13.0155 9.6482 13.0155 10.8463Z" fill="white"/>
<path fill-rule="evenodd" clip-rule="evenodd" d="M10.8463 17.3541C14.4405 17.3541 17.3541 14.4405 17.3541 10.8463C17.3541 9.17956 16.7275 7.65915 15.697 6.50781H21.6925V4.33855H10.8463C7.2522 4.33858 4.33855 7.25219 4.33855 10.8463C4.33855 12.513 4.96512 14.0334 5.99555 15.1847L0 15.1847V17.354H10.8119L10.8463 17.3541ZM10.8463 15.1848C13.2424 15.1848 15.1848 13.2424 15.1848 10.8463C15.1848 8.45678 13.2531 6.51847 10.8661 6.50781H10.8463C8.45018 6.50781 6.50776 8.45018 6.50776 10.8463C6.50776 13.2357 8.43946 15.174 10.8264 15.1847L10.8463 15.1848Z" fill="white"/>
</svg>
