<svg width="353" height="32" viewBox="0 0 353 32" fill="none" xmlns="http://www.w3.org/2000/svg">
<path d="M342.481 31.9386C340.324 31.9386 338.632 31.3858 337.403 30.2803C336.188 29.1747 335.581 27.6665 335.581 25.7556C335.581 23.7765 336.25 22.2274 337.587 21.1082C338.925 19.9889 341.068 19.2997 344.016 19.0403L349.605 18.4875L350.035 21.0877L344.385 21.6609C342.774 21.8247 341.614 22.2137 340.904 22.8279C340.208 23.4285 339.86 24.2747 339.86 25.3666C339.86 26.4722 340.181 27.3253 340.822 27.9258C341.477 28.5127 342.433 28.8062 343.689 28.8062C344.562 28.8062 345.436 28.6287 346.309 28.2739C347.183 27.919 347.968 27.3253 348.664 26.4927V17.1568C348.664 15.9011 348.466 14.9252 348.07 14.2291C347.674 13.533 347.067 13.0416 346.248 12.755C345.429 12.4683 344.385 12.325 343.115 12.325C342.269 12.325 341.314 12.4001 340.249 12.5502C339.184 12.7004 338.133 12.9461 337.096 13.2873V9.92964C338.092 9.60206 339.191 9.35638 340.392 9.1926C341.593 9.02881 342.719 8.94691 343.77 8.94691C345.804 8.94691 347.49 9.21307 348.827 9.74538C350.179 10.264 351.182 11.1376 351.837 12.366C352.506 13.5944 352.84 15.2732 352.84 17.4025V31.5701H349.298L348.991 29.1747H348.745C348.036 30.0892 347.128 30.7785 346.023 31.2425C344.931 31.7066 343.75 31.9386 342.481 31.9386Z" fill="black"/>
<path d="M330.005 31.9591C327.603 31.9591 325.74 31.3517 324.416 30.1369C323.106 28.9085 322.45 26.9636 322.45 24.302V9.29496L323.187 1.26936H326.729V23.6059C326.729 25.3666 327.084 26.6019 327.794 27.3116C328.504 28.0077 329.582 28.3558 331.029 28.3558C331.438 28.3558 331.848 28.3285 332.257 28.2739C332.667 28.2193 333.124 28.1374 333.629 28.0282V31.5496C333.069 31.6725 332.476 31.768 331.848 31.8362C331.234 31.9181 330.619 31.9591 330.005 31.9591ZM318.438 12.755V9.29496H333.363V12.755H318.438Z" fill="black"/>
<path d="M308.241 31.9796C307.08 31.9796 305.961 31.8977 304.883 31.7339C303.805 31.5837 302.767 31.3585 301.771 31.0583V27.762C302.863 28.076 303.934 28.3148 304.985 28.4786C306.05 28.6287 307.128 28.7038 308.22 28.7038C310.008 28.7038 311.291 28.4172 312.069 27.8439C312.861 27.2707 313.257 26.4654 313.257 25.4281C313.257 24.5545 313.031 23.8925 312.581 23.4421C312.131 22.9781 311.359 22.63 310.268 22.398L307.074 21.7633C305.013 21.3402 303.532 20.6236 302.631 19.6136C301.744 18.5899 301.3 17.2523 301.3 15.6008C301.3 13.649 302.064 12.0521 303.593 10.81C305.136 9.56794 307.49 8.94691 310.657 8.94691C311.639 8.94691 312.595 9.00833 313.523 9.13117C314.451 9.24037 315.318 9.40416 316.123 9.62254V12.9188C315.236 12.6731 314.355 12.4956 313.482 12.3865C312.608 12.2773 311.701 12.2227 310.759 12.2227C309.394 12.2227 308.316 12.3728 307.524 12.6731C306.746 12.9597 306.186 13.3487 305.845 13.8401C305.518 14.3314 305.354 14.8842 305.354 15.4984C305.354 16.2491 305.565 16.8701 305.989 17.3615C306.425 17.8529 307.183 18.2214 308.261 18.4671L311.455 19.0813C313.489 19.4907 314.97 20.1868 315.898 21.1696C316.84 22.1387 317.31 23.4967 317.31 25.2438C317.31 27.3184 316.532 28.9631 314.976 30.1779C313.434 31.379 311.189 31.9796 308.241 31.9796Z" fill="black"/>
<path d="M292.677 31.5701V9.29495H296.956V31.5701H292.677ZM294.827 4.95458C293.898 4.95458 293.196 4.7362 292.718 4.29943C292.24 3.86266 292.001 3.26211 292.001 2.49776C292.001 1.70612 292.24 1.09192 292.718 0.65515C293.196 0.218383 293.898 0 294.827 0C295.768 0 296.471 0.218383 296.935 0.65515C297.413 1.09192 297.652 1.70612 297.652 2.49776C297.652 3.26211 297.413 3.86266 296.935 4.29943C296.471 4.7362 295.768 4.95458 294.827 4.95458Z" fill="black"/>
<path d="M273.01 31.5701L262.528 1.26936H267.093L276.777 29.6865H275.815L285.56 1.26936H289.839L279.357 31.5701H273.01Z" fill="black"/>
<path d="M239.814 32C238.531 32 237.282 31.9181 236.067 31.7543C234.866 31.5905 233.733 31.3448 232.669 31.0173V26.2265C233.747 26.5541 234.886 26.8066 236.088 26.984C237.289 27.1478 238.503 27.2297 239.732 27.2297C241.206 27.2297 242.243 27.0386 242.844 26.6564C243.458 26.2606 243.765 25.7146 243.765 25.0185C243.765 24.4589 243.615 24.0358 243.315 23.7492C243.014 23.4626 242.489 23.2442 241.738 23.094L238.094 22.4389C235.992 22.0431 234.463 21.3129 233.508 20.2482C232.553 19.1836 232.075 17.7573 232.075 15.9693C232.075 13.8264 232.935 12.0998 234.654 10.7895C236.388 9.47918 239.043 8.82403 242.619 8.82403C243.711 8.82403 244.768 8.88546 245.792 9.0083C246.829 9.13114 247.764 9.30175 248.597 9.52013V14.3109C247.723 14.0652 246.795 13.881 245.813 13.7581C244.83 13.6353 243.827 13.5739 242.803 13.5739C241.561 13.5739 240.605 13.6831 239.937 13.9015C239.268 14.1062 238.797 14.3792 238.524 14.7204C238.265 15.0616 238.135 15.4301 238.135 15.826C238.135 16.3037 238.285 16.6927 238.585 16.9929C238.886 17.2932 239.404 17.5253 240.141 17.689L243.786 18.3442C245.778 18.7127 247.28 19.3952 248.29 20.3915C249.313 21.3743 249.825 22.8415 249.825 24.7933C249.825 27.0181 248.952 28.7788 247.205 30.0755C245.471 31.3585 243.008 32 239.814 32Z" fill="black"/>
<path d="M216.219 31.959C214.567 31.959 213.039 31.5837 211.633 30.833C210.24 30.0823 209.121 28.888 208.275 27.2502C207.442 25.6123 207.026 23.4762 207.026 20.842C207.026 18.235 207.49 16.0375 208.418 14.2495C209.346 12.4615 210.711 11.1102 212.513 10.1957C214.328 9.26762 216.574 8.80355 219.249 8.80355C219.699 8.80355 220.143 8.82403 220.58 8.86497C221.03 8.89227 221.446 8.9264 221.828 8.96734V1.23905H228.359V31.5701H222.873L222.484 29.2156H222.176C221.535 30.0345 220.709 30.6965 219.699 31.2015C218.703 31.7065 217.543 31.959 216.219 31.959ZM218.143 26.6359C218.812 26.6359 219.474 26.5131 220.129 26.2674C220.798 26.0217 221.364 25.6396 221.828 25.1209V14.0243C221.474 13.9424 221.064 13.881 220.6 13.84C220.136 13.7854 219.679 13.7581 219.228 13.7581C217.358 13.7581 215.953 14.2631 215.011 15.2732C214.069 16.2695 213.598 17.9552 213.598 20.3301C213.598 21.9543 213.789 23.2237 214.171 24.1382C214.554 25.0527 215.079 25.701 215.748 26.0832C216.43 26.4517 217.229 26.6359 218.143 26.6359Z" fill="black"/>
<path d="M183.018 31.5701V9.17208H188.402L188.832 11.4446H189.139C189.972 10.5984 190.948 9.95007 192.067 9.49966C193.186 9.04924 194.401 8.82403 195.711 8.82403C197.185 8.82403 198.496 9.11749 199.642 9.70439C200.802 10.2777 201.71 11.2126 202.365 12.5093C203.02 13.7923 203.348 15.4916 203.348 17.6072V31.5701H196.817V18.0166C196.817 16.6654 196.537 15.7304 195.977 15.2118C195.418 14.6931 194.647 14.4338 193.664 14.4338C193.173 14.4338 192.674 14.502 192.169 14.6385C191.678 14.7613 191.2 14.9593 190.736 15.2322C190.286 15.5052 189.883 15.8464 189.528 16.2559V31.5701H183.018Z" fill="black"/>
<path d="M171.622 31.57V9.17207H178.153V31.57H171.622Z" fill="black"/>
<path d="M171.622 6.25884V1.23905H178.153V6.25884H171.622Z" fill="black"/>
<path d="M136.595 31.5701V1.26941H144.682L152.01 19.7759H151.212L158.294 1.26941H166.381V31.5701H160.178V7.08387H161.488L154.221 25.6723H148.755L141.202 7.08387H142.799V31.5701H136.595Z" fill="black"/>
<path d="M124.831 31.57V9.17207H131.362V31.57H124.831Z" fill="black"/>
<path d="M124.831 6.25884V1.23905H131.362V6.25884H124.831Z" fill="black"/>
<path d="M117.367 31.9796C114.664 31.9796 112.583 31.3108 111.122 29.9732C109.675 28.622 108.952 26.4859 108.952 23.565V2.78596H115.463V22.5413C115.463 24.0837 115.749 25.1483 116.322 25.7352C116.909 26.3221 117.851 26.6156 119.148 26.6156C119.503 26.6156 119.864 26.5951 120.233 26.5541C120.615 26.4995 121.038 26.4313 121.502 26.3494V31.5087C120.915 31.6316 120.253 31.7408 119.516 31.8363C118.793 31.9318 118.076 31.9796 117.367 31.9796ZM105.308 14.311V9.17217H121.359V14.311H105.308Z" fill="black"/>
<path d="M90.1214 31.57V9.17205H95.465L95.9564 12.0588H96.2839C96.9118 10.9532 97.7444 10.148 98.7817 9.64294C99.819 9.12428 100.959 8.86495 102.201 8.86495C102.542 8.86495 102.87 8.8786 103.183 8.9059C103.497 8.93319 103.777 8.97414 104.023 9.02874V14.9251C103.682 14.8569 103.313 14.8159 102.917 14.8023C102.535 14.775 102.167 14.7613 101.812 14.7613C101.17 14.7613 100.522 14.8432 99.8668 15.007C99.2116 15.1571 98.6043 15.396 98.0447 15.7236C97.485 16.0375 97.0142 16.4265 96.632 16.8905V31.57H90.1214Z" fill="black"/>
<path d="M75.3781 32C73.1396 32 71.2015 31.5769 69.5636 30.7306C67.9394 29.8708 66.6837 28.5878 65.7965 26.8816C64.9093 25.1619 64.4657 23.0121 64.4657 20.4325C64.4657 17.8255 64.8957 15.6622 65.7555 13.9424C66.6291 12.2226 67.878 10.9396 69.5022 10.0934C71.1401 9.24715 73.0987 8.82403 75.3781 8.82403C77.6575 8.82403 79.6093 9.25398 81.2335 10.1139C82.8714 10.9601 84.1202 12.2431 84.9801 13.9629C85.8537 15.669 86.2904 17.8119 86.2904 20.3915C86.2904 22.9848 85.8468 25.1414 84.9597 26.8612C84.0725 28.5809 82.8099 29.8708 81.1721 30.7306C79.5478 31.5769 77.6165 32 75.3781 32ZM75.3781 27.0454C76.2926 27.0454 77.0705 26.8475 77.7121 26.4517C78.3672 26.0559 78.8654 25.3802 79.2066 24.4248C79.5478 23.4557 79.7185 22.1318 79.7185 20.453C79.7185 18.7332 79.5478 17.3888 79.2066 16.4197C78.8654 15.4506 78.3672 14.7682 77.7121 14.3723C77.0705 13.9629 76.2926 13.7581 75.3781 13.7581C74.4636 13.7581 73.6788 13.9561 73.0236 14.3519C72.3821 14.7477 71.8908 15.4301 71.5495 16.3992C71.2083 17.3546 71.0377 18.6786 71.0377 20.3711C71.0377 22.0908 71.2083 23.4353 71.5495 24.4043C71.8908 25.3734 72.3821 26.0559 73.0236 26.4517C73.6788 26.8475 74.4636 27.0454 75.3781 27.0454Z" fill="black"/>
<path d="M42.4635 31.5701V1.26941H63.674V6.69488H49.1174V31.5701H42.4635ZM46.7015 19.4908V14.0653H61.5857V19.4908H46.7015Z" fill="black"/>
<path d="M15.1655 31.5701C23.5412 31.5701 30.3311 24.7803 30.3311 16.4046C30.3311 15.3659 30.2266 14.3515 30.0277 13.3715H26.9158C27.1653 14.3409 27.298 15.3573 27.298 16.4046C27.298 23.1052 21.8661 28.537 15.1656 28.537L15.1375 28.537L15.1258 28.537L0 28.537V31.5701H15.1655Z" fill="black"/>
<path d="M3.03314 16.4046C3.03314 17.4519 3.16584 18.4682 3.41534 19.4377H0.303359C0.104428 18.4576 0 17.4433 0 16.4046C0 8.02889 6.78984 1.23905 15.1655 1.23905H30.3311V4.27215L15.1656 4.27219C8.46502 4.2722 3.03314 9.70407 3.03314 16.4046Z" fill="black"/>
<path d="M18.1986 16.4045C18.1986 18.0797 16.8406 19.4377 15.1655 19.4377C13.4904 19.4377 12.1324 18.0797 12.1324 16.4045C12.1324 14.7294 13.4904 13.3714 15.1655 13.3714C16.8406 13.3714 18.1986 14.7294 18.1986 16.4045Z" fill="black"/>
<path fill-rule="evenodd" clip-rule="evenodd" d="M15.1656 25.504C20.191 25.504 24.2649 21.4301 24.2649 16.4046C24.2649 14.0741 23.3888 11.9483 21.9479 10.3384H30.3311V7.30532H15.1656C10.1402 7.30535 6.06627 11.3792 6.06627 16.4046C6.06627 18.7351 6.94235 20.8609 8.38313 22.4707L0 22.4707V25.5038H15.1175L15.1656 25.504ZM15.1655 22.4708C18.5158 22.4708 21.2317 19.7549 21.2317 16.4046C21.2317 13.0635 18.5308 10.3533 15.1932 10.3384H15.1655C11.8153 10.3384 9.09932 13.0543 9.09932 16.4046C9.09932 19.7456 11.8003 22.4558 15.1378 22.4707L15.1655 22.4708Z" fill="black"/>
</svg>
