<svg width="384" height="192" viewBox="0 0 384 192" fill="none" xmlns="http://www.w3.org/2000/svg">
<path fill-rule="evenodd" clip-rule="evenodd" d="M147.867 67.5908C146.94 63.9903 146.447 60.2157 146.447 56.3259C146.447 31.4396 166.622 11.2653 191.508 11.2653L247.833 11.2652V0H191.508C160.4 0 135.182 25.2179 135.182 56.3258C135.182 60.1837 135.57 63.951 136.309 67.5908H147.867ZM247.833 56.3258C247.833 87.4336 222.615 112.652 191.508 112.652H135.182V101.386L191.36 101.386L191.403 101.386L191.508 101.387C216.394 101.387 236.568 81.2122 236.568 56.3259C236.568 52.436 236.075 48.6613 235.149 45.0607H246.707C247.446 48.7006 247.833 52.4679 247.833 56.3258ZM202.773 56.3257C202.773 62.5472 197.729 67.5908 191.508 67.5908C185.286 67.5908 180.242 62.5472 180.242 56.3257C180.242 50.1041 185.286 45.0605 191.508 45.0605C197.729 45.0605 202.773 50.1041 202.773 56.3257ZM225.303 56.326C225.303 74.9907 210.173 90.1215 191.508 90.1215L191.329 90.121H135.182V78.8559H166.317C160.966 72.8769 157.712 64.9814 157.712 56.326C157.712 37.6614 172.843 22.5307 191.508 22.5305H247.833V33.7957H216.698C222.049 39.7747 225.303 47.6704 225.303 56.326ZM214.038 56.3258C214.038 68.7689 203.951 78.8561 191.508 78.8561L191.405 78.8559C179.009 78.8003 168.977 68.7345 168.977 56.3258C168.977 43.8826 179.064 33.7957 191.508 33.7957H191.61C204.006 33.8511 214.038 43.9169 214.038 56.3258ZM312.47 189.844C315.067 191.231 317.89 191.924 320.941 191.924C323.386 191.924 325.529 191.458 327.37 190.525C329.235 189.592 330.761 188.37 331.945 186.857H332.513L333.231 191.206H343.366V135.182H331.303V149.457C330.597 149.381 329.828 149.318 328.996 149.268C328.189 149.192 327.37 149.154 326.538 149.154C321.596 149.154 317.449 150.011 314.096 151.726C310.768 153.415 308.247 155.911 306.533 159.213C304.819 162.516 303.961 166.575 303.961 171.39C303.961 176.256 304.73 180.201 306.268 183.227C307.831 186.252 309.899 188.458 312.47 189.844ZM328.164 181.411C326.954 181.865 325.731 182.092 324.496 182.092C322.807 182.092 321.332 181.752 320.071 181.071C318.836 180.365 317.865 179.168 317.159 177.479C316.453 175.789 316.1 173.445 316.1 170.445C316.1 166.058 316.97 162.944 318.71 161.104C320.449 159.238 323.046 158.306 326.5 158.306C327.332 158.306 328.176 158.356 329.034 158.457C329.891 158.533 330.647 158.646 331.303 158.797V179.294C330.445 180.252 329.399 180.958 328.164 181.411ZM357.603 191.546C359.846 191.849 362.153 192 364.523 192C370.422 192 374.973 190.815 378.175 188.445C381.402 186.05 383.015 182.798 383.015 178.689C383.015 175.084 382.07 172.373 380.179 170.558C378.313 168.718 375.54 167.457 371.859 166.777L365.128 165.566C363.767 165.264 362.809 164.835 362.254 164.281C361.699 163.726 361.422 163.008 361.422 162.125C361.422 161.394 361.662 160.713 362.141 160.083C362.645 159.453 363.515 158.949 364.75 158.57C365.985 158.167 367.75 157.965 370.044 157.965C371.935 157.965 373.788 158.079 375.603 158.306C377.418 158.533 379.133 158.873 380.746 159.327V150.478C379.208 150.074 377.481 149.759 375.565 149.532C373.675 149.305 371.721 149.192 369.704 149.192C363.099 149.192 358.195 150.402 354.993 152.822C351.817 155.243 350.229 158.432 350.229 162.39C350.229 165.692 351.111 168.327 352.876 170.293C354.64 172.26 357.464 173.609 361.347 174.34L368.078 175.55C369.464 175.827 370.435 176.231 370.99 176.76C371.544 177.289 371.822 178.071 371.822 179.105C371.822 180.39 371.254 181.399 370.12 182.13C369.011 182.836 367.095 183.189 364.372 183.189C362.103 183.189 359.859 183.038 357.641 182.735C355.422 182.407 353.317 181.941 351.325 181.336V190.185C353.292 190.79 355.384 191.244 357.603 191.546ZM259.616 149.835H269.561L270.356 154.032H270.923C272.461 152.469 274.263 151.272 276.331 150.44C278.398 149.608 280.642 149.192 283.062 149.192C285.785 149.192 288.205 149.734 290.323 150.818C292.466 151.877 294.142 153.604 295.352 155.999C296.562 158.369 297.167 161.507 297.167 165.415V191.206H285.104V166.171C285.104 163.676 284.587 161.949 283.553 160.991C282.52 160.033 281.095 159.554 279.28 159.554C278.373 159.554 277.452 159.68 276.52 159.932C275.612 160.159 274.73 160.524 273.873 161.028C273.041 161.533 272.297 162.163 271.641 162.919V191.206H259.616V149.835ZM238.566 149.835V191.206H250.629V149.835H238.566ZM238.566 144.454V135.182H250.629V144.454H238.566ZM173.87 135.238V191.206H185.328V153.237L196.33 180.312H206.427L217.428 152.169V191.206H228.887V135.238H213.949L201.592 167.527L188.807 135.238H173.87ZM152.139 191.206V149.835H164.202V191.206H152.139ZM152.139 135.182V144.454H164.202V135.182H152.139ZM138.352 191.962C133.361 191.962 129.516 190.727 126.818 188.256C124.146 185.76 122.81 181.815 122.81 176.42V159.327H116.079V149.835H122.81V138.039H134.836V149.835H145.727V159.327H134.836V174.529C134.836 177.378 135.365 179.344 136.424 180.428C137.508 181.512 139.247 182.054 141.642 182.054C142.298 182.054 142.966 182.017 143.647 181.941C144.353 181.84 145.134 181.714 145.991 181.563V191.093C144.907 191.319 143.685 191.521 142.323 191.698C140.987 191.874 139.663 191.962 138.352 191.962ZM88.0283 149.835V191.206H100.054V164.092C100.76 163.234 101.63 162.516 102.663 161.936C103.697 161.331 104.819 160.89 106.029 160.612C107.239 160.31 108.437 160.159 109.621 160.159C110.277 160.159 110.958 160.184 111.663 160.234C112.395 160.259 113.075 160.335 113.706 160.461V149.57C113.252 149.469 112.735 149.394 112.155 149.343C111.575 149.293 110.97 149.268 110.34 149.268C108.046 149.268 105.941 149.747 104.025 150.705C102.109 151.637 100.571 153.125 99.411 155.167H98.806L97.8984 149.835H88.0283ZM60.7961 192C56.6615 192 53.0816 191.218 50.0563 189.655C47.0562 188.067 44.7368 185.697 43.0981 182.546C41.4594 179.369 40.64 175.399 40.64 170.634C40.64 165.819 41.4342 161.823 43.0225 158.646C44.636 155.469 46.9427 153.1 49.9428 151.537C52.9681 149.974 56.5859 149.192 60.7961 149.192C65.0063 149.192 68.6115 149.986 71.6116 151.574C74.6369 153.137 76.9436 155.507 78.5319 158.684C80.1454 161.835 80.9522 165.793 80.9522 170.558C80.9522 175.348 80.1328 179.332 78.4941 182.508C76.8554 185.685 74.5234 188.067 71.4981 189.655C68.498 191.218 64.9307 192 60.7961 192ZM60.7961 182.848C62.4852 182.848 63.9223 182.483 65.1072 181.752C66.3173 181.021 67.2375 179.773 67.8678 178.008C68.498 176.218 68.8132 173.773 68.8132 170.672C68.8132 167.495 68.498 165.012 67.8678 163.222C67.2375 161.432 66.3173 160.171 65.1072 159.44C63.9223 158.684 62.4852 158.306 60.7961 158.306C59.107 158.306 57.6574 158.671 56.4472 159.402C55.2623 160.133 54.3547 161.394 53.7245 163.184C53.0942 164.949 52.7791 167.394 52.7791 170.52C52.7791 173.697 53.0942 176.18 53.7245 177.97C54.3547 179.76 55.2623 181.021 56.4472 181.752C57.6574 182.483 59.107 182.848 60.7961 182.848ZM0 135.238V191.206H12.2903V168.894H35.3204V158.873H12.2903V145.259H39.1777V135.238H0Z" fill="url(#paint0_linear_47_72)"/>
<defs>
<linearGradient id="paint0_linear_47_72" x1="191.508" y1="0" x2="191.508" y2="192" gradientUnits="userSpaceOnUse">
<stop offset="0.25" stop-color="#4FC3F7"/>
<stop offset="1" stop-color="#00D6C8"/>
</linearGradient>
</defs>
</svg>
