<svg width="260" height="32" viewBox="0 0 260 32" fill="none" xmlns="http://www.w3.org/2000/svg">
<path d="M249.473 32C248.139 32 246.84 31.9148 245.576 31.7444C244.326 31.574 243.148 31.3185 242.04 30.9777V25.9939C243.162 26.3347 244.348 26.5974 245.597 26.782C246.847 26.9523 248.11 27.0375 249.388 27.0375C250.922 27.0375 252.001 26.8388 252.626 26.4412C253.265 26.0294 253.584 25.4615 253.584 24.7373C253.584 24.1552 253.428 23.715 253.115 23.4169C252.803 23.1187 252.256 22.8915 251.475 22.7353L247.684 22.0538C245.498 21.642 243.908 20.8824 242.914 19.7749C241.92 18.6674 241.423 17.1836 241.423 15.3236C241.423 13.0944 242.317 11.2982 244.106 9.93513C245.91 8.57205 248.671 7.89051 252.391 7.89051C253.527 7.89051 254.628 7.9544 255.693 8.08219C256.772 8.20998 257.744 8.38747 258.61 8.61465V13.5984C257.702 13.3428 256.736 13.1511 255.714 13.0234C254.692 12.8956 253.648 12.8317 252.583 12.8317C251.291 12.8317 250.297 12.9453 249.601 13.1724C248.905 13.3854 248.416 13.6694 248.132 14.0244C247.862 14.3793 247.727 14.7627 247.727 15.1745C247.727 15.6714 247.883 16.0761 248.196 16.3885C248.508 16.7008 249.047 16.9422 249.814 17.1126L253.605 17.7941C255.678 18.1775 257.24 18.8874 258.291 19.924C259.356 20.9463 259.888 22.4726 259.888 24.5031C259.888 26.8175 258.98 28.6491 257.162 29.998C255.359 31.3327 252.796 32 249.473 32Z" fill="black" fill-opacity="0.85"/>
<path d="M224.928 31.9574C223.21 31.9574 221.62 31.5669 220.157 30.786C218.709 30.0051 217.545 28.7627 216.664 27.0588C215.798 25.355 215.365 23.1329 215.365 20.3925C215.365 17.6805 215.848 15.3945 216.813 13.5345C217.779 11.6745 219.199 10.2688 221.073 9.31748C222.961 8.35196 225.297 7.8692 228.08 7.8692C228.549 7.8692 229.01 7.8905 229.464 7.9331C229.933 7.9615 230.366 7.99699 230.764 8.03959V0H237.558V31.5527H231.85L231.445 29.1034H231.126C230.458 29.9554 229.599 30.644 228.549 31.1694C227.512 31.6947 226.305 31.9574 224.928 31.9574ZM226.93 26.4199C227.626 26.4199 228.314 26.2921 228.996 26.0365C229.692 25.7809 230.281 25.3834 230.764 24.8438V13.3002C230.395 13.215 229.969 13.1511 229.486 13.1085C229.003 13.0518 228.527 13.0234 228.059 13.0234C226.114 13.0234 224.651 13.5487 223.671 14.5994C222.692 15.6359 222.202 17.3895 222.202 19.8601C222.202 21.5497 222.401 22.8702 222.798 23.8215C223.196 24.7728 223.742 25.4473 224.438 25.8448C225.148 26.2282 225.979 26.4199 226.93 26.4199Z" fill="black" fill-opacity="0.85"/>
<path d="M190.39 31.5527V8.25258H195.991L196.438 10.6167H196.758C197.624 9.73635 198.639 9.06191 199.803 8.59335C200.968 8.12479 202.231 7.89051 203.594 7.89051C205.128 7.89051 206.491 8.19578 207.684 8.80633C208.891 9.40268 209.835 10.3753 210.516 11.7242C211.198 13.0589 211.539 14.8266 211.539 17.0274V31.5527H204.745V17.4534C204.745 16.0477 204.454 15.0751 203.871 14.5355C203.289 13.996 202.487 13.7262 201.465 13.7262C200.954 13.7262 200.435 13.7972 199.91 13.9392C199.399 14.067 198.902 14.2729 198.419 14.5568C197.95 14.8408 197.532 15.1958 197.162 15.6217V31.5527H190.39Z" fill="black" fill-opacity="0.85"/>
<path d="M178.534 31.5527V8.25256H185.329V31.5527H178.534Z" fill="black" fill-opacity="0.85"/>
<path d="M178.534 5.22199V0H185.329V5.22199H178.534Z" fill="black" fill-opacity="0.85"/>
<path d="M142.097 31.5528V0.0315836H150.51L158.133 19.2835H157.303L164.67 0.0315836H173.083V31.5528H166.63V6.08025H167.993L160.433 25.4174H154.747L146.889 6.08025H148.551V31.5528H142.097Z" fill="black" fill-opacity="0.85"/>
<path d="M129.859 31.5527V8.25256H136.653V31.5527H129.859Z" fill="black" fill-opacity="0.85"/>
<path d="M129.859 5.22199V0H136.653V5.22199H129.859Z" fill="black" fill-opacity="0.85"/>
<path d="M122.094 31.9788C119.283 31.9788 117.117 31.283 115.598 29.8916C114.093 28.4859 113.341 26.2638 113.341 23.2253V1.60922H120.113V22.1603C120.113 23.7648 120.412 24.8723 121.008 25.4829C121.618 26.0934 122.598 26.3987 123.947 26.3987C124.316 26.3987 124.692 26.3774 125.076 26.3348C125.473 26.278 125.914 26.207 126.396 26.1218V31.4889C125.786 31.6167 125.097 31.7303 124.33 31.8297C123.578 31.9291 122.832 31.9788 122.094 31.9788ZM109.549 13.5985V8.25266H126.247V13.5985H109.549Z" fill="black" fill-opacity="0.85"/>
<path d="M93.7515 31.5527V8.25254H99.3103L99.8215 11.2556H100.162C100.815 10.1055 101.682 9.26775 102.761 8.7424C103.84 8.20285 105.025 7.93307 106.317 7.93307C106.672 7.93307 107.013 7.94727 107.34 7.97567C107.666 8.00407 107.957 8.04666 108.213 8.10346V14.2373C107.858 14.1663 107.475 14.1237 107.063 14.1095C106.665 14.0811 106.282 14.0669 105.913 14.0669C105.245 14.0669 104.571 14.1521 103.889 14.3225C103.208 14.4787 102.576 14.7272 101.994 15.0679C101.412 15.3945 100.922 15.7992 100.524 16.2819V31.5527H93.7515Z" fill="black" fill-opacity="0.85"/>
<path d="M78.4143 32C76.0857 32 74.0695 31.5598 72.3656 30.6795C70.676 29.785 69.3697 28.4503 68.4468 26.6755C67.5239 24.8864 67.0624 22.6501 67.0624 19.9666C67.0624 17.2546 67.5097 15.0041 68.4042 13.215C69.3129 11.426 70.6121 10.0913 72.3017 9.21099C74.0056 8.33067 76.0431 7.89051 78.4143 7.89051C80.7855 7.89051 82.8159 8.33777 84.5056 9.23229C86.2094 10.1126 87.5086 11.4473 88.4031 13.2363C89.3118 15.0112 89.7662 17.2404 89.7662 19.924C89.7662 22.6217 89.3048 24.8651 88.3818 26.6542C87.4589 28.4432 86.1455 29.785 84.4417 30.6795C82.752 31.5598 80.7429 32 78.4143 32ZM78.4143 26.8459C79.3656 26.8459 80.1749 26.64 80.8423 26.2282C81.5238 25.8164 82.0421 25.1136 82.3971 24.1197C82.752 23.1116 82.9295 21.7343 82.9295 19.9879C82.9295 18.1988 82.752 16.8002 82.3971 15.7921C82.0421 14.784 81.5238 14.0741 80.8423 13.6623C80.1749 13.2363 79.3656 13.0234 78.4143 13.0234C77.463 13.0234 76.6466 13.2292 75.965 13.641C75.2977 14.0528 74.7865 14.7627 74.4315 15.7708C74.0766 16.7647 73.8991 18.142 73.8991 19.9027C73.8991 21.6917 74.0766 23.0903 74.4315 24.0984C74.7865 25.1065 75.2977 25.8164 75.965 26.2282C76.6466 26.64 77.463 26.8459 78.4143 26.8459Z" fill="black" fill-opacity="0.85"/>
<path d="M44.1739 31.5528V0.0315836H66.2388V5.67559H51.0958V31.5528H44.1739ZM48.5826 18.9869V13.3429H64.0664V18.9869H48.5826Z" fill="black" fill-opacity="0.85"/>
<path d="M15.7764 31.5528C24.4895 31.5528 31.5528 24.4895 31.5528 15.7764C31.5528 14.6958 31.4442 13.6406 31.2372 12.6211H27.9999C28.2595 13.6296 28.3975 14.6869 28.3975 15.7764C28.3975 22.7469 22.7469 28.3975 15.7764 28.3975L15.7472 28.3975L15.7351 28.3975L0 28.3975V31.5528H15.7764Z" fill="black" fill-opacity="0.85"/>
<path d="M3.15531 15.7764C3.15531 16.8659 3.29336 17.9232 3.55291 18.9316H0.315578C0.108635 17.9121 0 16.857 0 15.7764C0 7.06333 7.06333 0 15.7764 0H31.5528V3.15528L15.7764 3.15531C8.80599 3.15533 3.15531 8.80599 3.15531 15.7764Z" fill="black" fill-opacity="0.85"/>
<path d="M18.9316 15.7764C18.9316 17.519 17.519 18.9316 15.7764 18.9316C14.0338 18.9316 12.6211 17.519 12.6211 15.7764C12.6211 14.0338 14.0338 12.6211 15.7764 12.6211C17.519 12.6211 18.9316 14.0338 18.9316 15.7764Z" fill="black" fill-opacity="0.85"/>
<path fill-rule="evenodd" clip-rule="evenodd" d="M15.7765 25.2423C21.0043 25.2423 25.2423 21.0043 25.2423 15.7765C25.2423 13.3521 24.3309 11.1406 22.832 9.4659H31.5528V6.31062H15.7765C10.5487 6.31066 6.31062 10.5486 6.31062 15.7765C6.31062 18.2008 7.22199 20.4122 8.7208 22.0869L0 22.0869V25.2422H15.7264L15.7765 25.2423ZM15.7764 22.087C19.2616 22.087 22.087 19.2616 22.087 15.7764C22.087 12.3008 19.2772 9.48141 15.8052 9.4659H15.7764C12.2912 9.4659 9.46584 12.2912 9.46584 15.7764C9.46584 19.252 12.2756 22.0713 15.7475 22.0869L15.7764 22.087Z" fill="black" fill-opacity="0.85"/>
</svg>
