<svg width="512" height="512" viewBox="0 0 512 512" fill="none" xmlns="http://www.w3.org/2000/svg">
<path d="M257 465C256.6 456.6 262.167 447.167 265 443.5C265 442.7 274.333 443.167 279 443.5C279.833 445.333 281.2 449.9 280 453.5C278.5 458 275 464 275 465C275 466 268 476 262 477C256 478 257.5 475.5 257 465Z" fill="#607D8B"/>
<path d="M253.5 451C256.7 449 253.833 442.167 252 439C252 436.6 241.667 440 236.5 442C232.167 445 222.9 452.8 220.5 460C217.5 469 225 467.5 229 467C233 466.5 249.5 453.5 253.5 451Z" fill="#607D8B"/>
<path fill-rule="evenodd" clip-rule="evenodd" d="M299 53H35V219H299V53ZM34 52V220H300V52H34Z" fill="#607D8B"/>
<path d="M34 53H300V69H34V53Z" fill="#607D8B"/>
<path d="M385 285L393 293V445H385V285Z" fill="white"/>
<path fill-rule="evenodd" clip-rule="evenodd" d="M385 285V445H393V293L385 285ZM386 287.414V444H392V293.414L386 287.414Z" fill="#607D8B"/>
<path d="M465 285L473 293V445H465V285Z" fill="white"/>
<path fill-rule="evenodd" clip-rule="evenodd" d="M465 285V445H473V293L465 285ZM466 287.414V444H472V293.414L466 287.414Z" fill="#607D8B"/>
<path fill-rule="evenodd" clip-rule="evenodd" d="M384 286H326V444H384V286ZM325 285V445H385V285H325Z" fill="#607D8B"/>
<path fill-rule="evenodd" clip-rule="evenodd" d="M373 354H333V353H373V354Z" fill="#607D8B"/>
<path fill-rule="evenodd" clip-rule="evenodd" d="M373 377H333V376H373V377Z" fill="#607D8B"/>
<path fill-rule="evenodd" clip-rule="evenodd" d="M373 400H333V399H373V400Z" fill="#607D8B"/>
<path fill-rule="evenodd" clip-rule="evenodd" d="M373 423H333V422H373V423Z" fill="#607D8B"/>
<path fill-rule="evenodd" clip-rule="evenodd" d="M464 286H406V444H464V286ZM405 285V445H465V285H405Z" fill="#607D8B"/>
<path fill-rule="evenodd" clip-rule="evenodd" d="M453 354H413V353H453V354Z" fill="#607D8B"/>
<path fill-rule="evenodd" clip-rule="evenodd" d="M453 377H413V376H453V377Z" fill="#607D8B"/>
<path fill-rule="evenodd" clip-rule="evenodd" d="M453 400H413V399H453V400Z" fill="#607D8B"/>
<path fill-rule="evenodd" clip-rule="evenodd" d="M453 423H413V422H453V423Z" fill="#607D8B"/>
<path d="M194.5 197C198.5 155.4 230.833 142 246.5 140.5C245.333 139.833 248.1 138.9 268.5 140.5C294 142.5 313 164.5 313 178C313 188.8 307 200.5 304 205C304 219.5 298.5 243 293 253C287.5 263 255.5 261.5 241 260.5C226.5 259.5 210.5 262.5 211.5 254.5C212.3 248.1 214.5 231.5 215.5 224V223C197.1 221.4 193.833 205 194.5 197Z" fill="#00D6C8"/>
<path fill-rule="evenodd" clip-rule="evenodd" d="M249.394 139.15C252.52 139.033 258.336 139.201 268.539 140.002C281.422 141.012 292.649 147.072 300.654 154.573C308.64 162.055 313.5 171.053 313.5 178C313.5 183.485 311.978 189.175 310.091 194.043C308.238 198.826 306.019 202.848 304.5 205.151C304.481 212.433 303.103 221.903 301.05 230.8C298.984 239.752 296.222 248.18 293.438 253.241C291.966 255.917 288.775 257.749 284.743 259.009C280.69 260.275 275.677 260.998 270.411 261.374C259.873 262.127 248.219 261.499 240.966 260.999C237.361 260.75 233.659 260.75 230.135 260.766C229.883 260.767 229.632 260.768 229.382 260.769C226.142 260.785 223.065 260.799 220.405 260.624C217.554 260.436 215.099 260.027 213.41 259.112C212.555 258.648 211.873 258.043 211.446 257.251C211.017 256.457 210.869 255.52 211.004 254.438C211.803 248.045 213.998 231.482 215 223.967V223.455C205.904 222.533 200.476 217.995 197.416 212.648C194.321 207.241 193.662 201.034 194.002 196.959L194.002 196.952C197.978 155.607 229.752 141.889 245.799 140.071C245.844 139.919 245.939 139.807 246.026 139.734C246.137 139.64 246.271 139.575 246.4 139.526C246.9 139.337 247.852 139.209 249.394 139.15ZM247.231 140.342L248.116 140.848L246.548 140.998C231.035 142.483 198.969 155.761 194.998 197.045C194.672 200.969 195.313 206.961 198.284 212.152C201.24 217.317 206.515 221.717 215.543 222.502L216 222.542V224.033L215.996 224.066C214.996 231.567 212.796 248.165 211.996 254.562C211.881 255.48 212.014 256.199 212.326 256.776C212.638 257.356 213.156 257.836 213.887 258.232C215.37 259.036 217.634 259.439 220.47 259.626C223.094 259.799 226.136 259.785 229.388 259.769C229.634 259.768 229.882 259.767 230.131 259.766C233.653 259.75 237.389 259.75 241.034 260.001C248.281 260.501 259.877 261.124 270.339 260.376C275.573 260.003 280.498 259.288 284.445 258.054C288.413 256.814 291.284 255.083 292.562 252.759C295.278 247.82 298.016 239.498 300.075 230.575C302.133 221.658 303.5 212.199 303.5 205V204.849L303.584 204.723C305.064 202.503 307.297 198.486 309.159 193.682C311.022 188.875 312.5 183.315 312.5 178C312.5 171.447 307.86 162.695 299.971 155.302C292.101 147.928 281.078 141.988 268.461 140.999C258.264 140.199 252.497 140.034 249.431 140.15C248.382 140.189 247.678 140.261 247.231 140.342Z" fill="#607D8B"/>
<path d="M253.402 129.87C239.826 126.347 243.871 110.258 248 102L266.5 98.5L273 111.5L268.5 125.5C267.833 125.333 266.4 126.3 266 131.5C265.6 136.7 270.5 143.667 273 146.5L257 155L245 144L251 129.5L253.402 129.87Z" fill="white"/>
<path fill-rule="evenodd" clip-rule="evenodd" d="M266.778 97.9385L273.538 111.459L268.833 126.099L268.379 125.985C268.379 125.985 268.038 125.931 267.585 126.733C267.146 127.512 266.696 128.969 266.499 131.538C266.31 133.99 267.376 136.925 268.852 139.649C270.319 142.357 272.146 144.777 273.375 146.169L273.794 146.644L256.923 155.607L244.404 144.132L250.513 129.368C248.464 128.403 246.934 127.068 245.838 125.473C244.303 123.239 243.649 120.537 243.562 117.726C243.389 112.117 245.469 105.945 247.553 101.776L247.664 101.555L266.778 97.9385ZM253.302 130.36C254.549 130.682 255.934 130.899 257.467 130.999L257.576 130.006L253.504 129.379C250.226 128.524 248.048 126.924 246.662 124.907C245.267 122.876 244.644 120.379 244.561 117.695C244.398 112.411 246.331 106.528 248.337 102.445L266.222 99.0615L272.462 111.541L268.135 125.001C267.623 125.095 267.117 125.528 266.715 126.242C266.171 127.205 265.704 128.831 265.501 131.462C265.29 134.21 266.474 137.359 267.973 140.126C269.325 142.622 270.971 144.874 272.213 146.352L257.077 154.393L245.596 143.868L251.312 130.054L253.302 130.36Z" fill="#607D8B"/>
<path d="M246 106C238.293 102.147 238 93 240.5 88.5C241.5 90.1667 244.2 93.1 251 93.5C255 93.7353 258.938 91.5 263.5 91.5C273.5 91.5 275.5 99 277 105C278.5 111 275 127 270 126C266 125.2 264 121 263.5 119C265.167 118.5 268.6 116.6 269 113C269.4 109.4 266.333 109.5 265 109C265 105.4 263 105 261.5 105.5C259.5 107.5 252 109 246 106Z" fill="#607D8B"/>
<path fill-rule="evenodd" clip-rule="evenodd" d="M279.711 193.433C277.876 195.335 275.483 196.393 272.435 195.996L272.565 195.004C275.267 195.357 277.353 194.436 278.992 192.739C280.65 191.021 281.855 188.498 282.709 185.668C284.416 180.012 284.666 173.323 284.501 170.025L285.499 169.975C285.668 173.343 285.417 180.155 283.666 185.957C282.791 188.856 281.527 191.552 279.711 193.433ZM238.711 191.4C233.858 189.417 228.625 187.038 225.285 185.452L225.715 184.548C229.042 186.129 234.258 188.5 239.089 190.475C241.505 191.462 243.818 192.348 245.748 192.986C247.702 193.633 249.193 194 250 194V195C249.007 195 247.369 194.576 245.434 193.936C243.473 193.287 241.137 192.392 238.711 191.4Z" fill="#607D8B"/>
<path d="M284 182C280.4 178.8 275.167 180.667 273 182C273.5 190 272 190.5 273 192.5C273.8 194.1 276.333 194.5 277.5 194.5C281.9 190.1 283.667 184.333 284 182Z" fill="white"/>
<path fill-rule="evenodd" clip-rule="evenodd" d="M273.517 182.275C273.739 186.117 273.494 188.202 273.308 189.568C273.299 189.632 273.291 189.694 273.282 189.755C273.11 191.012 273.046 191.475 273.447 192.276C273.761 192.903 274.444 193.344 275.274 193.627C275.995 193.873 276.756 193.975 277.295 193.996C281.332 189.874 283.054 184.58 283.463 182.199C281.84 180.872 279.878 180.583 278.02 180.797C276.227 181.003 274.574 181.674 273.517 182.275ZM277.905 179.803C280.026 179.56 282.393 179.903 284.332 181.626L284.533 181.805L284.495 182.071C284.15 184.483 282.348 190.359 277.854 194.854L277.707 195H277.5C276.872 195 275.891 194.894 274.951 194.573C274.023 194.257 273.039 193.697 272.553 192.724C272.011 191.639 272.115 190.885 272.282 189.688C272.293 189.605 272.305 189.52 272.317 189.433C272.501 188.084 272.749 185.993 272.501 182.031L272.482 181.732L272.738 181.574C273.872 180.876 275.791 180.046 277.905 179.803Z" fill="#607D8B"/>
<path d="M213.885 198.248C216.492 195.475 219.037 195.69 220.583 196.604C221.613 196.604 227.28 187.836 225.735 185.096C225.116 184 217.493 184 215.431 184H215.431C214.279 184 208.218 184.548 204.096 192.768C200.782 199.378 205.814 201.17 208.218 200.988C210.622 200.805 212.855 199.343 213.885 198.248Z" fill="white"/>
<path fill-rule="evenodd" clip-rule="evenodd" d="M215.431 184.5C214.417 184.5 208.56 184.982 204.543 192.992C203.74 194.595 203.465 195.861 203.504 196.847C203.542 197.822 203.889 198.548 204.382 199.088C205.392 200.193 207.081 200.573 208.18 200.489C210.431 200.318 212.554 198.934 213.521 197.905C214.886 196.454 216.27 195.748 217.556 195.55C218.727 195.368 219.779 195.615 220.608 196.046C220.663 196.004 220.732 195.944 220.814 195.864C221.039 195.644 221.322 195.312 221.641 194.89C222.275 194.048 223.018 192.889 223.684 191.642C224.35 190.393 224.928 189.076 225.244 187.918C225.403 187.339 225.491 186.815 225.499 186.368C225.507 185.92 225.434 185.583 225.301 185.345C225.302 185.347 225.302 185.348 225.302 185.348C225.3 185.349 225.243 185.287 225.019 185.201C224.789 185.112 224.466 185.029 224.063 184.954C223.259 184.805 222.208 184.704 221.094 184.636C218.87 184.5 216.462 184.5 215.431 184.5ZM203.649 192.544C207.876 184.114 214.14 183.5 215.431 183.5H215.434C216.465 183.5 218.899 183.5 221.155 183.638C222.282 183.707 223.381 183.811 224.245 183.971C224.675 184.05 225.066 184.147 225.379 184.268C225.662 184.377 226 184.549 226.17 184.85C226.422 185.298 226.509 185.832 226.499 186.386C226.489 186.943 226.381 187.554 226.209 188.182C225.865 189.438 225.252 190.827 224.566 192.113C223.879 193.4 223.108 194.604 222.439 195.492C222.105 195.935 221.789 196.31 221.513 196.579C221.376 196.713 221.238 196.832 221.104 196.921C220.987 196.999 220.801 197.104 220.583 197.104H220.446L220.328 197.034C219.643 196.63 218.737 196.379 217.708 196.538C216.683 196.696 215.491 197.27 214.249 198.59C213.156 199.753 210.813 201.292 208.256 201.486C206.951 201.585 204.921 201.16 203.644 199.762C202.993 199.05 202.552 198.1 202.504 196.886C202.457 195.682 202.796 194.246 203.649 192.544Z" fill="#607D8B"/>
<path fill-rule="evenodd" clip-rule="evenodd" d="M304.358 205.349C286.16 224.052 262.743 220.992 247.404 217.991L247.596 217.009C262.923 220.008 285.84 222.948 303.642 204.651L304.358 205.349Z" fill="#607D8B"/>
<path fill-rule="evenodd" clip-rule="evenodd" d="M271.553 179.326C273.21 179.72 274 181.419 274 183.5C274 187.543 272.994 195.078 272.49 197.598C272.404 198.027 272.093 198.558 271.682 199.124C271.256 199.71 270.671 200.402 269.96 201.168C268.538 202.701 266.586 204.558 264.326 206.504C259.81 210.393 254.028 214.669 248.732 217.443C244.457 219.682 238.014 221.234 231.744 222.268C225.46 223.305 219.29 223.832 215.522 223.999L215.478 223C219.21 222.834 225.34 222.311 231.581 221.282C237.836 220.249 244.143 218.717 248.268 216.557C253.472 213.831 259.19 209.607 263.674 205.746C265.914 203.817 267.837 201.986 269.227 200.488C269.923 199.738 270.479 199.078 270.873 198.536C271.282 197.973 271.471 197.597 271.51 197.402C272.006 194.922 273 187.456 273 183.5C273 181.581 272.29 180.529 271.322 180.299C270.281 180.051 268.582 180.625 266.354 182.853L266.35 182.857C264.092 185.114 258.297 190.91 250.226 195.008C242.142 199.113 231.738 201.534 220.314 196.964L220.686 196.036C231.762 200.466 241.858 198.136 249.774 194.117C257.698 190.092 263.401 184.392 265.646 182.146C267.918 179.874 269.969 178.949 271.553 179.326Z" fill="#607D8B"/>
<path d="M301.5 294.5C303.5 272.9 297 257.167 293.5 252C269.833 248.5 220.25 246 214 258.5C205.5 275.5 173 314 187.5 347C194.563 363.074 231.5 438.5 233 440C234.5 441.5 236 446.5 246.5 443C254.9 440.2 253.667 432.167 252 428.5C243.6 394.1 228.833 359.833 222.5 347C226.5 344.2 240.167 317.833 246.5 305C248 322 258.5 356.5 258 363.5C257.6 369.1 260.833 417.833 262.5 441.5C268.5 447.5 277 444 280.5 441.5C284 425 287 377 287 363.5C287 350 299 321.5 301.5 294.5Z" fill="white"/>
<path fill-rule="evenodd" clip-rule="evenodd" d="M218.484 254.925C216.534 256.018 215.168 257.283 214.447 258.724C212.77 262.077 210.166 266.262 207.189 271.044C206.371 272.36 205.524 273.721 204.66 275.122C200.647 281.633 196.253 289.051 192.578 296.961C185.221 312.798 180.797 330.501 187.958 346.799C191.484 354.824 202.479 377.689 212.785 398.745C217.937 409.271 222.915 419.341 226.698 426.872C228.589 430.638 230.182 433.767 231.347 436.001C231.93 437.119 232.405 438.009 232.757 438.642C232.933 438.959 233.075 439.208 233.184 439.387C233.286 439.553 233.338 439.624 233.35 439.642C233.353 439.646 233.354 439.647 233.354 439.647C233.57 439.863 233.777 440.132 233.98 440.403C234.015 440.45 234.05 440.496 234.085 440.544C234.261 440.78 234.444 441.025 234.651 441.276C235.143 441.871 235.751 442.475 236.61 442.934C238.316 443.844 241.158 444.254 246.342 442.526C250.366 441.185 252.033 438.625 252.534 435.982C253.042 433.296 252.35 430.477 251.545 428.707L251.525 428.664L251.514 428.619C243.125 394.264 228.374 360.032 222.052 347.221L221.862 346.837L222.213 346.59C222.643 346.289 223.254 345.628 224.021 344.616C224.778 343.617 225.657 342.321 226.624 340.793C228.559 337.74 230.835 333.791 233.187 329.521C237.891 320.984 242.887 311.191 246.052 304.779L246.841 303.179L246.998 304.956C247.744 313.412 250.733 326.246 253.487 337.885C253.595 338.342 253.703 338.798 253.81 339.251C255.065 344.555 256.249 349.556 257.114 353.695C257.584 355.941 257.961 357.94 258.206 359.601C258.448 361.252 258.565 362.603 258.499 363.536C258.401 364.898 258.526 368.957 258.799 374.698C259.072 380.421 259.491 387.775 259.974 395.695C260.935 411.45 262.153 429.441 262.985 441.277C265.823 444.029 269.222 444.608 272.372 444.192C275.489 443.78 278.333 442.394 280.051 441.204C281.778 432.935 283.385 416.97 284.564 401.338C285.751 385.59 286.5 370.23 286.5 363.5C286.5 360.064 287.262 355.705 288.427 350.707C289.432 346.398 290.744 341.585 292.146 336.444C292.372 335.615 292.6 334.777 292.83 333.931C296.143 321.741 299.757 307.905 301.002 294.454C302.969 273.215 296.668 257.713 293.208 252.462C281.392 250.73 263.236 249.254 247.234 249.75C239.182 249.999 231.699 250.748 225.851 252.204C222.928 252.932 220.432 253.833 218.484 254.925ZM247.203 248.75C263.373 248.249 281.716 249.752 293.573 251.505L293.791 251.538L293.914 251.72C297.482 256.987 304.008 272.836 301.998 294.546C300.743 308.095 297.107 322.009 293.795 334.194C293.565 335.041 293.336 335.879 293.11 336.709C291.708 341.852 290.401 346.645 289.401 350.934C288.238 355.92 287.5 360.186 287.5 363.5C287.5 370.27 286.749 385.66 285.561 401.413C284.374 417.158 282.747 433.316 280.989 441.604L280.949 441.794L280.791 441.907C278.989 443.194 275.913 444.733 272.503 445.183C269.077 445.636 265.283 444.99 262.146 441.854L262.014 441.722L262.001 441.535C261.168 429.701 259.943 411.599 258.976 395.756C258.493 387.834 258.074 380.475 257.801 374.746C257.528 369.035 257.399 364.902 257.501 363.464C257.56 362.648 257.458 361.389 257.216 359.747C256.976 358.114 256.603 356.137 256.136 353.899C255.273 349.774 254.092 344.785 252.835 339.476C252.729 339.025 252.621 338.571 252.513 338.115C249.946 327.264 247.149 315.273 246.178 306.776C243.004 313.157 238.41 322.114 234.063 330.004C231.707 334.28 229.42 338.25 227.469 341.329C226.494 342.868 225.599 344.19 224.818 345.22C224.195 346.042 223.624 346.706 223.126 347.141C229.563 360.263 244.14 394.225 252.475 428.336C253.328 430.235 254.07 433.243 253.516 436.168C252.95 439.158 251.034 442.016 246.658 443.474C241.341 445.247 238.184 444.907 236.14 443.816C235.124 443.275 234.42 442.566 233.88 441.912C233.656 441.641 233.457 441.374 233.28 441.137C233.246 441.091 233.212 441.047 233.18 441.003C232.973 440.727 232.805 440.513 232.646 440.354C232.549 440.256 232.436 440.081 232.331 439.907C232.211 439.712 232.061 439.45 231.882 439.128C231.524 438.483 231.045 437.584 230.461 436.464C229.291 434.223 227.697 431.088 225.804 427.321C222.019 419.785 217.04 409.713 211.887 399.185C201.584 378.135 190.579 355.25 187.042 347.201C179.703 330.499 184.279 312.452 191.672 296.539C195.372 288.574 199.791 281.117 203.809 274.597C204.682 273.18 205.535 271.809 206.358 270.487C209.329 265.713 211.899 261.584 213.553 258.276C214.395 256.593 215.945 255.201 217.995 254.052C220.048 252.902 222.636 251.974 225.61 251.234C231.557 249.752 239.12 249.001 247.203 248.75Z" fill="#607D8B"/>
<path fill-rule="evenodd" clip-rule="evenodd" d="M246.004 307.063L243.004 283.563L243.996 283.437L246.996 306.937L246.004 307.063Z" fill="#607D8B"/>
<mask id="mask0_92_374" style="mask-type:alpha" maskUnits="userSpaceOnUse" x="339" y="162" width="120" height="120">
<rect x="339" y="162" width="120" height="120" fill="white" fill-opacity="0.8"/>
</mask>
<g mask="url(#mask0_92_374)">
<path d="M394.75 237H403.25C403.875 237 404.42 236.74 404.885 236.219C405.351 235.698 405.5 235.125 405.334 234.5L402.709 219.541C404.401 218.755 405.734 217.615 406.706 216.121C407.68 214.627 408.166 212.975 408.166 211.166C408.166 208.645 407.268 206.487 405.471 204.692C403.675 202.897 401.516 202 398.992 202C396.47 202 394.313 202.897 392.521 204.692C390.73 206.487 389.834 208.645 389.834 211.166C389.834 212.975 390.32 214.627 391.294 216.121C392.266 217.615 393.599 218.755 395.291 219.541L392.666 234.5C392.5 235.125 392.649 235.698 393.115 236.219C393.58 236.74 394.125 237 394.75 237ZM399 271.5C398.51 271.5 398.055 271.458 397.635 271.375C397.215 271.292 396.795 271.167 396.375 271C384.903 267.139 375.805 260.146 369.084 250.021C362.361 239.896 359 228.858 359 216.908V192.709C359 190.945 359.503 189.357 360.51 187.945C361.518 186.533 362.82 185.51 364.416 184.875L396.084 173.041C397.084 172.68 398.056 172.5 399 172.5C399.944 172.5 400.916 172.68 401.916 173.041L433.584 184.875C435.18 185.51 436.482 186.533 437.49 187.945C438.497 189.357 439 190.945 439 192.709V216.908C439 228.858 435.639 239.896 428.916 250.021C422.195 260.146 413.097 267.139 401.625 271C401.205 271.167 400.785 271.292 400.365 271.375C399.945 271.458 399.49 271.5 399 271.5ZM399 263.25C408.278 260.223 415.875 254.403 421.791 245.791C427.708 237.18 430.666 227.555 430.666 216.916V192.709L399 180.791L367.334 192.709V216.916C367.334 227.555 370.292 237.18 376.209 245.791C382.125 254.403 389.722 260.223 399 263.25Z" fill="white" fill-opacity="0.8"/>
</g>
<mask id="mask1_92_374" style="mask-type:alpha" maskUnits="userSpaceOnUse" x="323" y="52" width="80" height="80">
<rect x="323" y="52" width="80" height="80" fill="#00D6C8"/>
</mask>
<g mask="url(#mask1_92_374)">
<path d="M374 81.4165L370.417 77.8332C370.083 77.4998 369.694 77.3471 369.25 77.3748C368.806 77.4026 368.417 77.5832 368.083 77.9165C367.75 78.2498 367.583 78.6387 367.583 79.0832C367.583 79.5276 367.75 79.9165 368.083 80.2498L372.056 84.2223C372.611 84.7779 373.259 85.0557 374 85.0557C374.741 85.0557 375.389 84.7779 375.944 84.2223L384.583 75.4998C384.917 75.1665 385.083 74.7776 385.083 74.3332C385.083 73.8887 384.917 73.4998 384.583 73.1665C384.25 72.8332 383.861 72.6665 383.417 72.6665C382.972 72.6665 382.583 72.8332 382.25 73.1665L374 81.4165ZM335.778 118.667C334.991 118.667 334.331 118.399 333.798 117.865C333.266 117.331 333 116.669 333 115.879C333 115.089 333.266 114.43 333.798 113.902C334.331 113.375 334.991 113.111 335.778 113.111H370.222C371.009 113.111 371.669 113.378 372.202 113.912C372.734 114.447 373 115.109 373 115.898C373 116.688 372.734 117.347 372.202 117.875C371.669 118.403 371.009 118.667 370.222 118.667H335.778ZM376.327 94.7773C371.869 94.7773 368.07 93.2059 364.931 90.0632C361.792 86.9204 360.223 83.1196 360.223 78.6607C360.223 74.2018 361.794 70.4029 364.937 67.264C368.079 64.1251 371.88 62.5557 376.339 62.5557C380.798 62.5557 384.597 64.1271 387.736 67.2698C390.875 70.4126 392.444 74.2134 392.444 78.6723C392.444 83.1312 390.873 86.9301 387.73 90.069C384.587 93.2079 380.786 94.7773 376.327 94.7773ZM335.778 90.889C334.991 90.889 334.331 90.6218 333.798 90.0873C333.266 89.5529 333 88.8909 333 88.1015C333 87.3115 333.266 86.6526 333.798 86.1248C334.331 85.5971 334.991 85.3332 335.778 85.3332H352.806C353.593 85.3332 354.252 85.6062 354.785 86.1523C355.317 86.699 355.583 87.3587 355.583 88.1315C355.583 88.8587 355.317 89.5001 354.785 90.0557C354.252 90.6112 353.593 90.889 352.806 90.889H335.778ZM335.778 104.777C334.991 104.777 334.331 104.51 333.798 103.977C333.266 103.442 333 102.78 333 101.99C333 101.2 333.266 100.542 333.798 100.014C334.331 99.4862 334.991 99.2223 335.778 99.2223H365.194C365.981 99.2223 366.641 99.4954 367.173 100.042C367.706 100.588 367.972 101.247 367.972 102.02C367.972 102.747 367.718 103.388 367.208 103.944C366.699 104.5 366.028 104.777 365.194 104.777H335.778Z" fill="#00D6C8"/>
</g>
<mask id="mask2_92_374" style="mask-type:alpha" maskUnits="userSpaceOnUse" x="36" y="357" width="120" height="120">
<rect x="36" y="357" width="120" height="120" fill="#D9D9D9"/>
</mask>
<g mask="url(#mask2_92_374)">
<path d="M42.7989 406.279C41.5214 405.001 40.9243 403.494 41.0077 401.758C41.091 400.022 41.7993 398.571 43.1327 397.404C46.8827 394.238 50.8897 391.384 55.1539 388.842C59.4172 386.3 63.8964 384.14 68.5914 382.362C73.7856 380.362 79.1189 378.939 84.5914 378.092C90.0631 377.244 95.5768 376.89 101.133 377.029C102.855 377.084 104.265 377.744 105.361 379.008C106.459 380.272 106.911 381.779 106.716 383.529C106.521 385.279 105.785 386.71 104.508 387.821C103.23 388.932 101.702 389.473 99.9239 389.446C95.3964 389.39 90.9314 389.716 86.5289 390.424C82.1256 391.133 77.7852 392.265 73.5077 393.821C69.5352 395.321 65.7781 397.099 62.2364 399.154C58.6947 401.209 55.2572 403.64 51.9239 406.446C50.5906 407.612 49.0489 408.189 47.2989 408.174C45.5489 408.161 44.0489 407.529 42.7989 406.279ZM69.0914 424.154C67.2297 425.488 65.4727 425.974 63.8202 425.612C62.1677 425.251 60.8414 424.474 59.8414 423.279C58.8414 422.084 58.3272 420.682 58.2989 419.071C58.2714 417.46 58.9797 416.099 60.4239 414.987C64.8131 411.737 69.5839 409.119 74.7364 407.133C79.8897 405.147 85.1885 403.918 90.6327 403.446C92.5218 403.168 94.0218 403.578 95.1327 404.674C96.2435 405.772 96.9239 407.084 97.1739 408.612C97.4239 410.14 97.1393 411.613 96.3202 413.029C95.501 414.445 94.0218 415.334 91.8827 415.696C87.7435 416.251 83.7506 417.209 79.9039 418.571C76.0564 419.932 72.4522 421.793 69.0914 424.154ZM94.2164 456.362C91.7164 455.445 89.9385 453.702 88.8827 451.133C87.8268 448.564 87.8822 446.113 89.0489 443.779L118.799 382.612C119.077 382.001 119.529 381.578 120.154 381.342C120.779 381.105 121.438 381.084 122.133 381.279C122.799 381.474 123.327 381.869 123.716 382.467C124.105 383.064 124.216 383.695 124.049 384.362L107.133 450.862C106.466 453.362 104.82 455.174 102.195 456.299C99.5702 457.424 96.9106 457.445 94.2164 456.362ZM154.008 405.779C152.98 406.974 151.633 407.717 149.966 408.008C148.3 408.3 146.55 407.709 144.716 406.237C143.271 405.015 141.598 403.759 139.695 402.467C137.793 401.175 136.022 400.057 134.383 399.112C132.577 398.001 131.549 396.612 131.299 394.946C131.049 393.279 131.299 391.793 132.049 390.487C132.799 389.182 133.917 388.224 135.404 387.612C136.89 387.001 138.508 387.168 140.258 388.112C142.452 389.307 144.764 390.772 147.195 392.508C149.626 394.244 151.772 395.89 153.633 397.446C155.049 398.64 155.723 400.029 155.654 401.612C155.584 403.195 155.035 404.584 154.008 405.779ZM140.841 427.029C139.786 428.196 138.403 428.904 136.695 429.154C134.987 429.404 133.286 428.779 131.591 427.279C130.925 426.668 130.126 426.049 129.195 425.424C128.264 424.799 127.396 424.265 126.591 423.821C124.758 422.654 123.73 421.237 123.508 419.571C123.285 417.904 123.591 416.404 124.424 415.071C125.257 413.737 126.424 412.786 127.924 412.217C129.424 411.647 130.993 411.848 132.633 412.821C133.938 413.515 135.306 414.383 136.736 415.424C138.167 416.466 139.452 417.445 140.591 418.362C142.091 419.695 142.772 421.182 142.633 422.821C142.493 424.46 141.896 425.863 140.841 427.029Z" fill="#008078"/>
</g>
<mask id="mask3_92_374" style="mask-type:alpha" maskUnits="userSpaceOnUse" x="94" y="264" width="80" height="80">
<rect x="94" y="264" width="80" height="80" fill="white"/>
</mask>
<g mask="url(#mask3_92_374)">
<path d="M167.333 304C167.333 308.611 166.458 312.944 164.708 317C162.958 321.055 160.583 324.583 157.583 327.583C154.583 330.583 151.056 332.958 147 334.708C142.944 336.458 138.611 337.333 134 337.333C129.518 337.333 125.291 336.5 121.319 334.833C117.347 333.167 113.856 330.884 110.847 327.986C107.838 325.088 105.444 321.681 103.667 317.764C101.889 313.847 100.917 309.648 100.75 305.167C100.713 304.222 100.972 303.514 101.527 303.042C102.083 302.569 102.704 302.315 103.389 302.277C104.074 302.241 104.722 302.44 105.333 302.875C105.944 303.31 106.269 304 106.306 304.944C106.509 312.481 109.291 318.852 114.652 324.056C120.014 329.259 126.463 331.861 134 331.861C141.754 331.861 148.323 329.17 153.705 323.788C159.087 318.406 161.778 311.838 161.778 304.083C161.778 296.329 159.087 289.76 153.705 284.378C148.323 278.997 141.754 276.306 134 276.306C128.648 276.306 123.81 277.662 119.486 280.375C115.162 283.088 111.833 286.648 109.5 291.056H117.111C117.898 291.056 118.558 291.323 119.09 291.857C119.623 292.391 119.889 293.053 119.889 293.843C119.889 294.633 119.623 295.291 119.09 295.819C118.558 296.347 117.898 296.611 117.111 296.611H103.444C102.657 296.611 101.998 296.345 101.465 295.812C100.933 295.28 100.667 294.62 100.667 293.833V280.111C100.667 279.324 100.934 278.664 101.468 278.132C102.002 277.599 102.664 277.333 103.454 277.333C104.244 277.333 104.903 277.599 105.431 278.132C105.959 278.664 106.222 279.324 106.222 280.111V285.611C109.241 281.074 113.157 277.449 117.972 274.736C122.787 272.023 128.129 270.667 134 270.667C138.611 270.667 142.944 271.542 147 273.292C151.056 275.042 154.583 277.417 157.583 280.417C160.583 283.417 162.958 286.944 164.708 291C166.458 295.055 167.333 299.389 167.333 304ZM127.333 317.056C126.5 317.056 125.782 316.755 125.181 316.152C124.579 315.551 124.277 314.833 124.277 314V304C124.277 303.167 124.597 302.449 125.236 301.847C125.875 301.245 126.666 300.944 127.611 300.944V297.333C127.611 295.577 128.237 294.072 129.488 292.821C130.74 291.57 132.245 290.944 134.002 290.944C135.76 290.944 137.264 291.57 138.514 292.821C139.764 294.072 140.389 295.577 140.389 297.333V300.944C141.334 300.944 142.125 301.245 142.764 301.847C143.403 302.449 143.722 303.167 143.722 304V314C143.722 314.833 143.421 315.551 142.819 316.152C142.217 316.755 141.5 317.056 140.667 317.056H127.333ZM130.389 300.944H137.611V297.338C137.611 296.317 137.265 295.458 136.574 294.764C135.883 294.07 135.027 293.722 134.005 293.722C132.983 293.722 132.125 294.068 131.431 294.76C130.736 295.452 130.389 296.31 130.389 297.333V300.944Z" fill="white"/>
</g>
<mask id="mask4_92_374" style="mask-type:alpha" maskUnits="userSpaceOnUse" x="52" y="84" width="120" height="120">
<rect width="120" height="120" transform="matrix(-1 0 0 1 172 84)" fill="#4FC3F7"/>
</mask>
<g mask="url(#mask4_92_374)">
<path d="M152.847 189C154.032 189 155.021 188.601 155.812 187.802C156.604 187.003 157 186.014 157 184.834V179.334C157 178.153 156.599 177.163 155.798 176.365C154.997 175.566 154.004 175.166 152.819 175.166C151.634 175.166 150.645 175.566 149.854 176.365C149.062 177.163 148.666 178.153 148.666 179.334V184.834C148.666 186.014 149.067 187.003 149.869 187.802C150.67 188.601 151.663 189 152.847 189ZM132.431 189C133.616 189 134.605 188.601 135.396 187.802C136.188 187.003 136.584 186.014 136.584 184.834V158.5C136.584 157.319 136.183 156.329 135.381 155.531C134.58 154.733 133.587 154.334 132.402 154.334C131.217 154.334 130.229 154.733 129.438 155.531C128.646 156.329 128.25 157.319 128.25 158.5V184.834C128.25 186.014 128.651 187.003 129.452 187.802C130.253 188.601 131.246 189 132.431 189ZM112.015 189C113.199 189 114.187 188.601 114.979 187.802C115.77 187.003 116.166 186.014 116.166 184.834V166.834C116.166 165.653 115.766 164.663 114.965 163.865C114.163 163.066 113.17 162.666 111.985 162.666C110.801 162.666 109.813 163.066 109.021 163.865C108.23 164.663 107.834 165.653 107.834 166.834V184.834C107.834 186.014 108.234 187.003 109.035 187.802C109.837 188.601 110.83 189 112.015 189ZM91.5975 189C92.7825 189 93.7708 188.601 94.5625 187.802C95.3542 187.003 95.75 186.014 95.75 184.834V156C95.75 154.819 95.3492 153.829 94.5475 153.031C93.7467 152.233 92.7537 151.834 91.5687 151.834C90.3837 151.834 89.3954 152.233 88.6038 153.031C87.8121 153.829 87.4162 154.819 87.4162 156V184.834C87.4162 186.014 87.8171 187.003 88.6187 187.802C89.4204 188.601 90.4133 189 91.5975 189ZM71.1812 189C72.3662 189 73.3546 188.601 74.1462 187.802C74.9379 187.003 75.3337 186.014 75.3337 184.834V139.334C75.3337 138.153 74.9329 137.163 74.1312 136.365C73.3296 135.566 72.3367 135.166 71.1525 135.166C69.9675 135.166 68.9792 135.566 68.1875 136.365C67.3958 137.163 67 138.153 67 139.334V184.834C67 186.014 67.4008 187.003 68.2025 187.802C69.0033 188.601 69.9962 189 71.1812 189ZM102.041 142.375C103.125 142.375 104.172 142.161 105.185 141.734C106.197 141.306 107.121 140.7 107.959 139.916L122 125.875L149.834 153.625C150.67 154.458 151.664 154.854 152.815 154.812C153.966 154.771 154.955 154.333 155.781 153.5C156.538 152.667 156.923 151.687 156.937 150.562C156.952 149.437 156.556 148.472 155.75 147.666L127.875 119.959C127.037 119.132 126.113 118.529 125.101 118.151C124.09 117.773 123.056 117.584 122 117.584C120.944 117.584 119.893 117.773 118.846 118.151C117.8 118.529 116.892 119.132 116.125 119.959L102 134.084L74.0837 106.166C73.2504 105.333 72.2712 104.923 71.1462 104.937C70.0212 104.952 69.0454 105.375 68.2188 106.209C67.4621 107.042 67.0767 108.021 67.0625 109.146C67.0483 110.271 67.4442 111.236 68.25 112.041L96.125 139.916C96.875 140.722 97.7779 141.333 98.8337 141.75C99.8887 142.167 100.958 142.375 102.041 142.375Z" fill="#4FC3F7"/>
</g>
</svg>
