<svg width="653" height="281" viewBox="0 0 653 281" fill="none" xmlns="http://www.w3.org/2000/svg">
<path d="M406.333 85.6371C406.333 132.932 367.993 171.272 320.698 171.272C273.403 171.272 235.062 132.932 235.062 85.6371C235.062 38.3421 273.403 0.00195312 320.698 0.00195312C367.993 0.00195312 406.333 38.3421 406.333 85.6371Z" fill="black"/>
<path d="M625.026 280.998C619.073 280.998 613.771 279.979 609.123 277.94C604.474 275.901 600.804 273.128 598.112 269.621C595.421 266.032 593.912 262.036 593.586 257.632H614.261C614.505 259.997 615.606 261.914 617.564 263.382C619.521 264.85 621.927 265.584 624.782 265.584C627.391 265.584 629.39 265.094 630.776 264.116C632.244 263.056 632.978 261.71 632.978 260.079C632.978 258.121 631.959 256.694 629.92 255.797C627.881 254.818 624.578 253.758 620.01 252.616C615.117 251.474 611.039 250.292 607.777 249.068C604.515 247.764 601.701 245.765 599.336 243.074C596.971 240.301 595.788 236.59 595.788 231.941C595.788 228.027 596.848 224.479 598.969 221.298C601.171 218.036 604.352 215.467 608.511 213.591C612.752 211.715 617.768 210.777 623.558 210.777C632.122 210.777 638.85 212.898 643.744 217.139C648.719 221.38 651.573 227.007 652.307 234.021H632.978C632.652 231.656 631.592 229.78 629.797 228.394C628.085 227.007 625.801 226.314 622.947 226.314C620.5 226.314 618.624 226.803 617.319 227.782C616.014 228.679 615.362 229.943 615.362 231.574C615.362 233.532 616.381 235 618.42 235.979C620.541 236.957 623.803 237.936 628.207 238.915C633.264 240.22 637.382 241.524 640.563 242.829C643.744 244.053 646.517 246.092 648.882 248.946C651.328 251.719 652.593 255.471 652.674 260.201C652.674 264.197 651.532 267.786 649.249 270.967C647.047 274.066 643.825 276.512 639.584 278.307C635.425 280.101 630.572 280.998 625.026 280.998Z" fill="black"/>
<path d="M510.047 245.761C510.047 238.747 511.352 232.589 513.962 227.288C516.653 221.987 520.282 217.909 524.85 215.055C529.417 212.2 534.514 210.773 540.142 210.773C544.627 210.773 548.705 211.711 552.375 213.586C556.127 215.462 559.063 217.991 561.183 221.171V189.486H582.103V280.015H561.183V270.228C559.226 273.49 556.412 276.1 552.742 278.058C549.154 280.015 544.953 280.994 540.142 280.994C534.514 280.994 529.417 279.566 524.85 276.712C520.282 273.776 516.653 269.657 513.962 264.356C511.352 258.973 510.047 252.775 510.047 245.761ZM561.183 245.883C561.183 240.664 559.715 236.545 556.779 233.527C553.925 230.51 550.418 229.001 546.258 229.001C542.099 229.001 538.551 230.51 535.615 233.527C532.761 236.463 531.333 240.541 531.333 245.761C531.333 250.981 532.761 255.14 535.615 258.239C538.551 261.257 542.099 262.766 546.258 262.766C550.418 262.766 553.925 261.257 556.779 258.239C559.715 255.221 561.183 251.103 561.183 245.883Z" fill="black"/>
<path d="M473.399 211.016C481.392 211.016 487.753 213.625 492.483 218.845C497.295 223.983 499.701 231.079 499.701 240.132V280.013H478.904V242.945C478.904 238.378 477.721 234.83 475.356 232.302C472.991 229.774 469.81 228.51 465.814 228.51C461.818 228.51 458.637 229.774 456.272 232.302C453.907 234.83 452.724 238.378 452.724 242.945V280.013H431.805V211.75H452.724V220.802C454.845 217.785 457.699 215.42 461.288 213.707C464.876 211.913 468.913 211.016 473.399 211.016Z" fill="black"/>
<path d="M406.213 204.661C402.543 204.661 399.525 203.601 397.16 201.481C394.876 199.279 393.734 196.587 393.734 193.407C393.734 190.144 394.876 187.453 397.16 185.332C399.525 183.13 402.543 182.029 406.213 182.029C409.801 182.029 412.737 183.13 415.021 185.332C417.386 187.453 418.569 190.144 418.569 193.407C418.569 196.587 417.386 199.279 415.021 201.481C412.737 203.601 409.801 204.661 406.213 204.661ZM416.611 211.757V280.02H395.692V211.757H416.611Z" fill="black"/>
<path d="M353.298 211.016C361.78 211.016 368.509 213.585 373.484 218.723C378.54 223.861 381.069 230.997 381.069 240.132V280.013H360.272V242.945C360.272 238.541 359.089 235.157 356.724 232.791C354.44 230.345 351.26 229.121 347.182 229.121C343.104 229.121 339.882 230.345 337.517 232.791C335.234 235.157 334.092 238.541 334.092 242.945V280.013H313.295V242.945C313.295 238.541 312.112 235.157 309.747 232.791C307.463 230.345 304.283 229.121 300.205 229.121C296.127 229.121 292.905 230.345 290.54 232.791C288.257 235.157 287.115 238.541 287.115 242.945V280.013H266.195V211.75H287.115V220.313C289.235 217.459 292.008 215.216 295.434 213.585C298.859 211.872 302.733 211.016 307.055 211.016C312.194 211.016 316.761 212.117 320.757 214.319C324.835 216.521 328.016 219.661 330.299 223.739C332.664 219.987 335.886 216.929 339.964 214.563C344.042 212.198 348.487 211.016 353.298 211.016Z" fill="black"/>
<path d="M240.658 204.661C236.988 204.661 233.97 203.601 231.605 201.481C229.321 199.279 228.18 196.587 228.18 193.407C228.18 190.144 229.321 187.453 231.605 185.332C233.97 183.13 236.988 182.029 240.658 182.029C244.246 182.029 247.183 183.13 249.466 185.332C251.831 187.453 253.014 190.144 253.014 193.407C253.014 196.587 251.831 199.279 249.466 201.481C247.183 203.601 244.246 204.661 240.658 204.661ZM251.057 211.757V280.02H230.137V211.757H251.057Z" fill="black"/>
<path d="M218.468 262.278V280.016H207.825C200.24 280.016 194.328 278.181 190.087 274.511C185.846 270.76 183.725 264.684 183.725 256.283V229.125H175.406V211.753H183.725V195.115H204.645V211.753H218.346V229.125H204.645V256.528C204.645 258.567 205.134 260.035 206.113 260.932C207.091 261.829 208.722 262.278 211.006 262.278H218.468Z" fill="black"/>
<path d="M149.005 223.127C151.452 219.375 154.51 216.439 158.181 214.319C161.851 212.117 165.929 211.016 170.414 211.016V233.158H164.664C159.445 233.158 155.53 234.3 152.92 236.584C150.31 238.786 149.005 242.701 149.005 248.328V280.013H128.086V211.75H149.005V223.127Z" fill="black"/>
<path d="M81.2952 280.998C74.6075 280.998 68.5723 279.571 63.1895 276.716C57.8883 273.862 53.6881 269.784 50.5889 264.483C47.5713 259.182 46.0625 252.983 46.0625 245.888C46.0625 238.874 47.6121 232.716 50.7113 227.415C53.8104 222.032 58.0514 217.914 63.4342 215.059C68.817 212.205 74.8522 210.777 81.5399 210.777C88.2276 210.777 94.2628 212.205 99.6456 215.059C105.028 217.914 109.269 222.032 112.369 227.415C115.468 232.716 117.017 238.874 117.017 245.888C117.017 252.902 115.427 259.1 112.246 264.483C109.147 269.784 104.865 273.862 99.401 276.716C94.0182 279.571 87.9829 280.998 81.2952 280.998ZM81.2952 262.892C85.2916 262.892 88.6762 261.424 91.4491 258.488C94.3036 255.552 95.7309 251.352 95.7309 245.888C95.7309 240.423 94.3444 236.223 91.5715 233.287C88.8801 230.351 85.5362 228.883 81.5399 228.883C77.4621 228.883 74.0774 230.351 71.386 233.287C68.6946 236.142 67.3489 240.342 67.3489 245.888C67.3489 251.352 68.6539 255.552 71.2637 258.488C73.9551 261.424 77.2989 262.892 81.2952 262.892Z" fill="black"/>
<path d="M59.7037 229.135H29.1215V280.027H8.20201V229.135H0.617188V211.763H8.20201V209.806C8.20201 201.405 10.608 195.044 15.4198 190.721C20.2317 186.317 27.2864 184.115 36.5839 184.115C38.1335 184.115 39.2753 184.156 40.0094 184.238V201.976C36.013 201.732 33.1993 202.303 31.5682 203.689C29.937 205.075 29.1215 207.563 29.1215 211.151V211.763L80.093 211.151L59.7037 229.135Z" fill="black"/>
<path fill-rule="evenodd" clip-rule="evenodd" d="M316.559 27.5671C317.148 27.884 317.639 28.3531 317.979 28.9242C318.319 29.4953 318.495 30.1468 318.488 30.8089V61.6306C318.488 62.187 318.359 62.736 318.111 63.2357C317.863 63.7354 317.502 64.1725 317.056 64.5136L306.818 72.3252C311.634 75.6328 318.488 80.3162 318.488 86.9973C318.488 94.0732 312.24 99.0676 306.636 102.166L316.947 109.379C317.917 110.079 318.488 111.174 318.488 112.37V143.192C318.488 144.531 317.772 145.764 316.595 146.392C316.023 146.695 315.376 146.836 314.727 146.799C314.079 146.762 313.453 146.549 312.92 146.182L273.671 119.021C271.054 117.281 268.898 114.948 267.383 112.217C265.867 109.487 265.037 106.438 264.961 103.326C264.961 98.8583 266.963 93.4751 273.634 87.1409C268.533 82.8463 264.961 77.6426 264.961 70.6743C264.961 62.3364 274.775 55.1887 280.804 51.3547L312.81 27.8841C313.344 27.4933 313.977 27.2566 314.639 27.2006C315.301 27.1446 315.966 27.2715 316.559 27.5671ZM280.094 60.7514C277.486 62.8628 272.1 66.8403 272.1 70.6743C272.1 76.0216 275.381 79.3293 279.233 82.4575L289.938 75.5312L297.077 79.754L285.231 86.9674L299.928 97.4168C303.858 95.7599 311.349 92.1353 311.349 86.9973C311.349 81.5484 302.572 78.1689 298.684 75.5312C292.51 71.3084 284.091 67.3667 280.124 60.7514H280.094ZM279.378 91.6089C272.888 97.4467 272.1 101.358 272.1 103.326C272.1 105.898 273.422 110.115 277.631 113.004H277.668L280.701 115.115C281.67 112.51 283.188 110.137 285.156 108.154C287.124 106.17 289.496 104.62 292.116 103.607L297.392 108.745C293.116 110.647 288.689 114.481 287.87 116.312C287.392 117.348 287.172 118.482 287.227 119.619L311.349 136.331V114.266C300.655 106.765 289.998 99.2122 279.378 91.6089ZM285.941 56.5285C288.367 61.6665 296.04 65.0459 300.534 68.0725L311.349 59.8003V37.9147L285.941 56.5644V56.5285ZM327.513 27.603C328.078 27.3024 328.716 27.1602 329.358 27.1918C329.999 27.2235 330.62 27.4277 331.152 27.7824L368.618 53.185C374.865 57.3719 379.141 62.8269 379.141 70.6743C379.141 77.1102 375.041 82.5293 370.577 86.7162C374.501 89.8863 379.141 95.1618 379.141 103.326C379.141 113.53 371.614 118.423 366.653 121.623L365.045 122.64C362.334 124.506 341.324 139.041 331.225 146.182C330.692 146.549 330.066 146.762 329.417 146.799C328.768 146.836 328.122 146.695 327.549 146.392C326.966 146.078 326.479 145.616 326.14 145.053C325.801 144.489 325.621 143.847 325.62 143.192V112.37C325.62 111.246 326.154 110.157 327.046 109.481L337.072 101.849C331.51 98.4396 325.62 94.5278 325.62 86.9973C325.62 80.388 332.505 75.25 337.217 71.7629L327.155 64.5854C326.68 64.2476 326.294 63.8037 326.027 63.2901C325.76 62.7764 325.621 62.2077 325.62 61.6306V30.8089C325.61 30.16 325.781 29.5208 326.115 28.9615C326.449 28.4022 326.932 27.9446 327.513 27.6388V27.603ZM343.428 76.1652C340.681 78.133 332.753 82.7745 332.753 86.9973C332.753 92.8411 341.463 96.0769 345.284 98.3977L345.424 98.4695C352.132 103.015 360.514 106.879 364.906 114.057C369.042 111.21 372.002 108.536 372.002 103.326C372.002 97.5902 368.333 93.9655 364.942 91.4713L354.164 99.7016L347.031 96.0769L358.804 87.105L343.459 76.1951L343.428 76.1652ZM364.657 82.4276L332.753 59.7285V37.5618L355.771 53.1491C359.52 55.6852 348.493 64.059 347.031 65.2553L354.164 68.8799C358.167 65.6082 361.157 63.3891 362.977 58.0418L364.693 59.2022C368.866 62.0134 372.008 65.2912 372.008 70.6743C372.008 75.4594 367.938 79.4669 364.657 82.4276ZM358.944 118.07C355.735 112.442 348.705 109.415 343.604 105.928L332.759 114.2V136.259L358.98 118.07H358.944Z" fill="white"/>
</svg>
