<svg width="512" height="512" viewBox="0 0 512 512" fill="none" xmlns="http://www.w3.org/2000/svg">
<path fill-rule="evenodd" clip-rule="evenodd" d="M367 79H103V245H367V79ZM102 78V246H368V78H102Z" fill="#607D8B"/>
<path fill-rule="evenodd" clip-rule="evenodd" d="M159 103H111V141H159V103ZM110 102V142H160V102H110Z" fill="#607D8B"/>
<path fill-rule="evenodd" clip-rule="evenodd" d="M275 103H227V131H275V103ZM226 102V132H276V102H226Z" fill="#607D8B"/>
<path fill-rule="evenodd" clip-rule="evenodd" d="M159 151H111V237H159V151ZM110 150V238H160V150H110Z" fill="#607D8B"/>
<path fill-rule="evenodd" clip-rule="evenodd" d="M217 103H169V189H217V103ZM168 102V190H218V102H168Z" fill="#607D8B"/>
<path fill-rule="evenodd" clip-rule="evenodd" d="M360 103H312V189H360V103ZM311 102V190H361V102H311Z" fill="#607D8B"/>
<rect x="102" y="79" width="266" height="16" fill="#607D8B"/>
<path d="M355.5 447C349.9 444.2 349.833 434.5 350.5 430H364.874C364.139 429.396 364.763 429.632 365.5 430H364.874C365.469 430.489 366.957 431.531 370 433.5C378.5 439 391 449 391 453C391 456.2 383 457 379 457C370 455.5 361.1 449.8 355.5 447Z" fill="#607D8B"/>
<path fill-rule="evenodd" clip-rule="evenodd" d="M335 333H213V471H335V333ZM212 332V472H336V332H212Z" fill="#607D8B"/>
<path fill-rule="evenodd" clip-rule="evenodd" d="M314 380H234V379H314V380Z" fill="#607D8B"/>
<path fill-rule="evenodd" clip-rule="evenodd" d="M314 403H234V402H314V403Z" fill="#607D8B"/>
<path fill-rule="evenodd" clip-rule="evenodd" d="M314 426H234V425H314V426Z" fill="#607D8B"/>
<path fill-rule="evenodd" clip-rule="evenodd" d="M314 449H234V448H314V449Z" fill="#607D8B"/>
<path d="M212 332L200 344V472H212V332Z" fill="#4FC3F7"/>
<path fill-rule="evenodd" clip-rule="evenodd" d="M212 332V472H200V344L212 332ZM211 334.414V471H201V344.414L211 334.414Z" fill="#607D8B"/>
<path d="M303 149C305 157.833 303 174.5 293.5 179C291.159 180.109 287.36 179.032 284.327 177.384L284.5 177.5C283.833 179 282.5 183.6 280.5 186C275.3 191.6 273.333 193 272.5 193.5L259.5 185L272.5 167.5L279 149H303Z" fill="white"/>
<path fill-rule="evenodd" clip-rule="evenodd" d="M278.528 148.834C278.599 148.634 278.788 148.5 279 148.5H303C303.234 148.5 303.436 148.662 303.488 148.89C304.506 153.388 304.502 159.842 303.048 165.745C301.597 171.631 298.668 177.105 293.714 179.452C292.401 180.074 290.739 180.061 289.071 179.715C287.632 179.416 286.137 178.858 284.763 178.175C284.646 178.475 284.512 178.839 284.359 179.255L284.344 179.296C284.094 179.975 283.8 180.773 283.463 181.601C282.794 183.245 281.937 185.057 280.884 186.32C280.881 186.324 280.877 186.328 280.874 186.332C280.871 186.335 280.869 186.338 280.866 186.34C275.66 191.947 273.654 193.391 272.757 193.929C272.593 194.027 272.387 194.023 272.226 193.918L259.226 185.418C259.111 185.343 259.032 185.223 259.008 185.088C258.984 184.952 259.016 184.812 259.099 184.702L272.053 167.263L278.528 148.834ZM284.585 176.956C286.064 177.757 287.718 178.413 289.275 178.736C290.85 179.063 292.258 179.035 293.286 178.548C297.832 176.395 300.653 171.286 302.077 165.505C303.456 159.911 303.493 153.817 302.597 149.5H279.354L272.972 167.666C272.955 167.713 272.931 167.758 272.901 167.798L260.218 184.872L272.505 192.906C273.422 192.302 275.448 190.705 280.124 185.67C281.068 184.533 281.875 182.851 282.537 181.224C282.867 180.414 283.156 179.631 283.406 178.951L283.432 178.879C283.594 178.439 283.742 178.037 283.873 177.705C282.863 177.142 281.938 176.516 281.18 175.884C280.976 175.714 280.94 175.414 281.099 175.201C281.258 174.988 281.556 174.937 281.777 175.084L284.585 176.956Z" fill="#607D8B"/>
<path d="M269 151.5C272.529 143.5 279 139.5 283 138C295 135 303 142.375 308 143C310.137 143.267 314.833 143.333 316 143C311.5 154.5 301 151.5 295 151.5C289 151.5 290 157 288 157C286 157 285 149 283 151.5C281 154 281 153.5 281 157C281 159.8 283.667 162.167 285 163C284.333 163 282.6 163.3 281 164.5C279.4 165.7 278 169.333 277.5 171C272.167 170.167 263 165.1 269 151.5Z" fill="#607D8B"/>
<path d="M226.5 233.5C226.1 249.1 230.333 261 232.5 265C261.7 274.6 302.333 253.667 319 242C300 231 298.5 180 282 183.5C268.8 186.3 264.833 182.333 264.5 180C244 187.5 227 214 226.5 233.5Z" fill="#00D6C8"/>
<path fill-rule="evenodd" clip-rule="evenodd" d="M264.908 179.318L264.995 179.929C265.128 180.858 266.026 182.311 268.589 183.203C271.153 184.095 275.343 184.401 281.896 183.011C284.097 182.544 286.06 182.99 287.821 184.139C289.565 185.277 291.098 187.094 292.496 189.354C295.287 193.87 297.633 200.316 300.034 207.147C300.223 207.684 300.413 208.225 300.603 208.767C302.836 215.135 305.158 221.755 307.973 227.507C311.031 233.757 314.633 238.894 319.251 241.567L319.929 241.96L319.287 242.41C310.921 248.266 296.555 256.439 280.613 261.948C264.685 267.452 247.099 270.326 232.344 265.475L232.155 265.413L232.06 265.238C229.851 261.159 225.598 249.172 226 233.487C226.253 223.613 230.676 212.021 237.588 201.967C244.501 191.912 253.951 183.327 264.328 179.53L264.908 179.318ZM238.412 202.533C231.574 212.479 227.247 223.886 227 233.513C226.608 248.804 230.695 260.499 232.846 264.587C247.252 269.249 264.501 266.458 280.287 261.002C295.735 255.664 309.702 247.803 318.084 242.027C313.527 239.111 310.015 233.954 307.074 227.946C304.232 222.139 301.891 215.463 299.663 209.107C299.471 208.562 299.281 208.018 299.091 207.478C296.68 200.621 294.369 194.286 291.645 189.88C290.285 187.68 288.845 186.001 287.275 184.976C285.721 183.963 284.028 183.581 282.104 183.989C275.457 185.399 271.063 185.122 268.261 184.147C265.843 183.306 264.58 181.929 264.149 180.665C254.229 184.463 245.131 192.76 238.412 202.533Z" fill="#607D8B"/>
<path fill-rule="evenodd" clip-rule="evenodd" d="M303.001 235.492C302.543 227.641 301.669 218.801 301.003 213.058L301.997 212.942C302.664 218.698 303.54 227.558 303.999 235.433C304.229 239.37 304.354 243.069 304.297 246.014C304.268 247.487 304.193 248.78 304.06 249.825C303.93 250.851 303.737 251.702 303.437 252.243L302.563 251.757C302.763 251.398 302.94 250.714 303.068 249.699C303.195 248.704 303.268 247.449 303.297 245.995C303.354 243.087 303.23 239.418 303.001 235.492ZM264 246C264 243.634 263.005 233.738 262.503 229.053L263.497 228.947C263.995 233.596 265 243.566 265 246H264Z" fill="#607D8B"/>
<path d="M341 282.5L316 300L280.5 282.5C284.667 275.5 300 258.2 328 245C356 231.8 377.667 234.833 385 238C391.833 239.833 402 248.9 388 270.5C374 292.1 363.833 316.167 360.5 325.5L336.5 309.5L341 282.5Z" fill="white"/>
<path fill-rule="evenodd" clip-rule="evenodd" d="M385.165 237.527C388.696 238.485 393.085 241.307 394.789 246.687C396.499 252.084 395.459 259.911 388.42 270.772C374.446 292.332 364.295 316.362 360.971 325.668L360.755 326.271L335.954 309.737L340.311 283.593L316.044 300.579L279.794 282.709L280.07 282.244C284.295 275.147 299.71 257.784 327.787 244.548C355.852 231.317 377.647 234.299 385.165 237.527ZM384.802 238.459C377.622 235.359 356.107 232.303 328.213 245.452C300.894 258.331 285.704 275.109 281.212 282.294L315.956 299.421L341.689 281.408L337.046 309.263L360.246 324.73C363.797 314.972 373.846 291.419 387.58 270.228C394.54 259.49 395.418 251.983 393.836 246.989C392.254 241.995 388.166 239.367 384.87 238.483L384.835 238.474L384.802 238.459Z" fill="#607D8B"/>
<path fill-rule="evenodd" clip-rule="evenodd" d="M345.114 272.09C347.5 268.645 350.296 265.497 352.146 263.646L352.854 264.354C351.038 266.17 348.283 269.272 345.936 272.66C343.573 276.071 341.689 279.681 341.499 282.533L340.501 282.467C340.711 279.319 342.743 275.513 345.114 272.09Z" fill="#607D8B"/>
<path d="M320.5 240C317.3 237.2 317 234.373 320.5 232C330.087 225.5 349.857 210.013 354 207C359 203.364 361.333 205.333 363 207C367.833 211.5 378.355 220.126 379.5 221.5C382 224.5 380.5 226.5 377.5 229C374.704 231.33 344.5 255 342 256C340 256.8 337.5 255.667 336.5 255C332.5 251.167 323.7 242.8 320.5 240Z" fill="#607D8B"/>
<path d="M324 232.5L354 210.5C357.6 207.893 360.167 209.414 361 210.5C365 213.833 373.5 221 375.5 223C377.5 225 374.677 226.639 373 228C364.167 235.167 345.8 249.8 343 251C340.2 252.2 338.167 250.5 337.5 249.5C334.333 246.167 325.816 239.542 324 237C322.184 234.458 323 233.5 324 232.5Z" fill="white"/>
<path d="M381.5 228.5C379.5 229.3 378.333 228.5 378 228L381 225C384.5 220 376 222.5 373.5 222.5C371 222.5 366 217 365.5 214C365 211 369.5 208.5 373.5 208.5C377.623 208.5 386.5 213 386.5 218.5C386.5 224 384 227.5 381.5 228.5Z" fill="white"/>
<path fill-rule="evenodd" clip-rule="evenodd" d="M367.543 209.704C369.188 208.651 371.407 208 373.5 208C375.693 208 379.039 209.176 381.822 211.021C384.589 212.854 387 215.485 387 218.5C387 224.129 384.437 227.864 381.686 228.964C379.49 229.842 378.062 228.995 377.584 228.277L377.357 227.936L380.615 224.678C381.02 224.094 381.224 223.657 381.299 223.341C381.373 223.031 381.315 222.881 381.253 222.796C381.177 222.692 381.015 222.579 380.697 222.495C380.385 222.413 379.98 222.375 379.5 222.375C378.541 222.375 377.387 222.526 376.29 222.682C376.162 222.701 376.035 222.719 375.909 222.737C374.977 222.872 374.091 223 373.5 223C372.719 223 371.833 222.583 370.985 222.007C370.118 221.418 369.215 220.61 368.384 219.715C367.552 218.819 366.781 217.825 366.184 216.856C365.592 215.896 365.147 214.925 365.007 214.082C364.707 212.284 365.92 210.743 367.543 209.704ZM368.082 210.546C366.581 211.507 365.793 212.716 365.993 213.918C366.103 214.575 366.471 215.416 367.035 216.331C367.594 217.237 368.323 218.18 369.116 219.035C369.911 219.89 370.757 220.644 371.547 221.18C372.355 221.729 373.031 222 373.5 222C374.013 222 374.817 221.884 375.772 221.746C375.895 221.729 376.021 221.711 376.148 221.692C377.238 221.537 378.459 221.375 379.5 221.375C380.02 221.375 380.522 221.415 380.952 221.528C381.376 221.64 381.792 221.839 382.06 222.204C382.341 222.588 382.393 223.062 382.272 223.573C382.153 224.071 381.864 224.638 381.41 225.287L381.385 225.323L378.707 228.001C379.129 228.294 379.974 228.572 381.314 228.036C383.563 227.136 386 223.871 386 218.5C386 216.015 383.973 213.646 381.27 211.854C378.584 210.074 375.43 209 373.5 209C371.593 209 369.562 209.599 368.082 210.546Z" fill="#607D8B"/>
<path d="M232 299.5C230.8 287.9 235.167 279.667 237.5 277C239.106 274.6 269.169 281.333 284 285C304 285 332.2 296.9 347 304.5C361.8 312.1 365.5 332 365.5 341C366.667 367 368.8 420.4 368 426C367 433 349.5 433.5 347 429.5C345 426.3 325.5 364.5 316 334C308.5 336 275.5 339 255 334C234.5 329 233.5 314 232 299.5Z" fill="white"/>
<path fill-rule="evenodd" clip-rule="evenodd" d="M284.061 284.5C294.132 284.512 306.218 287.504 317.613 291.427C329.039 295.361 339.811 300.246 347.228 304.055C354.775 307.931 359.465 314.927 362.265 322.042C365.064 329.151 365.998 336.433 366 340.989C366.583 353.99 367.408 373.836 367.987 391.133C368.277 399.784 368.505 407.8 368.611 414.004C368.664 417.106 368.686 419.757 368.67 421.81C368.654 423.85 368.601 425.331 368.495 426.071C368.213 428.043 366.775 429.497 364.883 430.504C362.988 431.513 360.56 432.118 358.114 432.372C355.665 432.627 353.161 432.533 351.096 432.115C350.064 431.906 349.127 431.614 348.358 431.233C347.593 430.856 346.956 430.374 346.576 429.765C346.423 429.521 346.215 429.05 345.963 428.421C345.704 427.778 345.386 426.929 345.013 425.899C344.268 423.838 343.304 421.038 342.174 417.676C339.916 410.953 336.993 401.972 333.836 392.14C327.585 372.669 320.415 349.853 315.663 334.601C311.54 335.593 301.699 336.764 290.391 337.125C278.626 337.5 265.198 337.002 254.882 334.486C244.5 331.954 238.996 326.864 235.925 320.531C233.042 314.584 232.324 307.571 231.622 300.717C231.583 300.328 231.543 299.939 231.503 299.551C230.291 287.84 234.679 279.481 237.106 276.691C237.316 276.402 237.67 276.256 237.997 276.17C238.36 276.076 238.813 276.024 239.332 276.005C240.373 275.965 241.765 276.048 243.411 276.225C246.708 276.578 251.096 277.312 255.885 278.234C265.442 280.073 276.64 282.666 284.061 284.5ZM237.917 277.278C237.915 277.279 237.915 277.279 237.916 277.278L237.898 277.305L237.876 277.329C235.633 279.893 231.312 287.989 232.497 299.449C232.536 299.819 232.574 300.189 232.611 300.558C233.32 307.465 234.022 314.313 236.825 320.094C239.754 326.136 245 331.046 255.118 333.514C265.302 335.998 278.624 336.5 290.359 336.125C302.101 335.75 312.179 334.502 315.871 333.517L316.335 333.393L316.477 333.851C321.227 349.1 328.477 372.174 334.789 391.835C337.945 401.665 340.866 410.641 343.122 417.358C344.251 420.717 345.212 423.508 345.954 425.559C346.324 426.584 346.639 427.421 346.891 428.049C347.149 428.692 347.327 429.079 347.424 429.235C347.669 429.626 348.125 430.003 348.801 430.337C349.47 430.668 350.319 430.937 351.294 431.135C353.246 431.53 355.647 431.623 358.011 431.378C360.378 431.132 362.668 430.55 364.414 429.621C366.163 428.69 367.287 427.457 367.505 425.929C367.599 425.269 367.654 423.856 367.67 421.802C367.686 419.761 367.664 417.119 367.611 414.021C367.505 407.825 367.277 399.816 366.988 391.167C366.409 373.869 365.584 354.021 365.001 341.022L365 341.011V341C365 336.555 364.084 329.393 361.335 322.408C358.585 315.423 354.025 308.669 346.772 304.945C339.389 301.154 328.661 296.289 317.287 292.373C305.905 288.454 293.917 285.5 284 285.5H283.939L283.88 285.485C276.469 283.653 265.255 281.055 255.696 279.216C250.915 278.296 246.559 277.568 243.304 277.219C241.674 277.044 240.338 276.967 239.37 277.004C238.884 277.022 238.512 277.069 238.25 277.138C238.002 277.203 237.928 277.268 237.917 277.278Z" fill="#607D8B"/>
<path d="M288 256.5C276.4 256.5 267.833 248.833 265 245C246.6 250.2 235.667 260.833 232.5 265.5C233 272.167 240.4 286.1 266 288.5C298 291.5 330.5 244 335 242.5C339.5 241 345.5 242.5 347.5 240C349.5 237.5 350 235 349.5 231C349.1 227.8 352.333 226.333 354 226C357.667 224.833 364.2 222.2 361 221C357 219.5 345.5 221.5 338 227.5C330.5 233.5 302.5 256.5 288 256.5Z" fill="white"/>
<path fill-rule="evenodd" clip-rule="evenodd" d="M350.932 221.923C346.67 222.973 341.992 224.947 338.312 227.89C337.995 228.144 337.641 228.429 337.252 228.741C333.054 232.113 324.846 238.704 315.902 244.666C311.017 247.923 305.9 251 301.088 253.265C296.288 255.524 291.738 257 288 257C276.461 257 267.892 249.564 264.808 245.575C246.907 250.722 236.22 261.022 233.013 265.636C233.607 272.082 240.863 285.641 266.047 288.002C273.916 288.74 281.847 286.375 289.413 282.348C296.979 278.321 304.146 272.648 310.474 266.82C316.8 260.993 322.271 255.023 326.45 250.407C326.761 250.063 327.066 249.726 327.363 249.397C329.056 247.524 330.514 245.912 331.695 244.684C332.39 243.962 332.997 243.364 333.507 242.92C333.998 242.492 334.455 242.154 334.842 242.026C336.819 241.367 339.075 241.266 341.097 241.176C341.46 241.16 341.816 241.144 342.16 241.126C343.315 241.063 344.35 240.971 345.212 240.75C346.072 240.529 346.704 240.194 347.11 239.688C348.068 238.49 348.655 237.309 348.949 235.956C349.245 234.595 349.25 233.032 349.004 231.062C348.778 229.253 349.592 227.93 350.654 227.041C351.69 226.176 352.982 225.698 353.874 225.515C355.696 224.934 358.191 224.001 359.829 223.077C360.239 222.846 360.583 222.622 360.845 222.412C361.115 222.195 361.263 222.021 361.326 221.898C361.371 221.809 361.355 221.791 361.348 221.782C361.348 221.782 361.347 221.781 361.347 221.78C361.313 221.728 361.189 221.605 360.824 221.468C359.915 221.127 358.524 220.969 356.793 221.039C355.074 221.107 353.061 221.399 350.932 221.923ZM356.753 220.04C358.538 219.968 360.085 220.123 361.176 220.532C361.611 220.695 361.982 220.917 362.19 221.243C362.426 221.614 362.388 222.013 362.218 222.349C362.06 222.66 361.783 222.942 361.471 223.192C361.151 223.448 360.757 223.702 360.321 223.948C358.583 224.928 355.994 225.89 354.152 226.476L354.125 226.485L354.098 226.49C353.324 226.645 352.183 227.067 351.296 227.809C350.425 228.537 349.822 229.547 349.996 230.938C350.25 232.968 350.255 234.655 349.926 236.169C349.595 237.691 348.932 239.01 347.89 240.312C347.296 241.056 346.427 241.471 345.46 241.719C344.494 241.966 343.373 242.062 342.214 242.124C341.85 242.144 341.481 242.161 341.109 242.177C339.082 242.269 336.99 242.364 335.158 242.974C334.982 243.033 334.658 243.243 334.164 243.674C333.687 244.089 333.104 244.662 332.416 245.377C331.246 246.593 329.801 248.191 328.107 250.065C327.809 250.394 327.504 250.732 327.191 251.078C323.01 255.696 317.513 261.695 311.151 267.555C304.791 273.414 297.553 279.148 289.883 283.23C282.215 287.312 274.084 289.76 265.953 288.998C240.165 286.58 232.523 272.498 232.001 265.537L231.988 265.364L232.086 265.219C235.32 260.453 246.353 249.75 264.864 244.519L265.197 244.425L265.402 244.703C268.179 248.459 276.613 256 288 256C291.512 256 295.9 254.601 300.662 252.36C305.412 250.125 310.483 247.077 315.348 243.834C324.252 237.898 332.427 231.333 336.627 227.961C337.015 227.649 337.37 227.364 337.688 227.11C341.508 224.053 346.33 222.027 350.693 220.952C352.877 220.414 354.957 220.111 356.753 220.04Z" fill="#607D8B"/>
<mask id="mask0_92_305" style="mask-type:alpha" maskUnits="userSpaceOnUse" x="48" y="250" width="96" height="96">
<rect x="48" y="250" width="96" height="96" fill="#D9D9D9"/>
</mask>
<g mask="url(#mask0_92_305)">
<path d="M91.8 296.3L85.4 289.9C85.2 289.7 84.7 289.767 83.9 290.1C83.1 290.433 82.3333 290.733 81.6 291C80.8667 291.267 80.3833 291.383 80.15 291.35C79.9167 291.317 80.2667 290.833 81.2 289.9C80.6 290.5 80.3 291.2 80.3 292C80.3 292.8 80.6 293.5 81.2 294.1L89.7 302.6C90.3 303.2 91 303.5 91.8 303.5C92.6 303.5 93.3 303.2 93.9 302.6L112 285.6C112 284.867 111.933 284.117 111.8 283.35C111.667 282.583 111.332 281.929 110.795 281.387C110.209 280.796 109.513 280.5 108.708 280.5C107.903 280.5 107.2 280.8 106.6 281.4L91.8 296.3ZM52 334V328H137C137.85 328 138.563 328.289 139.138 328.868C139.713 329.446 140 330.163 140 331.018C140 331.873 139.713 332.583 139.138 333.15C138.563 333.717 137.85 334 137 334H52ZM62 322C60.4 322 59 321.4 57.8 320.2C56.6 319 56 317.6 56 316V268C56 266.4 56.6 265 57.8 263.8C59 262.6 60.4 262 62 262H130C131.6 262 133 262.6 134.2 263.8C135.4 265 136 266.4 136 268V316C136 317.6 135.4 319 134.2 320.2C133 321.4 131.6 322 130 322H62ZM62 316H130V268H62V316Z" fill="#4FC3F7"/>
</g>
<mask id="mask1_92_305" style="mask-type:alpha" maskUnits="userSpaceOnUse" x="384" y="296" width="48" height="48">
<rect x="384" y="296" width="48" height="48" fill="#D9D9D9"/>
</mask>
<g mask="url(#mask1_92_305)">
<path d="M408 328.2C410.333 328.2 412.333 327.408 414 325.825C415.667 324.242 416.5 322.3 416.5 320C416.5 317.633 415.675 315.625 414.025 313.975C412.375 312.325 410.367 311.5 408 311.5C405.7 311.5 403.758 312.333 402.175 314C400.592 315.667 399.8 317.667 399.8 320C399.8 322.3 400.592 324.242 402.175 325.825C403.758 327.408 405.7 328.2 408 328.2ZM408 322C407.433 322 406.958 321.808 406.575 321.425C406.192 321.042 406 320.567 406 320C406 319.433 406.192 318.958 406.575 318.575C406.958 318.192 407.433 318 408 318C408.567 318 409.042 318.192 409.425 318.575C409.808 318.958 410 319.433 410 320C410 320.567 409.808 321.042 409.425 321.425C409.042 321.808 408.567 322 408 322ZM408 340C405.267 340 402.683 339.475 400.25 338.425C397.817 337.375 395.692 335.942 393.875 334.125C392.058 332.308 390.625 330.183 389.575 327.75C388.525 325.317 388 322.733 388 320C388 317.233 388.525 314.633 389.575 312.2C390.625 309.767 392.058 307.65 393.875 305.85C395.692 304.05 397.817 302.625 400.25 301.575C402.683 300.525 405.267 300 408 300C410.767 300 413.367 300.525 415.8 301.575C418.233 302.625 420.35 304.05 422.15 305.85C423.95 307.65 425.375 309.767 426.425 312.2C427.475 314.633 428 317.233 428 320C428 322.733 427.475 325.317 426.425 327.75C425.375 330.183 423.95 332.308 422.15 334.125C420.35 335.942 418.233 337.375 415.8 338.425C413.367 339.475 410.767 340 408 340ZM408 337C412.733 337 416.75 335.342 420.05 332.025C423.35 328.708 425 324.7 425 320C425 315.267 423.35 311.25 420.05 307.95C416.75 304.65 412.733 303 408 303C403.3 303 399.292 304.65 395.975 307.95C392.658 311.25 391 315.267 391 320C391 324.7 392.658 328.708 395.975 332.025C399.292 335.342 403.3 337 408 337Z" fill="#4FC3F7"/>
</g>
<mask id="mask2_92_305" style="mask-type:alpha" maskUnits="userSpaceOnUse" x="124" y="342" width="60" height="60">
<rect x="124" y="342" width="60" height="60" fill="#D9D9D9"/>
</mask>
<g mask="url(#mask2_92_305)">
<path d="M132.75 394.5C131.75 394.5 130.875 394.125 130.125 393.375C129.375 392.625 129 391.75 129 390.75V353.25C129 352.25 129.375 351.375 130.125 350.625C130.875 349.875 131.75 349.5 132.75 349.5H147.75C148.75 349.5 149.625 349.875 150.375 350.625C151.125 351.375 151.5 352.25 151.5 353.25V390.75C151.5 391.75 151.125 392.625 150.375 393.375C149.625 394.125 148.75 394.5 147.75 394.5H132.75ZM160.25 394.5C159.25 394.5 158.375 394.125 157.625 393.375C156.875 392.625 156.5 391.75 156.5 390.75V353.25C156.5 352.25 156.875 351.375 157.625 350.625C158.375 349.875 159.25 349.5 160.25 349.5H175.25C176.25 349.5 177.125 349.875 177.875 350.625C178.625 351.375 179 352.25 179 353.25V390.75C179 391.75 178.625 392.625 177.875 393.375C177.125 394.125 176.25 394.5 175.25 394.5H160.25ZM132.75 390.75H147.75V353.25H132.75V390.75ZM160.25 390.75H175.25V353.25H160.25V390.75ZM136.5 379.062H144V375.312H136.5V379.062ZM164 379.062H171.5V375.312H164V379.062ZM136.5 371.312H144V367.562H136.5V371.312ZM164 371.312H171.5V367.562H164V371.312ZM136.5 363.562H144V359.812H136.5V363.562ZM164 363.562H171.5V359.812H164V363.562Z" fill="#008078"/>
</g>
<mask id="mask3_92_305" style="mask-type:alpha" maskUnits="userSpaceOnUse" x="432" y="190" width="72" height="72">
<rect x="432" y="190" width="72" height="72" fill="#D9D9D9"/>
</mask>
<g mask="url(#mask3_92_305)">
<path d="M439.725 244C438.426 244 437.313 243.575 436.388 242.725C435.463 241.875 435 240.8 435 239.5V200.5C435 199.263 435.441 198.203 436.322 197.321C437.203 196.44 438.263 196 439.5 196H490.5C491.737 196 492.797 196.44 493.678 197.321C494.559 198.203 495 199.263 495 200.5V216.25C495 216.888 494.783 217.422 494.349 217.853C493.916 218.284 493.378 218.5 492.737 218.5C492.096 218.5 491.562 218.284 491.137 217.853C490.712 217.422 490.5 216.888 490.5 216.25V205L466.2 220.525C466 220.625 465.813 220.7 465.638 220.75C465.463 220.8 465.25 220.825 465 220.825C464.75 220.825 464.538 220.8 464.363 220.75C464.188 220.7 464 220.625 463.8 220.525L439.5 205V239.5H474.75C475.388 239.5 475.922 239.717 476.354 240.151C476.785 240.584 477 241.122 477 241.764C477 242.405 476.785 242.938 476.354 243.363C475.922 243.788 475.388 244 474.75 244H439.725ZM465 216.475L490.5 200.5H439.5L465 216.475ZM491.4 256C488.6 256 486.25 255.001 484.35 253.004C482.45 251.006 481.5 248.605 481.5 245.8V229C481.5 227.35 482.087 225.938 483.262 224.763C484.436 223.588 485.874 223 487.575 223C489.234 223 490.636 223.588 491.782 224.763C492.927 225.938 493.5 227.35 493.5 229V244C493.5 244.638 493.283 245.172 492.849 245.603C492.416 246.034 491.878 246.25 491.237 246.25C490.596 246.25 490.062 246.034 489.637 245.603C489.212 245.172 489 244.638 489 244V228.775C489 228.215 488.888 227.725 488.663 227.305C488.438 226.885 488.075 226.675 487.575 226.675C487.075 226.675 486.688 226.885 486.413 227.305C486.138 227.725 486 228.215 486 228.775V245.95C486 247.6 486.5 249.05 487.5 250.3C488.5 251.55 489.8 252.175 491.4 252.175C492.9 252.175 494.125 251.588 495.075 250.413C496.025 249.238 496.5 247.85 496.5 246.25V233.725C496.5 233.087 496.717 232.553 497.151 232.121C497.585 231.69 498.122 231.475 498.763 231.475C499.404 231.475 499.938 231.69 500.363 232.121C500.787 232.553 501 233.087 501 233.725V246.25C501 248.931 500.075 251.226 498.225 253.136C496.375 255.045 494.1 256 491.4 256Z" fill="#00D6C8"/>
</g>
<mask id="mask4_92_305" style="mask-type:alpha" maskUnits="userSpaceOnUse" x="408" y="123" width="48" height="48">
<rect x="408" y="123" width="48" height="48" fill="#D9D9D9"/>
</mask>
<g mask="url(#mask4_92_305)">
<path d="M421.5 165C418.9 165 416.667 164.067 414.8 162.2C412.933 160.333 412 158.1 412 155.5C412 153.267 412.65 151.317 413.95 149.65C415.25 147.983 416.933 146.883 419 146.35V149.5C417.833 149.967 416.875 150.742 416.125 151.825C415.375 152.908 415 154.133 415 155.5C415 157.3 415.633 158.833 416.9 160.1C418.167 161.367 419.7 162 421.5 162C423.3 162 424.833 161.367 426.1 160.1C427.367 158.833 428 157.3 428 155.5V154H440.45C440.717 153.7 441.033 153.458 441.4 153.275C441.767 153.092 442.133 153 442.5 153C443.2 153 443.792 153.242 444.275 153.725C444.758 154.208 445 154.8 445 155.5C445 156.167 444.758 156.75 444.275 157.25C443.792 157.75 443.2 158 442.5 158C442.133 158 441.767 157.908 441.4 157.725C441.033 157.542 440.717 157.3 440.45 157H430.9C430.433 159.3 429.325 161.208 427.575 162.725C425.825 164.242 423.8 165 421.5 165ZM442.5 165C440.9 165 439.425 164.633 438.075 163.9C436.725 163.167 435.617 162.2 434.75 161H439.05C439.55 161.333 440.092 161.583 440.675 161.75C441.258 161.917 441.867 162 442.5 162C444.3 162 445.833 161.367 447.1 160.1C448.367 158.833 449 157.3 449 155.5C449 153.7 448.367 152.167 447.1 150.9C445.833 149.633 444.3 149 442.5 149C441.867 149 441.283 149.075 440.75 149.225C440.217 149.375 439.7 149.6 439.2 149.9L432.75 139C432.083 138.867 431.542 138.575 431.125 138.125C430.708 137.675 430.5 137.133 430.5 136.5C430.5 135.8 430.75 135.208 431.25 134.725C431.75 134.242 432.333 134 433 134C433.7 134 434.292 134.242 434.775 134.725C435.258 135.208 435.5 135.8 435.5 136.5C435.5 136.633 435.492 136.758 435.475 136.875C435.458 136.992 435.417 137.167 435.35 137.4L440.5 146.2C440.867 146.133 441.225 146.083 441.575 146.05C441.925 146.017 442.233 146 442.5 146C445.133 146 447.375 146.925 449.225 148.775C451.075 150.625 452 152.867 452 155.5C452 158.1 451.075 160.333 449.225 162.2C447.375 164.067 445.133 165 442.5 165ZM421.5 158C420.833 158 420.25 157.75 419.75 157.25C419.25 156.75 419 156.167 419 155.5C419 154.9 419.208 154.375 419.625 153.925C420.042 153.475 420.567 153.167 421.2 153L426.75 143.65C425.75 142.683 424.958 141.592 424.375 140.375C423.792 139.158 423.5 137.867 423.5 136.5C423.5 133.867 424.433 131.625 426.3 129.775C428.167 127.925 430.4 127 433 127C435.533 127 437.717 127.875 439.55 129.625C441.383 131.375 442.367 133.5 442.5 136H439.5C439.4 134.3 438.725 132.875 437.475 131.725C436.225 130.575 434.733 130 433 130C431.2 130 429.667 130.633 428.4 131.9C427.133 133.167 426.5 134.7 426.5 136.5C426.5 137.9 426.908 139.158 427.725 140.275C428.542 141.392 429.583 142.183 430.85 142.65L423.8 154.55C423.867 154.75 423.917 154.925 423.95 155.075C423.983 155.225 424 155.367 424 155.5C424 156.167 423.758 156.75 423.275 157.25C422.792 157.75 422.2 158 421.5 158Z" fill="#2F7594"/>
</g>
</svg>
